G04 #@! TF.GenerationSoftware,KiCad,Pcbnew,5.1.5+dfsg1-2build2*
G04 #@! TF.CreationDate,2020-05-12T21:17:34+02:00*
G04 #@! TF.ProjectId,attach_hexa,61747461-6368-45f6-9865-78612e6b6963,rev?*
G04 #@! TF.SameCoordinates,Original*
G04 #@! TF.FileFunction,Copper,L2,Bot*
G04 #@! TF.FilePolarity,Positive*
%FSLAX46Y46*%
G04 Gerber Fmt 4.6, Leading zero omitted, Abs format (unit mm)*
G04 Created by KiCad (PCBNEW 5.1.5+dfsg1-2build2) date 2020-05-12 21:17:34*
%MOMM*%
%LPD*%
G04 APERTURE LIST*
%ADD10O,1.600000X1.600000*%
%ADD11C,1.600000*%
%ADD12O,1.700000X1.700000*%
%ADD13C,1.700000*%
%ADD14R,1.500000X1.050000*%
%ADD15O,1.500000X1.050000*%
%ADD16C,5.700000*%
%ADD17C,0.254000*%
G04 APERTURE END LIST*
D10*
X212138000Y-70475000D03*
X212138000Y-85715000D03*
X176578000Y-70475000D03*
X209598000Y-85715000D03*
X179118000Y-70475000D03*
X207058000Y-85715000D03*
X181658000Y-70475000D03*
X204518000Y-85715000D03*
X184198000Y-70475000D03*
X201978000Y-85715000D03*
X186738000Y-70475000D03*
X199438000Y-85715000D03*
X189278000Y-70475000D03*
X196898000Y-85715000D03*
X191818000Y-70475000D03*
X194358000Y-85715000D03*
X194358000Y-70475000D03*
X191818000Y-85715000D03*
X196898000Y-70475000D03*
X189278000Y-85715000D03*
X199438000Y-70475000D03*
X186738000Y-85715000D03*
X201978000Y-70475000D03*
X184198000Y-85715000D03*
X204518000Y-70475000D03*
X181658000Y-85715000D03*
X207058000Y-70475000D03*
X179118000Y-85715000D03*
X209598000Y-70475000D03*
D11*
X176578000Y-85715000D03*
D12*
X143772000Y-69200000D03*
X143772000Y-71740000D03*
X143772000Y-74280000D03*
X143772000Y-76820000D03*
X143772000Y-79360000D03*
X143772000Y-81900000D03*
X143772000Y-84440000D03*
D13*
X143772000Y-86980000D03*
D12*
X212138000Y-88646000D03*
X209598000Y-88646000D03*
X207058000Y-88646000D03*
X204518000Y-88646000D03*
X201978000Y-88646000D03*
X199438000Y-88646000D03*
X196898000Y-88646000D03*
X194358000Y-88646000D03*
X191818000Y-88646000D03*
X189278000Y-88646000D03*
X186738000Y-88646000D03*
X184198000Y-88646000D03*
X181658000Y-88646000D03*
X179118000Y-88646000D03*
D13*
X176578000Y-88646000D03*
X176578000Y-85715000D03*
D12*
X179118000Y-85715000D03*
X181658000Y-85715000D03*
X184198000Y-85715000D03*
X186738000Y-85715000D03*
X189278000Y-85715000D03*
X191818000Y-85715000D03*
X194358000Y-85715000D03*
X196898000Y-85715000D03*
X199438000Y-85715000D03*
X201978000Y-85715000D03*
X204518000Y-85715000D03*
X207058000Y-85715000D03*
X209598000Y-85715000D03*
X212138000Y-85715000D03*
X176578000Y-67564000D03*
X179118000Y-67564000D03*
X181658000Y-67564000D03*
X184198000Y-67564000D03*
X186738000Y-67564000D03*
X189278000Y-67564000D03*
X191818000Y-67564000D03*
X194358000Y-67564000D03*
X196898000Y-67564000D03*
X199438000Y-67564000D03*
X201978000Y-67564000D03*
X204518000Y-67564000D03*
X207058000Y-67564000D03*
X209598000Y-67564000D03*
D13*
X212138000Y-67564000D03*
X212138000Y-70475000D03*
D12*
X209598000Y-70475000D03*
X207058000Y-70475000D03*
X204518000Y-70475000D03*
X201978000Y-70475000D03*
X199438000Y-70475000D03*
X196898000Y-70475000D03*
X194358000Y-70475000D03*
X191818000Y-70475000D03*
X189278000Y-70475000D03*
X186738000Y-70475000D03*
X184198000Y-70475000D03*
X181658000Y-70475000D03*
X179118000Y-70475000D03*
X176578000Y-70475000D03*
D14*
X151130000Y-69850000D03*
D15*
X151130000Y-72390000D03*
X151130000Y-71120000D03*
D14*
X157988000Y-69850000D03*
D15*
X157988000Y-72390000D03*
X157988000Y-71120000D03*
D14*
X151130000Y-76835000D03*
D15*
X151130000Y-79375000D03*
X151130000Y-78105000D03*
D14*
X157988000Y-76835000D03*
D15*
X157988000Y-79375000D03*
X157988000Y-78105000D03*
D14*
X151130000Y-83820000D03*
D15*
X151130000Y-86360000D03*
X151130000Y-85090000D03*
D14*
X157988000Y-83820000D03*
D15*
X157988000Y-86360000D03*
X157988000Y-85090000D03*
D16*
X220476000Y-87742000D03*
X220476000Y-68468000D03*
X135734000Y-87742000D03*
X135734000Y-68468000D03*
D17*
G36*
X221189216Y-65878584D02*
G01*
X221634793Y-66013112D01*
X222045746Y-66231620D01*
X222406434Y-66525788D01*
X222703119Y-66884419D01*
X222924491Y-67293838D01*
X223062126Y-67738465D01*
X223114000Y-68232011D01*
X223114001Y-87959711D01*
X223065416Y-88455216D01*
X222930890Y-88900790D01*
X222712382Y-89311745D01*
X222418209Y-89672436D01*
X222059581Y-89969119D01*
X221650162Y-90190491D01*
X221205535Y-90328126D01*
X220711990Y-90380000D01*
X135516279Y-90380000D01*
X135020784Y-90331416D01*
X134575210Y-90196890D01*
X134164255Y-89978382D01*
X133803564Y-89684209D01*
X133506881Y-89325581D01*
X133285509Y-88916162D01*
X133147874Y-88471535D01*
X133096000Y-87977990D01*
X133096000Y-71593740D01*
X142287000Y-71593740D01*
X142287000Y-71886260D01*
X142344068Y-72173158D01*
X142456010Y-72443411D01*
X142618525Y-72686632D01*
X142825368Y-72893475D01*
X142999760Y-73010000D01*
X142825368Y-73126525D01*
X142618525Y-73333368D01*
X142456010Y-73576589D01*
X142344068Y-73846842D01*
X142287000Y-74133740D01*
X142287000Y-74426260D01*
X142344068Y-74713158D01*
X142456010Y-74983411D01*
X142618525Y-75226632D01*
X142825368Y-75433475D01*
X142999760Y-75550000D01*
X142825368Y-75666525D01*
X142618525Y-75873368D01*
X142456010Y-76116589D01*
X142344068Y-76386842D01*
X142287000Y-76673740D01*
X142287000Y-76966260D01*
X142344068Y-77253158D01*
X142456010Y-77523411D01*
X142618525Y-77766632D01*
X142825368Y-77973475D01*
X142999760Y-78090000D01*
X142825368Y-78206525D01*
X142618525Y-78413368D01*
X142456010Y-78656589D01*
X142344068Y-78926842D01*
X142287000Y-79213740D01*
X142287000Y-79506260D01*
X142344068Y-79793158D01*
X142456010Y-80063411D01*
X142618525Y-80306632D01*
X142825368Y-80513475D01*
X142999760Y-80630000D01*
X142825368Y-80746525D01*
X142618525Y-80953368D01*
X142456010Y-81196589D01*
X142344068Y-81466842D01*
X142287000Y-81753740D01*
X142287000Y-82046260D01*
X142344068Y-82333158D01*
X142456010Y-82603411D01*
X142618525Y-82846632D01*
X142825368Y-83053475D01*
X142999760Y-83170000D01*
X142825368Y-83286525D01*
X142618525Y-83493368D01*
X142456010Y-83736589D01*
X142344068Y-84006842D01*
X142287000Y-84293740D01*
X142287000Y-84586260D01*
X142344068Y-84873158D01*
X142456010Y-85143411D01*
X142618525Y-85386632D01*
X142825368Y-85593475D01*
X142999760Y-85710000D01*
X142825368Y-85826525D01*
X142618525Y-86033368D01*
X142456010Y-86276589D01*
X142344068Y-86546842D01*
X142287000Y-86833740D01*
X142287000Y-87126260D01*
X142344068Y-87413158D01*
X142456010Y-87683411D01*
X142618525Y-87926632D01*
X142825368Y-88133475D01*
X143068589Y-88295990D01*
X143338842Y-88407932D01*
X143625740Y-88465000D01*
X143918260Y-88465000D01*
X144205158Y-88407932D01*
X144475411Y-88295990D01*
X144718632Y-88133475D01*
X144925475Y-87926632D01*
X145087990Y-87683411D01*
X145199932Y-87413158D01*
X145257000Y-87126260D01*
X145257000Y-86833740D01*
X145199932Y-86546842D01*
X145087990Y-86276589D01*
X144925475Y-86033368D01*
X144718632Y-85826525D01*
X144544240Y-85710000D01*
X144718632Y-85593475D01*
X144925475Y-85386632D01*
X145087990Y-85143411D01*
X145110113Y-85090000D01*
X149739388Y-85090000D01*
X149761785Y-85317400D01*
X149828115Y-85536060D01*
X149929105Y-85725000D01*
X149828115Y-85913940D01*
X149761785Y-86132600D01*
X149739388Y-86360000D01*
X149761785Y-86587400D01*
X149828115Y-86806060D01*
X149935829Y-87007579D01*
X150080788Y-87184212D01*
X150257421Y-87329171D01*
X150458940Y-87436885D01*
X150677600Y-87503215D01*
X150848021Y-87520000D01*
X151411979Y-87520000D01*
X151582400Y-87503215D01*
X151801060Y-87436885D01*
X152002579Y-87329171D01*
X152179212Y-87184212D01*
X152324171Y-87007579D01*
X152431885Y-86806060D01*
X152498215Y-86587400D01*
X152520612Y-86360000D01*
X152498215Y-86132600D01*
X152431885Y-85913940D01*
X152330895Y-85725000D01*
X152431885Y-85536060D01*
X152498215Y-85317400D01*
X152520612Y-85090000D01*
X156597388Y-85090000D01*
X156619785Y-85317400D01*
X156686115Y-85536060D01*
X156787105Y-85725000D01*
X156686115Y-85913940D01*
X156619785Y-86132600D01*
X156597388Y-86360000D01*
X156619785Y-86587400D01*
X156686115Y-86806060D01*
X156793829Y-87007579D01*
X156938788Y-87184212D01*
X157115421Y-87329171D01*
X157316940Y-87436885D01*
X157535600Y-87503215D01*
X157706021Y-87520000D01*
X158269979Y-87520000D01*
X158440400Y-87503215D01*
X158659060Y-87436885D01*
X158860579Y-87329171D01*
X159037212Y-87184212D01*
X159182171Y-87007579D01*
X159289885Y-86806060D01*
X159356215Y-86587400D01*
X159378612Y-86360000D01*
X159356215Y-86132600D01*
X159289885Y-85913940D01*
X159188895Y-85725000D01*
X159272417Y-85568740D01*
X175093000Y-85568740D01*
X175093000Y-85861260D01*
X175150068Y-86148158D01*
X175262010Y-86418411D01*
X175424525Y-86661632D01*
X175631368Y-86868475D01*
X175874589Y-87030990D01*
X176144842Y-87142932D01*
X176333708Y-87180500D01*
X176144842Y-87218068D01*
X175874589Y-87330010D01*
X175631368Y-87492525D01*
X175424525Y-87699368D01*
X175262010Y-87942589D01*
X175150068Y-88212842D01*
X175093000Y-88499740D01*
X175093000Y-88792260D01*
X175150068Y-89079158D01*
X175262010Y-89349411D01*
X175424525Y-89592632D01*
X175631368Y-89799475D01*
X175874589Y-89961990D01*
X176144842Y-90073932D01*
X176431740Y-90131000D01*
X176724260Y-90131000D01*
X177011158Y-90073932D01*
X177281411Y-89961990D01*
X177524632Y-89799475D01*
X177731475Y-89592632D01*
X177848000Y-89418240D01*
X177964525Y-89592632D01*
X178171368Y-89799475D01*
X178414589Y-89961990D01*
X178684842Y-90073932D01*
X178971740Y-90131000D01*
X179264260Y-90131000D01*
X179551158Y-90073932D01*
X179821411Y-89961990D01*
X180064632Y-89799475D01*
X180271475Y-89592632D01*
X180388000Y-89418240D01*
X180504525Y-89592632D01*
X180711368Y-89799475D01*
X180954589Y-89961990D01*
X181224842Y-90073932D01*
X181511740Y-90131000D01*
X181804260Y-90131000D01*
X182091158Y-90073932D01*
X182361411Y-89961990D01*
X182604632Y-89799475D01*
X182811475Y-89592632D01*
X182933195Y-89410466D01*
X183002822Y-89527355D01*
X183197731Y-89743588D01*
X183431080Y-89917641D01*
X183693901Y-90042825D01*
X183841110Y-90087476D01*
X184071000Y-89966155D01*
X184071000Y-88773000D01*
X184051000Y-88773000D01*
X184051000Y-88519000D01*
X184071000Y-88519000D01*
X184071000Y-88499000D01*
X184325000Y-88499000D01*
X184325000Y-88519000D01*
X184345000Y-88519000D01*
X184345000Y-88773000D01*
X184325000Y-88773000D01*
X184325000Y-89966155D01*
X184554890Y-90087476D01*
X184702099Y-90042825D01*
X184964920Y-89917641D01*
X185198269Y-89743588D01*
X185393178Y-89527355D01*
X185462805Y-89410466D01*
X185584525Y-89592632D01*
X185791368Y-89799475D01*
X186034589Y-89961990D01*
X186304842Y-90073932D01*
X186591740Y-90131000D01*
X186884260Y-90131000D01*
X187171158Y-90073932D01*
X187441411Y-89961990D01*
X187684632Y-89799475D01*
X187891475Y-89592632D01*
X188008000Y-89418240D01*
X188124525Y-89592632D01*
X188331368Y-89799475D01*
X188574589Y-89961990D01*
X188844842Y-90073932D01*
X189131740Y-90131000D01*
X189424260Y-90131000D01*
X189711158Y-90073932D01*
X189981411Y-89961990D01*
X190224632Y-89799475D01*
X190431475Y-89592632D01*
X190548000Y-89418240D01*
X190664525Y-89592632D01*
X190871368Y-89799475D01*
X191114589Y-89961990D01*
X191384842Y-90073932D01*
X191671740Y-90131000D01*
X191964260Y-90131000D01*
X192251158Y-90073932D01*
X192521411Y-89961990D01*
X192764632Y-89799475D01*
X192971475Y-89592632D01*
X193088000Y-89418240D01*
X193204525Y-89592632D01*
X193411368Y-89799475D01*
X193654589Y-89961990D01*
X193924842Y-90073932D01*
X194211740Y-90131000D01*
X194504260Y-90131000D01*
X194791158Y-90073932D01*
X195061411Y-89961990D01*
X195304632Y-89799475D01*
X195511475Y-89592632D01*
X195628000Y-89418240D01*
X195744525Y-89592632D01*
X195951368Y-89799475D01*
X196194589Y-89961990D01*
X196464842Y-90073932D01*
X196751740Y-90131000D01*
X197044260Y-90131000D01*
X197331158Y-90073932D01*
X197601411Y-89961990D01*
X197844632Y-89799475D01*
X198051475Y-89592632D01*
X198168000Y-89418240D01*
X198284525Y-89592632D01*
X198491368Y-89799475D01*
X198734589Y-89961990D01*
X199004842Y-90073932D01*
X199291740Y-90131000D01*
X199584260Y-90131000D01*
X199871158Y-90073932D01*
X200141411Y-89961990D01*
X200384632Y-89799475D01*
X200591475Y-89592632D01*
X200708000Y-89418240D01*
X200824525Y-89592632D01*
X201031368Y-89799475D01*
X201274589Y-89961990D01*
X201544842Y-90073932D01*
X201831740Y-90131000D01*
X202124260Y-90131000D01*
X202411158Y-90073932D01*
X202681411Y-89961990D01*
X202924632Y-89799475D01*
X203131475Y-89592632D01*
X203248000Y-89418240D01*
X203364525Y-89592632D01*
X203571368Y-89799475D01*
X203814589Y-89961990D01*
X204084842Y-90073932D01*
X204371740Y-90131000D01*
X204664260Y-90131000D01*
X204951158Y-90073932D01*
X205221411Y-89961990D01*
X205464632Y-89799475D01*
X205671475Y-89592632D01*
X205788000Y-89418240D01*
X205904525Y-89592632D01*
X206111368Y-89799475D01*
X206354589Y-89961990D01*
X206624842Y-90073932D01*
X206911740Y-90131000D01*
X207204260Y-90131000D01*
X207491158Y-90073932D01*
X207761411Y-89961990D01*
X208004632Y-89799475D01*
X208211475Y-89592632D01*
X208328000Y-89418240D01*
X208444525Y-89592632D01*
X208651368Y-89799475D01*
X208894589Y-89961990D01*
X209164842Y-90073932D01*
X209451740Y-90131000D01*
X209744260Y-90131000D01*
X210031158Y-90073932D01*
X210301411Y-89961990D01*
X210544632Y-89799475D01*
X210751475Y-89592632D01*
X210868000Y-89418240D01*
X210984525Y-89592632D01*
X211191368Y-89799475D01*
X211434589Y-89961990D01*
X211704842Y-90073932D01*
X211991740Y-90131000D01*
X212284260Y-90131000D01*
X212571158Y-90073932D01*
X212841411Y-89961990D01*
X213084632Y-89799475D01*
X213291475Y-89592632D01*
X213453990Y-89349411D01*
X213565932Y-89079158D01*
X213623000Y-88792260D01*
X213623000Y-88499740D01*
X213565932Y-88212842D01*
X213453990Y-87942589D01*
X213291475Y-87699368D01*
X213084632Y-87492525D01*
X212841411Y-87330010D01*
X212571158Y-87218068D01*
X212382292Y-87180500D01*
X212571158Y-87142932D01*
X212841411Y-87030990D01*
X213084632Y-86868475D01*
X213291475Y-86661632D01*
X213453990Y-86418411D01*
X213565932Y-86148158D01*
X213623000Y-85861260D01*
X213623000Y-85568740D01*
X213565932Y-85281842D01*
X213453990Y-85011589D01*
X213291475Y-84768368D01*
X213084632Y-84561525D01*
X212841411Y-84399010D01*
X212571158Y-84287068D01*
X212284260Y-84230000D01*
X211991740Y-84230000D01*
X211704842Y-84287068D01*
X211434589Y-84399010D01*
X211191368Y-84561525D01*
X210984525Y-84768368D01*
X210868000Y-84942760D01*
X210751475Y-84768368D01*
X210544632Y-84561525D01*
X210301411Y-84399010D01*
X210031158Y-84287068D01*
X209744260Y-84230000D01*
X209451740Y-84230000D01*
X209164842Y-84287068D01*
X208894589Y-84399010D01*
X208651368Y-84561525D01*
X208444525Y-84768368D01*
X208328000Y-84942760D01*
X208211475Y-84768368D01*
X208004632Y-84561525D01*
X207761411Y-84399010D01*
X207491158Y-84287068D01*
X207204260Y-84230000D01*
X206911740Y-84230000D01*
X206624842Y-84287068D01*
X206354589Y-84399010D01*
X206111368Y-84561525D01*
X205904525Y-84768368D01*
X205788000Y-84942760D01*
X205671475Y-84768368D01*
X205464632Y-84561525D01*
X205221411Y-84399010D01*
X204951158Y-84287068D01*
X204664260Y-84230000D01*
X204371740Y-84230000D01*
X204084842Y-84287068D01*
X203814589Y-84399010D01*
X203571368Y-84561525D01*
X203364525Y-84768368D01*
X203248000Y-84942760D01*
X203131475Y-84768368D01*
X202924632Y-84561525D01*
X202681411Y-84399010D01*
X202411158Y-84287068D01*
X202124260Y-84230000D01*
X201831740Y-84230000D01*
X201544842Y-84287068D01*
X201274589Y-84399010D01*
X201031368Y-84561525D01*
X200824525Y-84768368D01*
X200708000Y-84942760D01*
X200591475Y-84768368D01*
X200384632Y-84561525D01*
X200141411Y-84399010D01*
X199871158Y-84287068D01*
X199584260Y-84230000D01*
X199291740Y-84230000D01*
X199004842Y-84287068D01*
X198734589Y-84399010D01*
X198491368Y-84561525D01*
X198284525Y-84768368D01*
X198168000Y-84942760D01*
X198051475Y-84768368D01*
X197844632Y-84561525D01*
X197601411Y-84399010D01*
X197331158Y-84287068D01*
X197044260Y-84230000D01*
X196751740Y-84230000D01*
X196464842Y-84287068D01*
X196194589Y-84399010D01*
X195951368Y-84561525D01*
X195744525Y-84768368D01*
X195628000Y-84942760D01*
X195511475Y-84768368D01*
X195304632Y-84561525D01*
X195061411Y-84399010D01*
X194791158Y-84287068D01*
X194504260Y-84230000D01*
X194211740Y-84230000D01*
X193924842Y-84287068D01*
X193654589Y-84399010D01*
X193411368Y-84561525D01*
X193204525Y-84768368D01*
X193088000Y-84942760D01*
X192971475Y-84768368D01*
X192764632Y-84561525D01*
X192521411Y-84399010D01*
X192251158Y-84287068D01*
X191964260Y-84230000D01*
X191671740Y-84230000D01*
X191384842Y-84287068D01*
X191114589Y-84399010D01*
X190871368Y-84561525D01*
X190664525Y-84768368D01*
X190548000Y-84942760D01*
X190431475Y-84768368D01*
X190224632Y-84561525D01*
X189981411Y-84399010D01*
X189711158Y-84287068D01*
X189424260Y-84230000D01*
X189131740Y-84230000D01*
X188844842Y-84287068D01*
X188574589Y-84399010D01*
X188331368Y-84561525D01*
X188124525Y-84768368D01*
X188008000Y-84942760D01*
X187891475Y-84768368D01*
X187684632Y-84561525D01*
X187441411Y-84399010D01*
X187171158Y-84287068D01*
X186884260Y-84230000D01*
X186591740Y-84230000D01*
X186304842Y-84287068D01*
X186034589Y-84399010D01*
X185791368Y-84561525D01*
X185584525Y-84768368D01*
X185462805Y-84950534D01*
X185393178Y-84833645D01*
X185198269Y-84617412D01*
X184964920Y-84443359D01*
X184702099Y-84318175D01*
X184554890Y-84273524D01*
X184325000Y-84394845D01*
X184325000Y-85588000D01*
X184345000Y-85588000D01*
X184345000Y-85842000D01*
X184325000Y-85842000D01*
X184325000Y-85862000D01*
X184071000Y-85862000D01*
X184071000Y-85842000D01*
X184051000Y-85842000D01*
X184051000Y-85588000D01*
X184071000Y-85588000D01*
X184071000Y-84394845D01*
X183841110Y-84273524D01*
X183693901Y-84318175D01*
X183431080Y-84443359D01*
X183197731Y-84617412D01*
X183002822Y-84833645D01*
X182933195Y-84950534D01*
X182811475Y-84768368D01*
X182604632Y-84561525D01*
X182361411Y-84399010D01*
X182091158Y-84287068D01*
X181804260Y-84230000D01*
X181511740Y-84230000D01*
X181224842Y-84287068D01*
X180954589Y-84399010D01*
X180711368Y-84561525D01*
X180504525Y-84768368D01*
X180388000Y-84942760D01*
X180271475Y-84768368D01*
X180064632Y-84561525D01*
X179821411Y-84399010D01*
X179551158Y-84287068D01*
X179264260Y-84230000D01*
X178971740Y-84230000D01*
X178684842Y-84287068D01*
X178414589Y-84399010D01*
X178171368Y-84561525D01*
X177964525Y-84768368D01*
X177848000Y-84942760D01*
X177731475Y-84768368D01*
X177524632Y-84561525D01*
X177281411Y-84399010D01*
X177011158Y-84287068D01*
X176724260Y-84230000D01*
X176431740Y-84230000D01*
X176144842Y-84287068D01*
X175874589Y-84399010D01*
X175631368Y-84561525D01*
X175424525Y-84768368D01*
X175262010Y-85011589D01*
X175150068Y-85281842D01*
X175093000Y-85568740D01*
X159272417Y-85568740D01*
X159289885Y-85536060D01*
X159356215Y-85317400D01*
X159378612Y-85090000D01*
X159356215Y-84862600D01*
X159292907Y-84653902D01*
X159327502Y-84589180D01*
X159363812Y-84469482D01*
X159376072Y-84345000D01*
X159373000Y-84105750D01*
X159214250Y-83947000D01*
X158441109Y-83947000D01*
X158440400Y-83946785D01*
X158269979Y-83930000D01*
X157706021Y-83930000D01*
X157535600Y-83946785D01*
X157534891Y-83947000D01*
X156761750Y-83947000D01*
X156603000Y-84105750D01*
X156599928Y-84345000D01*
X156612188Y-84469482D01*
X156648498Y-84589180D01*
X156683093Y-84653902D01*
X156619785Y-84862600D01*
X156597388Y-85090000D01*
X152520612Y-85090000D01*
X152498215Y-84862600D01*
X152434907Y-84653902D01*
X152469502Y-84589180D01*
X152505812Y-84469482D01*
X152518072Y-84345000D01*
X152515000Y-84105750D01*
X152356250Y-83947000D01*
X151583109Y-83947000D01*
X151582400Y-83946785D01*
X151411979Y-83930000D01*
X150848021Y-83930000D01*
X150677600Y-83946785D01*
X150676891Y-83947000D01*
X149903750Y-83947000D01*
X149745000Y-84105750D01*
X149741928Y-84345000D01*
X149754188Y-84469482D01*
X149790498Y-84589180D01*
X149825093Y-84653902D01*
X149761785Y-84862600D01*
X149739388Y-85090000D01*
X145110113Y-85090000D01*
X145199932Y-84873158D01*
X145257000Y-84586260D01*
X145257000Y-84293740D01*
X145199932Y-84006842D01*
X145087990Y-83736589D01*
X144925475Y-83493368D01*
X144727107Y-83295000D01*
X149741928Y-83295000D01*
X149745000Y-83534250D01*
X149903750Y-83693000D01*
X151003000Y-83693000D01*
X151003000Y-82818750D01*
X151257000Y-82818750D01*
X151257000Y-83693000D01*
X152356250Y-83693000D01*
X152515000Y-83534250D01*
X152518072Y-83295000D01*
X156599928Y-83295000D01*
X156603000Y-83534250D01*
X156761750Y-83693000D01*
X157861000Y-83693000D01*
X157861000Y-82818750D01*
X158115000Y-82818750D01*
X158115000Y-83693000D01*
X159214250Y-83693000D01*
X159373000Y-83534250D01*
X159376072Y-83295000D01*
X159363812Y-83170518D01*
X159327502Y-83050820D01*
X159268537Y-82940506D01*
X159189185Y-82843815D01*
X159092494Y-82764463D01*
X158982180Y-82705498D01*
X158862482Y-82669188D01*
X158738000Y-82656928D01*
X158273750Y-82660000D01*
X158115000Y-82818750D01*
X157861000Y-82818750D01*
X157702250Y-82660000D01*
X157238000Y-82656928D01*
X157113518Y-82669188D01*
X156993820Y-82705498D01*
X156883506Y-82764463D01*
X156786815Y-82843815D01*
X156707463Y-82940506D01*
X156648498Y-83050820D01*
X156612188Y-83170518D01*
X156599928Y-83295000D01*
X152518072Y-83295000D01*
X152505812Y-83170518D01*
X152469502Y-83050820D01*
X152410537Y-82940506D01*
X152331185Y-82843815D01*
X152234494Y-82764463D01*
X152124180Y-82705498D01*
X152004482Y-82669188D01*
X151880000Y-82656928D01*
X151415750Y-82660000D01*
X151257000Y-82818750D01*
X151003000Y-82818750D01*
X150844250Y-82660000D01*
X150380000Y-82656928D01*
X150255518Y-82669188D01*
X150135820Y-82705498D01*
X150025506Y-82764463D01*
X149928815Y-82843815D01*
X149849463Y-82940506D01*
X149790498Y-83050820D01*
X149754188Y-83170518D01*
X149741928Y-83295000D01*
X144727107Y-83295000D01*
X144718632Y-83286525D01*
X144544240Y-83170000D01*
X144718632Y-83053475D01*
X144925475Y-82846632D01*
X145087990Y-82603411D01*
X145199932Y-82333158D01*
X145257000Y-82046260D01*
X145257000Y-81753740D01*
X145199932Y-81466842D01*
X145087990Y-81196589D01*
X144925475Y-80953368D01*
X144718632Y-80746525D01*
X144544240Y-80630000D01*
X144718632Y-80513475D01*
X144925475Y-80306632D01*
X145087990Y-80063411D01*
X145199932Y-79793158D01*
X145257000Y-79506260D01*
X145257000Y-79213740D01*
X145199932Y-78926842D01*
X145087990Y-78656589D01*
X144925475Y-78413368D01*
X144718632Y-78206525D01*
X144566690Y-78105000D01*
X149739388Y-78105000D01*
X149761785Y-78332400D01*
X149828115Y-78551060D01*
X149929105Y-78740000D01*
X149828115Y-78928940D01*
X149761785Y-79147600D01*
X149739388Y-79375000D01*
X149761785Y-79602400D01*
X149828115Y-79821060D01*
X149935829Y-80022579D01*
X150080788Y-80199212D01*
X150257421Y-80344171D01*
X150458940Y-80451885D01*
X150677600Y-80518215D01*
X150848021Y-80535000D01*
X151411979Y-80535000D01*
X151582400Y-80518215D01*
X151801060Y-80451885D01*
X152002579Y-80344171D01*
X152179212Y-80199212D01*
X152324171Y-80022579D01*
X152431885Y-79821060D01*
X152498215Y-79602400D01*
X152520612Y-79375000D01*
X152498215Y-79147600D01*
X152431885Y-78928940D01*
X152330895Y-78740000D01*
X152431885Y-78551060D01*
X152498215Y-78332400D01*
X152520612Y-78105000D01*
X156597388Y-78105000D01*
X156619785Y-78332400D01*
X156686115Y-78551060D01*
X156787105Y-78740000D01*
X156686115Y-78928940D01*
X156619785Y-79147600D01*
X156597388Y-79375000D01*
X156619785Y-79602400D01*
X156686115Y-79821060D01*
X156793829Y-80022579D01*
X156938788Y-80199212D01*
X157115421Y-80344171D01*
X157316940Y-80451885D01*
X157535600Y-80518215D01*
X157706021Y-80535000D01*
X158269979Y-80535000D01*
X158440400Y-80518215D01*
X158659060Y-80451885D01*
X158860579Y-80344171D01*
X159037212Y-80199212D01*
X159182171Y-80022579D01*
X159289885Y-79821060D01*
X159356215Y-79602400D01*
X159378612Y-79375000D01*
X159356215Y-79147600D01*
X159289885Y-78928940D01*
X159188895Y-78740000D01*
X159289885Y-78551060D01*
X159356215Y-78332400D01*
X159378612Y-78105000D01*
X159356215Y-77877600D01*
X159292907Y-77668902D01*
X159327502Y-77604180D01*
X159363812Y-77484482D01*
X159376072Y-77360000D01*
X159373000Y-77120750D01*
X159214250Y-76962000D01*
X158441109Y-76962000D01*
X158440400Y-76961785D01*
X158269979Y-76945000D01*
X157706021Y-76945000D01*
X157535600Y-76961785D01*
X157534891Y-76962000D01*
X156761750Y-76962000D01*
X156603000Y-77120750D01*
X156599928Y-77360000D01*
X156612188Y-77484482D01*
X156648498Y-77604180D01*
X156683093Y-77668902D01*
X156619785Y-77877600D01*
X156597388Y-78105000D01*
X152520612Y-78105000D01*
X152498215Y-77877600D01*
X152434907Y-77668902D01*
X152469502Y-77604180D01*
X152505812Y-77484482D01*
X152518072Y-77360000D01*
X152515000Y-77120750D01*
X152356250Y-76962000D01*
X151583109Y-76962000D01*
X151582400Y-76961785D01*
X151411979Y-76945000D01*
X150848021Y-76945000D01*
X150677600Y-76961785D01*
X150676891Y-76962000D01*
X149903750Y-76962000D01*
X149745000Y-77120750D01*
X149741928Y-77360000D01*
X149754188Y-77484482D01*
X149790498Y-77604180D01*
X149825093Y-77668902D01*
X149761785Y-77877600D01*
X149739388Y-78105000D01*
X144566690Y-78105000D01*
X144544240Y-78090000D01*
X144718632Y-77973475D01*
X144925475Y-77766632D01*
X145087990Y-77523411D01*
X145199932Y-77253158D01*
X145257000Y-76966260D01*
X145257000Y-76673740D01*
X145199932Y-76386842D01*
X145168104Y-76310000D01*
X149741928Y-76310000D01*
X149745000Y-76549250D01*
X149903750Y-76708000D01*
X151003000Y-76708000D01*
X151003000Y-75833750D01*
X151257000Y-75833750D01*
X151257000Y-76708000D01*
X152356250Y-76708000D01*
X152515000Y-76549250D01*
X152518072Y-76310000D01*
X156599928Y-76310000D01*
X156603000Y-76549250D01*
X156761750Y-76708000D01*
X157861000Y-76708000D01*
X157861000Y-75833750D01*
X158115000Y-75833750D01*
X158115000Y-76708000D01*
X159214250Y-76708000D01*
X159373000Y-76549250D01*
X159376072Y-76310000D01*
X159363812Y-76185518D01*
X159327502Y-76065820D01*
X159268537Y-75955506D01*
X159189185Y-75858815D01*
X159092494Y-75779463D01*
X158982180Y-75720498D01*
X158862482Y-75684188D01*
X158738000Y-75671928D01*
X158273750Y-75675000D01*
X158115000Y-75833750D01*
X157861000Y-75833750D01*
X157702250Y-75675000D01*
X157238000Y-75671928D01*
X157113518Y-75684188D01*
X156993820Y-75720498D01*
X156883506Y-75779463D01*
X156786815Y-75858815D01*
X156707463Y-75955506D01*
X156648498Y-76065820D01*
X156612188Y-76185518D01*
X156599928Y-76310000D01*
X152518072Y-76310000D01*
X152505812Y-76185518D01*
X152469502Y-76065820D01*
X152410537Y-75955506D01*
X152331185Y-75858815D01*
X152234494Y-75779463D01*
X152124180Y-75720498D01*
X152004482Y-75684188D01*
X151880000Y-75671928D01*
X151415750Y-75675000D01*
X151257000Y-75833750D01*
X151003000Y-75833750D01*
X150844250Y-75675000D01*
X150380000Y-75671928D01*
X150255518Y-75684188D01*
X150135820Y-75720498D01*
X150025506Y-75779463D01*
X149928815Y-75858815D01*
X149849463Y-75955506D01*
X149790498Y-76065820D01*
X149754188Y-76185518D01*
X149741928Y-76310000D01*
X145168104Y-76310000D01*
X145087990Y-76116589D01*
X144925475Y-75873368D01*
X144718632Y-75666525D01*
X144544240Y-75550000D01*
X144718632Y-75433475D01*
X144925475Y-75226632D01*
X145087990Y-74983411D01*
X145199932Y-74713158D01*
X145257000Y-74426260D01*
X145257000Y-74133740D01*
X145199932Y-73846842D01*
X145087990Y-73576589D01*
X144925475Y-73333368D01*
X144718632Y-73126525D01*
X144544240Y-73010000D01*
X144718632Y-72893475D01*
X144925475Y-72686632D01*
X145087990Y-72443411D01*
X145199932Y-72173158D01*
X145257000Y-71886260D01*
X145257000Y-71593740D01*
X145199932Y-71306842D01*
X145122540Y-71120000D01*
X149739388Y-71120000D01*
X149761785Y-71347400D01*
X149828115Y-71566060D01*
X149929105Y-71755000D01*
X149828115Y-71943940D01*
X149761785Y-72162600D01*
X149739388Y-72390000D01*
X149761785Y-72617400D01*
X149828115Y-72836060D01*
X149935829Y-73037579D01*
X150080788Y-73214212D01*
X150257421Y-73359171D01*
X150458940Y-73466885D01*
X150677600Y-73533215D01*
X150848021Y-73550000D01*
X151411979Y-73550000D01*
X151582400Y-73533215D01*
X151801060Y-73466885D01*
X152002579Y-73359171D01*
X152179212Y-73214212D01*
X152324171Y-73037579D01*
X152431885Y-72836060D01*
X152498215Y-72617400D01*
X152520612Y-72390000D01*
X152498215Y-72162600D01*
X152431885Y-71943940D01*
X152330895Y-71755000D01*
X152431885Y-71566060D01*
X152498215Y-71347400D01*
X152520612Y-71120000D01*
X156597388Y-71120000D01*
X156619785Y-71347400D01*
X156686115Y-71566060D01*
X156787105Y-71755000D01*
X156686115Y-71943940D01*
X156619785Y-72162600D01*
X156597388Y-72390000D01*
X156619785Y-72617400D01*
X156686115Y-72836060D01*
X156793829Y-73037579D01*
X156938788Y-73214212D01*
X157115421Y-73359171D01*
X157316940Y-73466885D01*
X157535600Y-73533215D01*
X157706021Y-73550000D01*
X158269979Y-73550000D01*
X158440400Y-73533215D01*
X158659060Y-73466885D01*
X158860579Y-73359171D01*
X159037212Y-73214212D01*
X159182171Y-73037579D01*
X159289885Y-72836060D01*
X159356215Y-72617400D01*
X159378612Y-72390000D01*
X159356215Y-72162600D01*
X159289885Y-71943940D01*
X159188895Y-71755000D01*
X159289885Y-71566060D01*
X159356215Y-71347400D01*
X159378612Y-71120000D01*
X159356215Y-70892600D01*
X159292907Y-70683902D01*
X159327502Y-70619180D01*
X159363812Y-70499482D01*
X159376072Y-70375000D01*
X159373000Y-70135750D01*
X159214250Y-69977000D01*
X158441109Y-69977000D01*
X158440400Y-69976785D01*
X158269979Y-69960000D01*
X157706021Y-69960000D01*
X157535600Y-69976785D01*
X157534891Y-69977000D01*
X156761750Y-69977000D01*
X156603000Y-70135750D01*
X156599928Y-70375000D01*
X156612188Y-70499482D01*
X156648498Y-70619180D01*
X156683093Y-70683902D01*
X156619785Y-70892600D01*
X156597388Y-71120000D01*
X152520612Y-71120000D01*
X152498215Y-70892600D01*
X152434907Y-70683902D01*
X152469502Y-70619180D01*
X152505812Y-70499482D01*
X152518072Y-70375000D01*
X152515000Y-70135750D01*
X152356250Y-69977000D01*
X151583109Y-69977000D01*
X151582400Y-69976785D01*
X151411979Y-69960000D01*
X150848021Y-69960000D01*
X150677600Y-69976785D01*
X150676891Y-69977000D01*
X149903750Y-69977000D01*
X149745000Y-70135750D01*
X149741928Y-70375000D01*
X149754188Y-70499482D01*
X149790498Y-70619180D01*
X149825093Y-70683902D01*
X149761785Y-70892600D01*
X149739388Y-71120000D01*
X145122540Y-71120000D01*
X145087990Y-71036589D01*
X144925475Y-70793368D01*
X144718632Y-70586525D01*
X144536466Y-70464805D01*
X144653355Y-70395178D01*
X144869588Y-70200269D01*
X145043641Y-69966920D01*
X145168825Y-69704099D01*
X145213476Y-69556890D01*
X145092155Y-69327000D01*
X143899000Y-69327000D01*
X143899000Y-69347000D01*
X143645000Y-69347000D01*
X143645000Y-69327000D01*
X142451845Y-69327000D01*
X142330524Y-69556890D01*
X142375175Y-69704099D01*
X142500359Y-69966920D01*
X142674412Y-70200269D01*
X142890645Y-70395178D01*
X143007534Y-70464805D01*
X142825368Y-70586525D01*
X142618525Y-70793368D01*
X142456010Y-71036589D01*
X142344068Y-71306842D01*
X142287000Y-71593740D01*
X133096000Y-71593740D01*
X133096000Y-69325000D01*
X149741928Y-69325000D01*
X149745000Y-69564250D01*
X149903750Y-69723000D01*
X151003000Y-69723000D01*
X151003000Y-68848750D01*
X151257000Y-68848750D01*
X151257000Y-69723000D01*
X152356250Y-69723000D01*
X152515000Y-69564250D01*
X152518072Y-69325000D01*
X156599928Y-69325000D01*
X156603000Y-69564250D01*
X156761750Y-69723000D01*
X157861000Y-69723000D01*
X157861000Y-68848750D01*
X158115000Y-68848750D01*
X158115000Y-69723000D01*
X159214250Y-69723000D01*
X159373000Y-69564250D01*
X159376072Y-69325000D01*
X159363812Y-69200518D01*
X159327502Y-69080820D01*
X159268537Y-68970506D01*
X159189185Y-68873815D01*
X159092494Y-68794463D01*
X158982180Y-68735498D01*
X158862482Y-68699188D01*
X158738000Y-68686928D01*
X158273750Y-68690000D01*
X158115000Y-68848750D01*
X157861000Y-68848750D01*
X157702250Y-68690000D01*
X157238000Y-68686928D01*
X157113518Y-68699188D01*
X156993820Y-68735498D01*
X156883506Y-68794463D01*
X156786815Y-68873815D01*
X156707463Y-68970506D01*
X156648498Y-69080820D01*
X156612188Y-69200518D01*
X156599928Y-69325000D01*
X152518072Y-69325000D01*
X152505812Y-69200518D01*
X152469502Y-69080820D01*
X152410537Y-68970506D01*
X152331185Y-68873815D01*
X152234494Y-68794463D01*
X152124180Y-68735498D01*
X152004482Y-68699188D01*
X151880000Y-68686928D01*
X151415750Y-68690000D01*
X151257000Y-68848750D01*
X151003000Y-68848750D01*
X150844250Y-68690000D01*
X150380000Y-68686928D01*
X150255518Y-68699188D01*
X150135820Y-68735498D01*
X150025506Y-68794463D01*
X149928815Y-68873815D01*
X149849463Y-68970506D01*
X149790498Y-69080820D01*
X149754188Y-69200518D01*
X149741928Y-69325000D01*
X133096000Y-69325000D01*
X133096000Y-68843110D01*
X142330524Y-68843110D01*
X142451845Y-69073000D01*
X143645000Y-69073000D01*
X143645000Y-67879186D01*
X143899000Y-67879186D01*
X143899000Y-69073000D01*
X145092155Y-69073000D01*
X145213476Y-68843110D01*
X145168825Y-68695901D01*
X145043641Y-68433080D01*
X144869588Y-68199731D01*
X144653355Y-68004822D01*
X144403252Y-67855843D01*
X144128891Y-67758519D01*
X143899000Y-67879186D01*
X143645000Y-67879186D01*
X143415109Y-67758519D01*
X143140748Y-67855843D01*
X142890645Y-68004822D01*
X142674412Y-68199731D01*
X142500359Y-68433080D01*
X142375175Y-68695901D01*
X142330524Y-68843110D01*
X133096000Y-68843110D01*
X133096000Y-68250279D01*
X133144584Y-67754784D01*
X133246343Y-67417740D01*
X175093000Y-67417740D01*
X175093000Y-67710260D01*
X175150068Y-67997158D01*
X175262010Y-68267411D01*
X175424525Y-68510632D01*
X175631368Y-68717475D01*
X175874589Y-68879990D01*
X176144842Y-68991932D01*
X176283435Y-69019500D01*
X176144842Y-69047068D01*
X175874589Y-69159010D01*
X175631368Y-69321525D01*
X175424525Y-69528368D01*
X175262010Y-69771589D01*
X175150068Y-70041842D01*
X175093000Y-70328740D01*
X175093000Y-70621260D01*
X175150068Y-70908158D01*
X175262010Y-71178411D01*
X175424525Y-71421632D01*
X175631368Y-71628475D01*
X175874589Y-71790990D01*
X176144842Y-71902932D01*
X176431740Y-71960000D01*
X176724260Y-71960000D01*
X177011158Y-71902932D01*
X177281411Y-71790990D01*
X177524632Y-71628475D01*
X177731475Y-71421632D01*
X177853195Y-71239466D01*
X177922822Y-71356355D01*
X178117731Y-71572588D01*
X178351080Y-71746641D01*
X178613901Y-71871825D01*
X178761110Y-71916476D01*
X178991000Y-71795155D01*
X178991000Y-70602000D01*
X178971000Y-70602000D01*
X178971000Y-70348000D01*
X178991000Y-70348000D01*
X178991000Y-70328000D01*
X179245000Y-70328000D01*
X179245000Y-70348000D01*
X179265000Y-70348000D01*
X179265000Y-70602000D01*
X179245000Y-70602000D01*
X179245000Y-71795155D01*
X179474890Y-71916476D01*
X179622099Y-71871825D01*
X179884920Y-71746641D01*
X180118269Y-71572588D01*
X180313178Y-71356355D01*
X180382805Y-71239466D01*
X180504525Y-71421632D01*
X180711368Y-71628475D01*
X180954589Y-71790990D01*
X181224842Y-71902932D01*
X181511740Y-71960000D01*
X181804260Y-71960000D01*
X182091158Y-71902932D01*
X182361411Y-71790990D01*
X182604632Y-71628475D01*
X182811475Y-71421632D01*
X182928000Y-71247240D01*
X183044525Y-71421632D01*
X183251368Y-71628475D01*
X183494589Y-71790990D01*
X183764842Y-71902932D01*
X184051740Y-71960000D01*
X184344260Y-71960000D01*
X184631158Y-71902932D01*
X184901411Y-71790990D01*
X185144632Y-71628475D01*
X185351475Y-71421632D01*
X185468000Y-71247240D01*
X185584525Y-71421632D01*
X185791368Y-71628475D01*
X186034589Y-71790990D01*
X186304842Y-71902932D01*
X186591740Y-71960000D01*
X186884260Y-71960000D01*
X187171158Y-71902932D01*
X187441411Y-71790990D01*
X187684632Y-71628475D01*
X187891475Y-71421632D01*
X188008000Y-71247240D01*
X188124525Y-71421632D01*
X188331368Y-71628475D01*
X188574589Y-71790990D01*
X188844842Y-71902932D01*
X189131740Y-71960000D01*
X189424260Y-71960000D01*
X189711158Y-71902932D01*
X189981411Y-71790990D01*
X190224632Y-71628475D01*
X190431475Y-71421632D01*
X190548000Y-71247240D01*
X190664525Y-71421632D01*
X190871368Y-71628475D01*
X191114589Y-71790990D01*
X191384842Y-71902932D01*
X191671740Y-71960000D01*
X191964260Y-71960000D01*
X192251158Y-71902932D01*
X192521411Y-71790990D01*
X192764632Y-71628475D01*
X192971475Y-71421632D01*
X193088000Y-71247240D01*
X193204525Y-71421632D01*
X193411368Y-71628475D01*
X193654589Y-71790990D01*
X193924842Y-71902932D01*
X194211740Y-71960000D01*
X194504260Y-71960000D01*
X194791158Y-71902932D01*
X195061411Y-71790990D01*
X195304632Y-71628475D01*
X195511475Y-71421632D01*
X195628000Y-71247240D01*
X195744525Y-71421632D01*
X195951368Y-71628475D01*
X196194589Y-71790990D01*
X196464842Y-71902932D01*
X196751740Y-71960000D01*
X197044260Y-71960000D01*
X197331158Y-71902932D01*
X197601411Y-71790990D01*
X197844632Y-71628475D01*
X198051475Y-71421632D01*
X198168000Y-71247240D01*
X198284525Y-71421632D01*
X198491368Y-71628475D01*
X198734589Y-71790990D01*
X199004842Y-71902932D01*
X199291740Y-71960000D01*
X199584260Y-71960000D01*
X199871158Y-71902932D01*
X200141411Y-71790990D01*
X200384632Y-71628475D01*
X200591475Y-71421632D01*
X200708000Y-71247240D01*
X200824525Y-71421632D01*
X201031368Y-71628475D01*
X201274589Y-71790990D01*
X201544842Y-71902932D01*
X201831740Y-71960000D01*
X202124260Y-71960000D01*
X202411158Y-71902932D01*
X202681411Y-71790990D01*
X202924632Y-71628475D01*
X203131475Y-71421632D01*
X203248000Y-71247240D01*
X203364525Y-71421632D01*
X203571368Y-71628475D01*
X203814589Y-71790990D01*
X204084842Y-71902932D01*
X204371740Y-71960000D01*
X204664260Y-71960000D01*
X204951158Y-71902932D01*
X205221411Y-71790990D01*
X205464632Y-71628475D01*
X205671475Y-71421632D01*
X205788000Y-71247240D01*
X205904525Y-71421632D01*
X206111368Y-71628475D01*
X206354589Y-71790990D01*
X206624842Y-71902932D01*
X206911740Y-71960000D01*
X207204260Y-71960000D01*
X207491158Y-71902932D01*
X207761411Y-71790990D01*
X208004632Y-71628475D01*
X208211475Y-71421632D01*
X208328000Y-71247240D01*
X208444525Y-71421632D01*
X208651368Y-71628475D01*
X208894589Y-71790990D01*
X209164842Y-71902932D01*
X209451740Y-71960000D01*
X209744260Y-71960000D01*
X210031158Y-71902932D01*
X210301411Y-71790990D01*
X210544632Y-71628475D01*
X210751475Y-71421632D01*
X210868000Y-71247240D01*
X210984525Y-71421632D01*
X211191368Y-71628475D01*
X211434589Y-71790990D01*
X211704842Y-71902932D01*
X211991740Y-71960000D01*
X212284260Y-71960000D01*
X212571158Y-71902932D01*
X212841411Y-71790990D01*
X213084632Y-71628475D01*
X213291475Y-71421632D01*
X213453990Y-71178411D01*
X213565932Y-70908158D01*
X213623000Y-70621260D01*
X213623000Y-70328740D01*
X213565932Y-70041842D01*
X213453990Y-69771589D01*
X213291475Y-69528368D01*
X213084632Y-69321525D01*
X212841411Y-69159010D01*
X212571158Y-69047068D01*
X212432565Y-69019500D01*
X212571158Y-68991932D01*
X212841411Y-68879990D01*
X213084632Y-68717475D01*
X213291475Y-68510632D01*
X213453990Y-68267411D01*
X213565932Y-67997158D01*
X213623000Y-67710260D01*
X213623000Y-67417740D01*
X213565932Y-67130842D01*
X213453990Y-66860589D01*
X213291475Y-66617368D01*
X213084632Y-66410525D01*
X212841411Y-66248010D01*
X212571158Y-66136068D01*
X212284260Y-66079000D01*
X211991740Y-66079000D01*
X211704842Y-66136068D01*
X211434589Y-66248010D01*
X211191368Y-66410525D01*
X210984525Y-66617368D01*
X210868000Y-66791760D01*
X210751475Y-66617368D01*
X210544632Y-66410525D01*
X210301411Y-66248010D01*
X210031158Y-66136068D01*
X209744260Y-66079000D01*
X209451740Y-66079000D01*
X209164842Y-66136068D01*
X208894589Y-66248010D01*
X208651368Y-66410525D01*
X208444525Y-66617368D01*
X208328000Y-66791760D01*
X208211475Y-66617368D01*
X208004632Y-66410525D01*
X207761411Y-66248010D01*
X207491158Y-66136068D01*
X207204260Y-66079000D01*
X206911740Y-66079000D01*
X206624842Y-66136068D01*
X206354589Y-66248010D01*
X206111368Y-66410525D01*
X205904525Y-66617368D01*
X205788000Y-66791760D01*
X205671475Y-66617368D01*
X205464632Y-66410525D01*
X205221411Y-66248010D01*
X204951158Y-66136068D01*
X204664260Y-66079000D01*
X204371740Y-66079000D01*
X204084842Y-66136068D01*
X203814589Y-66248010D01*
X203571368Y-66410525D01*
X203364525Y-66617368D01*
X203248000Y-66791760D01*
X203131475Y-66617368D01*
X202924632Y-66410525D01*
X202681411Y-66248010D01*
X202411158Y-66136068D01*
X202124260Y-66079000D01*
X201831740Y-66079000D01*
X201544842Y-66136068D01*
X201274589Y-66248010D01*
X201031368Y-66410525D01*
X200824525Y-66617368D01*
X200708000Y-66791760D01*
X200591475Y-66617368D01*
X200384632Y-66410525D01*
X200141411Y-66248010D01*
X199871158Y-66136068D01*
X199584260Y-66079000D01*
X199291740Y-66079000D01*
X199004842Y-66136068D01*
X198734589Y-66248010D01*
X198491368Y-66410525D01*
X198284525Y-66617368D01*
X198168000Y-66791760D01*
X198051475Y-66617368D01*
X197844632Y-66410525D01*
X197601411Y-66248010D01*
X197331158Y-66136068D01*
X197044260Y-66079000D01*
X196751740Y-66079000D01*
X196464842Y-66136068D01*
X196194589Y-66248010D01*
X195951368Y-66410525D01*
X195744525Y-66617368D01*
X195628000Y-66791760D01*
X195511475Y-66617368D01*
X195304632Y-66410525D01*
X195061411Y-66248010D01*
X194791158Y-66136068D01*
X194504260Y-66079000D01*
X194211740Y-66079000D01*
X193924842Y-66136068D01*
X193654589Y-66248010D01*
X193411368Y-66410525D01*
X193204525Y-66617368D01*
X193088000Y-66791760D01*
X192971475Y-66617368D01*
X192764632Y-66410525D01*
X192521411Y-66248010D01*
X192251158Y-66136068D01*
X191964260Y-66079000D01*
X191671740Y-66079000D01*
X191384842Y-66136068D01*
X191114589Y-66248010D01*
X190871368Y-66410525D01*
X190664525Y-66617368D01*
X190548000Y-66791760D01*
X190431475Y-66617368D01*
X190224632Y-66410525D01*
X189981411Y-66248010D01*
X189711158Y-66136068D01*
X189424260Y-66079000D01*
X189131740Y-66079000D01*
X188844842Y-66136068D01*
X188574589Y-66248010D01*
X188331368Y-66410525D01*
X188124525Y-66617368D01*
X188008000Y-66791760D01*
X187891475Y-66617368D01*
X187684632Y-66410525D01*
X187441411Y-66248010D01*
X187171158Y-66136068D01*
X186884260Y-66079000D01*
X186591740Y-66079000D01*
X186304842Y-66136068D01*
X186034589Y-66248010D01*
X185791368Y-66410525D01*
X185584525Y-66617368D01*
X185468000Y-66791760D01*
X185351475Y-66617368D01*
X185144632Y-66410525D01*
X184901411Y-66248010D01*
X184631158Y-66136068D01*
X184344260Y-66079000D01*
X184051740Y-66079000D01*
X183764842Y-66136068D01*
X183494589Y-66248010D01*
X183251368Y-66410525D01*
X183044525Y-66617368D01*
X182928000Y-66791760D01*
X182811475Y-66617368D01*
X182604632Y-66410525D01*
X182361411Y-66248010D01*
X182091158Y-66136068D01*
X181804260Y-66079000D01*
X181511740Y-66079000D01*
X181224842Y-66136068D01*
X180954589Y-66248010D01*
X180711368Y-66410525D01*
X180504525Y-66617368D01*
X180382805Y-66799534D01*
X180313178Y-66682645D01*
X180118269Y-66466412D01*
X179884920Y-66292359D01*
X179622099Y-66167175D01*
X179474890Y-66122524D01*
X179245000Y-66243845D01*
X179245000Y-67437000D01*
X179265000Y-67437000D01*
X179265000Y-67691000D01*
X179245000Y-67691000D01*
X179245000Y-67711000D01*
X178991000Y-67711000D01*
X178991000Y-67691000D01*
X178971000Y-67691000D01*
X178971000Y-67437000D01*
X178991000Y-67437000D01*
X178991000Y-66243845D01*
X178761110Y-66122524D01*
X178613901Y-66167175D01*
X178351080Y-66292359D01*
X178117731Y-66466412D01*
X177922822Y-66682645D01*
X177853195Y-66799534D01*
X177731475Y-66617368D01*
X177524632Y-66410525D01*
X177281411Y-66248010D01*
X177011158Y-66136068D01*
X176724260Y-66079000D01*
X176431740Y-66079000D01*
X176144842Y-66136068D01*
X175874589Y-66248010D01*
X175631368Y-66410525D01*
X175424525Y-66617368D01*
X175262010Y-66860589D01*
X175150068Y-67130842D01*
X175093000Y-67417740D01*
X133246343Y-67417740D01*
X133279112Y-67309207D01*
X133497620Y-66898254D01*
X133791788Y-66537566D01*
X134150419Y-66240881D01*
X134559838Y-66019509D01*
X135004465Y-65881874D01*
X135498011Y-65830000D01*
X220693721Y-65830000D01*
X221189216Y-65878584D01*
G37*
X221189216Y-65878584D02*
X221634793Y-66013112D01*
X222045746Y-66231620D01*
X222406434Y-66525788D01*
X222703119Y-66884419D01*
X222924491Y-67293838D01*
X223062126Y-67738465D01*
X223114000Y-68232011D01*
X223114001Y-87959711D01*
X223065416Y-88455216D01*
X222930890Y-88900790D01*
X222712382Y-89311745D01*
X222418209Y-89672436D01*
X222059581Y-89969119D01*
X221650162Y-90190491D01*
X221205535Y-90328126D01*
X220711990Y-90380000D01*
X135516279Y-90380000D01*
X135020784Y-90331416D01*
X134575210Y-90196890D01*
X134164255Y-89978382D01*
X133803564Y-89684209D01*
X133506881Y-89325581D01*
X133285509Y-88916162D01*
X133147874Y-88471535D01*
X133096000Y-87977990D01*
X133096000Y-71593740D01*
X142287000Y-71593740D01*
X142287000Y-71886260D01*
X142344068Y-72173158D01*
X142456010Y-72443411D01*
X142618525Y-72686632D01*
X142825368Y-72893475D01*
X142999760Y-73010000D01*
X142825368Y-73126525D01*
X142618525Y-73333368D01*
X142456010Y-73576589D01*
X142344068Y-73846842D01*
X142287000Y-74133740D01*
X142287000Y-74426260D01*
X142344068Y-74713158D01*
X142456010Y-74983411D01*
X142618525Y-75226632D01*
X142825368Y-75433475D01*
X142999760Y-75550000D01*
X142825368Y-75666525D01*
X142618525Y-75873368D01*
X142456010Y-76116589D01*
X142344068Y-76386842D01*
X142287000Y-76673740D01*
X142287000Y-76966260D01*
X142344068Y-77253158D01*
X142456010Y-77523411D01*
X142618525Y-77766632D01*
X142825368Y-77973475D01*
X142999760Y-78090000D01*
X142825368Y-78206525D01*
X142618525Y-78413368D01*
X142456010Y-78656589D01*
X142344068Y-78926842D01*
X142287000Y-79213740D01*
X142287000Y-79506260D01*
X142344068Y-79793158D01*
X142456010Y-80063411D01*
X142618525Y-80306632D01*
X142825368Y-80513475D01*
X142999760Y-80630000D01*
X142825368Y-80746525D01*
X142618525Y-80953368D01*
X142456010Y-81196589D01*
X142344068Y-81466842D01*
X142287000Y-81753740D01*
X142287000Y-82046260D01*
X142344068Y-82333158D01*
X142456010Y-82603411D01*
X142618525Y-82846632D01*
X142825368Y-83053475D01*
X142999760Y-83170000D01*
X142825368Y-83286525D01*
X142618525Y-83493368D01*
X142456010Y-83736589D01*
X142344068Y-84006842D01*
X142287000Y-84293740D01*
X142287000Y-84586260D01*
X142344068Y-84873158D01*
X142456010Y-85143411D01*
X142618525Y-85386632D01*
X142825368Y-85593475D01*
X142999760Y-85710000D01*
X142825368Y-85826525D01*
X142618525Y-86033368D01*
X142456010Y-86276589D01*
X142344068Y-86546842D01*
X142287000Y-86833740D01*
X142287000Y-87126260D01*
X142344068Y-87413158D01*
X142456010Y-87683411D01*
X142618525Y-87926632D01*
X142825368Y-88133475D01*
X143068589Y-88295990D01*
X143338842Y-88407932D01*
X143625740Y-88465000D01*
X143918260Y-88465000D01*
X144205158Y-88407932D01*
X144475411Y-88295990D01*
X144718632Y-88133475D01*
X144925475Y-87926632D01*
X145087990Y-87683411D01*
X145199932Y-87413158D01*
X145257000Y-87126260D01*
X145257000Y-86833740D01*
X145199932Y-86546842D01*
X145087990Y-86276589D01*
X144925475Y-86033368D01*
X144718632Y-85826525D01*
X144544240Y-85710000D01*
X144718632Y-85593475D01*
X144925475Y-85386632D01*
X145087990Y-85143411D01*
X145110113Y-85090000D01*
X149739388Y-85090000D01*
X149761785Y-85317400D01*
X149828115Y-85536060D01*
X149929105Y-85725000D01*
X149828115Y-85913940D01*
X149761785Y-86132600D01*
X149739388Y-86360000D01*
X149761785Y-86587400D01*
X149828115Y-86806060D01*
X149935829Y-87007579D01*
X150080788Y-87184212D01*
X150257421Y-87329171D01*
X150458940Y-87436885D01*
X150677600Y-87503215D01*
X150848021Y-87520000D01*
X151411979Y-87520000D01*
X151582400Y-87503215D01*
X151801060Y-87436885D01*
X152002579Y-87329171D01*
X152179212Y-87184212D01*
X152324171Y-87007579D01*
X152431885Y-86806060D01*
X152498215Y-86587400D01*
X152520612Y-86360000D01*
X152498215Y-86132600D01*
X152431885Y-85913940D01*
X152330895Y-85725000D01*
X152431885Y-85536060D01*
X152498215Y-85317400D01*
X152520612Y-85090000D01*
X156597388Y-85090000D01*
X156619785Y-85317400D01*
X156686115Y-85536060D01*
X156787105Y-85725000D01*
X156686115Y-85913940D01*
X156619785Y-86132600D01*
X156597388Y-86360000D01*
X156619785Y-86587400D01*
X156686115Y-86806060D01*
X156793829Y-87007579D01*
X156938788Y-87184212D01*
X157115421Y-87329171D01*
X157316940Y-87436885D01*
X157535600Y-87503215D01*
X157706021Y-87520000D01*
X158269979Y-87520000D01*
X158440400Y-87503215D01*
X158659060Y-87436885D01*
X158860579Y-87329171D01*
X159037212Y-87184212D01*
X159182171Y-87007579D01*
X159289885Y-86806060D01*
X159356215Y-86587400D01*
X159378612Y-86360000D01*
X159356215Y-86132600D01*
X159289885Y-85913940D01*
X159188895Y-85725000D01*
X159272417Y-85568740D01*
X175093000Y-85568740D01*
X175093000Y-85861260D01*
X175150068Y-86148158D01*
X175262010Y-86418411D01*
X175424525Y-86661632D01*
X175631368Y-86868475D01*
X175874589Y-87030990D01*
X176144842Y-87142932D01*
X176333708Y-87180500D01*
X176144842Y-87218068D01*
X175874589Y-87330010D01*
X175631368Y-87492525D01*
X175424525Y-87699368D01*
X175262010Y-87942589D01*
X175150068Y-88212842D01*
X175093000Y-88499740D01*
X175093000Y-88792260D01*
X175150068Y-89079158D01*
X175262010Y-89349411D01*
X175424525Y-89592632D01*
X175631368Y-89799475D01*
X175874589Y-89961990D01*
X176144842Y-90073932D01*
X176431740Y-90131000D01*
X176724260Y-90131000D01*
X177011158Y-90073932D01*
X177281411Y-89961990D01*
X177524632Y-89799475D01*
X177731475Y-89592632D01*
X177848000Y-89418240D01*
X177964525Y-89592632D01*
X178171368Y-89799475D01*
X178414589Y-89961990D01*
X178684842Y-90073932D01*
X178971740Y-90131000D01*
X179264260Y-90131000D01*
X179551158Y-90073932D01*
X179821411Y-89961990D01*
X180064632Y-89799475D01*
X180271475Y-89592632D01*
X180388000Y-89418240D01*
X180504525Y-89592632D01*
X180711368Y-89799475D01*
X180954589Y-89961990D01*
X181224842Y-90073932D01*
X181511740Y-90131000D01*
X181804260Y-90131000D01*
X182091158Y-90073932D01*
X182361411Y-89961990D01*
X182604632Y-89799475D01*
X182811475Y-89592632D01*
X182933195Y-89410466D01*
X183002822Y-89527355D01*
X183197731Y-89743588D01*
X183431080Y-89917641D01*
X183693901Y-90042825D01*
X183841110Y-90087476D01*
X184071000Y-89966155D01*
X184071000Y-88773000D01*
X184051000Y-88773000D01*
X184051000Y-88519000D01*
X184071000Y-88519000D01*
X184071000Y-88499000D01*
X184325000Y-88499000D01*
X184325000Y-88519000D01*
X184345000Y-88519000D01*
X184345000Y-88773000D01*
X184325000Y-88773000D01*
X184325000Y-89966155D01*
X184554890Y-90087476D01*
X184702099Y-90042825D01*
X184964920Y-89917641D01*
X185198269Y-89743588D01*
X185393178Y-89527355D01*
X185462805Y-89410466D01*
X185584525Y-89592632D01*
X185791368Y-89799475D01*
X186034589Y-89961990D01*
X186304842Y-90073932D01*
X186591740Y-90131000D01*
X186884260Y-90131000D01*
X187171158Y-90073932D01*
X187441411Y-89961990D01*
X187684632Y-89799475D01*
X187891475Y-89592632D01*
X188008000Y-89418240D01*
X188124525Y-89592632D01*
X188331368Y-89799475D01*
X188574589Y-89961990D01*
X188844842Y-90073932D01*
X189131740Y-90131000D01*
X189424260Y-90131000D01*
X189711158Y-90073932D01*
X189981411Y-89961990D01*
X190224632Y-89799475D01*
X190431475Y-89592632D01*
X190548000Y-89418240D01*
X190664525Y-89592632D01*
X190871368Y-89799475D01*
X191114589Y-89961990D01*
X191384842Y-90073932D01*
X191671740Y-90131000D01*
X191964260Y-90131000D01*
X192251158Y-90073932D01*
X192521411Y-89961990D01*
X192764632Y-89799475D01*
X192971475Y-89592632D01*
X193088000Y-89418240D01*
X193204525Y-89592632D01*
X193411368Y-89799475D01*
X193654589Y-89961990D01*
X193924842Y-90073932D01*
X194211740Y-90131000D01*
X194504260Y-90131000D01*
X194791158Y-90073932D01*
X195061411Y-89961990D01*
X195304632Y-89799475D01*
X195511475Y-89592632D01*
X195628000Y-89418240D01*
X195744525Y-89592632D01*
X195951368Y-89799475D01*
X196194589Y-89961990D01*
X196464842Y-90073932D01*
X196751740Y-90131000D01*
X197044260Y-90131000D01*
X197331158Y-90073932D01*
X197601411Y-89961990D01*
X197844632Y-89799475D01*
X198051475Y-89592632D01*
X198168000Y-89418240D01*
X198284525Y-89592632D01*
X198491368Y-89799475D01*
X198734589Y-89961990D01*
X199004842Y-90073932D01*
X199291740Y-90131000D01*
X199584260Y-90131000D01*
X199871158Y-90073932D01*
X200141411Y-89961990D01*
X200384632Y-89799475D01*
X200591475Y-89592632D01*
X200708000Y-89418240D01*
X200824525Y-89592632D01*
X201031368Y-89799475D01*
X201274589Y-89961990D01*
X201544842Y-90073932D01*
X201831740Y-90131000D01*
X202124260Y-90131000D01*
X202411158Y-90073932D01*
X202681411Y-89961990D01*
X202924632Y-89799475D01*
X203131475Y-89592632D01*
X203248000Y-89418240D01*
X203364525Y-89592632D01*
X203571368Y-89799475D01*
X203814589Y-89961990D01*
X204084842Y-90073932D01*
X204371740Y-90131000D01*
X204664260Y-90131000D01*
X204951158Y-90073932D01*
X205221411Y-89961990D01*
X205464632Y-89799475D01*
X205671475Y-89592632D01*
X205788000Y-89418240D01*
X205904525Y-89592632D01*
X206111368Y-89799475D01*
X206354589Y-89961990D01*
X206624842Y-90073932D01*
X206911740Y-90131000D01*
X207204260Y-90131000D01*
X207491158Y-90073932D01*
X207761411Y-89961990D01*
X208004632Y-89799475D01*
X208211475Y-89592632D01*
X208328000Y-89418240D01*
X208444525Y-89592632D01*
X208651368Y-89799475D01*
X208894589Y-89961990D01*
X209164842Y-90073932D01*
X209451740Y-90131000D01*
X209744260Y-90131000D01*
X210031158Y-90073932D01*
X210301411Y-89961990D01*
X210544632Y-89799475D01*
X210751475Y-89592632D01*
X210868000Y-89418240D01*
X210984525Y-89592632D01*
X211191368Y-89799475D01*
X211434589Y-89961990D01*
X211704842Y-90073932D01*
X211991740Y-90131000D01*
X212284260Y-90131000D01*
X212571158Y-90073932D01*
X212841411Y-89961990D01*
X213084632Y-89799475D01*
X213291475Y-89592632D01*
X213453990Y-89349411D01*
X213565932Y-89079158D01*
X213623000Y-88792260D01*
X213623000Y-88499740D01*
X213565932Y-88212842D01*
X213453990Y-87942589D01*
X213291475Y-87699368D01*
X213084632Y-87492525D01*
X212841411Y-87330010D01*
X212571158Y-87218068D01*
X212382292Y-87180500D01*
X212571158Y-87142932D01*
X212841411Y-87030990D01*
X213084632Y-86868475D01*
X213291475Y-86661632D01*
X213453990Y-86418411D01*
X213565932Y-86148158D01*
X213623000Y-85861260D01*
X213623000Y-85568740D01*
X213565932Y-85281842D01*
X213453990Y-85011589D01*
X213291475Y-84768368D01*
X213084632Y-84561525D01*
X212841411Y-84399010D01*
X212571158Y-84287068D01*
X212284260Y-84230000D01*
X211991740Y-84230000D01*
X211704842Y-84287068D01*
X211434589Y-84399010D01*
X211191368Y-84561525D01*
X210984525Y-84768368D01*
X210868000Y-84942760D01*
X210751475Y-84768368D01*
X210544632Y-84561525D01*
X210301411Y-84399010D01*
X210031158Y-84287068D01*
X209744260Y-84230000D01*
X209451740Y-84230000D01*
X209164842Y-84287068D01*
X208894589Y-84399010D01*
X208651368Y-84561525D01*
X208444525Y-84768368D01*
X208328000Y-84942760D01*
X208211475Y-84768368D01*
X208004632Y-84561525D01*
X207761411Y-84399010D01*
X207491158Y-84287068D01*
X207204260Y-84230000D01*
X206911740Y-84230000D01*
X206624842Y-84287068D01*
X206354589Y-84399010D01*
X206111368Y-84561525D01*
X205904525Y-84768368D01*
X205788000Y-84942760D01*
X205671475Y-84768368D01*
X205464632Y-84561525D01*
X205221411Y-84399010D01*
X204951158Y-84287068D01*
X204664260Y-84230000D01*
X204371740Y-84230000D01*
X204084842Y-84287068D01*
X203814589Y-84399010D01*
X203571368Y-84561525D01*
X203364525Y-84768368D01*
X203248000Y-84942760D01*
X203131475Y-84768368D01*
X202924632Y-84561525D01*
X202681411Y-84399010D01*
X202411158Y-84287068D01*
X202124260Y-84230000D01*
X201831740Y-84230000D01*
X201544842Y-84287068D01*
X201274589Y-84399010D01*
X201031368Y-84561525D01*
X200824525Y-84768368D01*
X200708000Y-84942760D01*
X200591475Y-84768368D01*
X200384632Y-84561525D01*
X200141411Y-84399010D01*
X199871158Y-84287068D01*
X199584260Y-84230000D01*
X199291740Y-84230000D01*
X199004842Y-84287068D01*
X198734589Y-84399010D01*
X198491368Y-84561525D01*
X198284525Y-84768368D01*
X198168000Y-84942760D01*
X198051475Y-84768368D01*
X197844632Y-84561525D01*
X197601411Y-84399010D01*
X197331158Y-84287068D01*
X197044260Y-84230000D01*
X196751740Y-84230000D01*
X196464842Y-84287068D01*
X196194589Y-84399010D01*
X195951368Y-84561525D01*
X195744525Y-84768368D01*
X195628000Y-84942760D01*
X195511475Y-84768368D01*
X195304632Y-84561525D01*
X195061411Y-84399010D01*
X194791158Y-84287068D01*
X194504260Y-84230000D01*
X194211740Y-84230000D01*
X193924842Y-84287068D01*
X193654589Y-84399010D01*
X193411368Y-84561525D01*
X193204525Y-84768368D01*
X193088000Y-84942760D01*
X192971475Y-84768368D01*
X192764632Y-84561525D01*
X192521411Y-84399010D01*
X192251158Y-84287068D01*
X191964260Y-84230000D01*
X191671740Y-84230000D01*
X191384842Y-84287068D01*
X191114589Y-84399010D01*
X190871368Y-84561525D01*
X190664525Y-84768368D01*
X190548000Y-84942760D01*
X190431475Y-84768368D01*
X190224632Y-84561525D01*
X189981411Y-84399010D01*
X189711158Y-84287068D01*
X189424260Y-84230000D01*
X189131740Y-84230000D01*
X188844842Y-84287068D01*
X188574589Y-84399010D01*
X188331368Y-84561525D01*
X188124525Y-84768368D01*
X188008000Y-84942760D01*
X187891475Y-84768368D01*
X187684632Y-84561525D01*
X187441411Y-84399010D01*
X187171158Y-84287068D01*
X186884260Y-84230000D01*
X186591740Y-84230000D01*
X186304842Y-84287068D01*
X186034589Y-84399010D01*
X185791368Y-84561525D01*
X185584525Y-84768368D01*
X185462805Y-84950534D01*
X185393178Y-84833645D01*
X185198269Y-84617412D01*
X184964920Y-84443359D01*
X184702099Y-84318175D01*
X184554890Y-84273524D01*
X184325000Y-84394845D01*
X184325000Y-85588000D01*
X184345000Y-85588000D01*
X184345000Y-85842000D01*
X184325000Y-85842000D01*
X184325000Y-85862000D01*
X184071000Y-85862000D01*
X184071000Y-85842000D01*
X184051000Y-85842000D01*
X184051000Y-85588000D01*
X184071000Y-85588000D01*
X184071000Y-84394845D01*
X183841110Y-84273524D01*
X183693901Y-84318175D01*
X183431080Y-84443359D01*
X183197731Y-84617412D01*
X183002822Y-84833645D01*
X182933195Y-84950534D01*
X182811475Y-84768368D01*
X182604632Y-84561525D01*
X182361411Y-84399010D01*
X182091158Y-84287068D01*
X181804260Y-84230000D01*
X181511740Y-84230000D01*
X181224842Y-84287068D01*
X180954589Y-84399010D01*
X180711368Y-84561525D01*
X180504525Y-84768368D01*
X180388000Y-84942760D01*
X180271475Y-84768368D01*
X180064632Y-84561525D01*
X179821411Y-84399010D01*
X179551158Y-84287068D01*
X179264260Y-84230000D01*
X178971740Y-84230000D01*
X178684842Y-84287068D01*
X178414589Y-84399010D01*
X178171368Y-84561525D01*
X177964525Y-84768368D01*
X177848000Y-84942760D01*
X177731475Y-84768368D01*
X177524632Y-84561525D01*
X177281411Y-84399010D01*
X177011158Y-84287068D01*
X176724260Y-84230000D01*
X176431740Y-84230000D01*
X176144842Y-84287068D01*
X175874589Y-84399010D01*
X175631368Y-84561525D01*
X175424525Y-84768368D01*
X175262010Y-85011589D01*
X175150068Y-85281842D01*
X175093000Y-85568740D01*
X159272417Y-85568740D01*
X159289885Y-85536060D01*
X159356215Y-85317400D01*
X159378612Y-85090000D01*
X159356215Y-84862600D01*
X159292907Y-84653902D01*
X159327502Y-84589180D01*
X159363812Y-84469482D01*
X159376072Y-84345000D01*
X159373000Y-84105750D01*
X159214250Y-83947000D01*
X158441109Y-83947000D01*
X158440400Y-83946785D01*
X158269979Y-83930000D01*
X157706021Y-83930000D01*
X157535600Y-83946785D01*
X157534891Y-83947000D01*
X156761750Y-83947000D01*
X156603000Y-84105750D01*
X156599928Y-84345000D01*
X156612188Y-84469482D01*
X156648498Y-84589180D01*
X156683093Y-84653902D01*
X156619785Y-84862600D01*
X156597388Y-85090000D01*
X152520612Y-85090000D01*
X152498215Y-84862600D01*
X152434907Y-84653902D01*
X152469502Y-84589180D01*
X152505812Y-84469482D01*
X152518072Y-84345000D01*
X152515000Y-84105750D01*
X152356250Y-83947000D01*
X151583109Y-83947000D01*
X151582400Y-83946785D01*
X151411979Y-83930000D01*
X150848021Y-83930000D01*
X150677600Y-83946785D01*
X150676891Y-83947000D01*
X149903750Y-83947000D01*
X149745000Y-84105750D01*
X149741928Y-84345000D01*
X149754188Y-84469482D01*
X149790498Y-84589180D01*
X149825093Y-84653902D01*
X149761785Y-84862600D01*
X149739388Y-85090000D01*
X145110113Y-85090000D01*
X145199932Y-84873158D01*
X145257000Y-84586260D01*
X145257000Y-84293740D01*
X145199932Y-84006842D01*
X145087990Y-83736589D01*
X144925475Y-83493368D01*
X144727107Y-83295000D01*
X149741928Y-83295000D01*
X149745000Y-83534250D01*
X149903750Y-83693000D01*
X151003000Y-83693000D01*
X151003000Y-82818750D01*
X151257000Y-82818750D01*
X151257000Y-83693000D01*
X152356250Y-83693000D01*
X152515000Y-83534250D01*
X152518072Y-83295000D01*
X156599928Y-83295000D01*
X156603000Y-83534250D01*
X156761750Y-83693000D01*
X157861000Y-83693000D01*
X157861000Y-82818750D01*
X158115000Y-82818750D01*
X158115000Y-83693000D01*
X159214250Y-83693000D01*
X159373000Y-83534250D01*
X159376072Y-83295000D01*
X159363812Y-83170518D01*
X159327502Y-83050820D01*
X159268537Y-82940506D01*
X159189185Y-82843815D01*
X159092494Y-82764463D01*
X158982180Y-82705498D01*
X158862482Y-82669188D01*
X158738000Y-82656928D01*
X158273750Y-82660000D01*
X158115000Y-82818750D01*
X157861000Y-82818750D01*
X157702250Y-82660000D01*
X157238000Y-82656928D01*
X157113518Y-82669188D01*
X156993820Y-82705498D01*
X156883506Y-82764463D01*
X156786815Y-82843815D01*
X156707463Y-82940506D01*
X156648498Y-83050820D01*
X156612188Y-83170518D01*
X156599928Y-83295000D01*
X152518072Y-83295000D01*
X152505812Y-83170518D01*
X152469502Y-83050820D01*
X152410537Y-82940506D01*
X152331185Y-82843815D01*
X152234494Y-82764463D01*
X152124180Y-82705498D01*
X152004482Y-82669188D01*
X151880000Y-82656928D01*
X151415750Y-82660000D01*
X151257000Y-82818750D01*
X151003000Y-82818750D01*
X150844250Y-82660000D01*
X150380000Y-82656928D01*
X150255518Y-82669188D01*
X150135820Y-82705498D01*
X150025506Y-82764463D01*
X149928815Y-82843815D01*
X149849463Y-82940506D01*
X149790498Y-83050820D01*
X149754188Y-83170518D01*
X149741928Y-83295000D01*
X144727107Y-83295000D01*
X144718632Y-83286525D01*
X144544240Y-83170000D01*
X144718632Y-83053475D01*
X144925475Y-82846632D01*
X145087990Y-82603411D01*
X145199932Y-82333158D01*
X145257000Y-82046260D01*
X145257000Y-81753740D01*
X145199932Y-81466842D01*
X145087990Y-81196589D01*
X144925475Y-80953368D01*
X144718632Y-80746525D01*
X144544240Y-80630000D01*
X144718632Y-80513475D01*
X144925475Y-80306632D01*
X145087990Y-80063411D01*
X145199932Y-79793158D01*
X145257000Y-79506260D01*
X145257000Y-79213740D01*
X145199932Y-78926842D01*
X145087990Y-78656589D01*
X144925475Y-78413368D01*
X144718632Y-78206525D01*
X144566690Y-78105000D01*
X149739388Y-78105000D01*
X149761785Y-78332400D01*
X149828115Y-78551060D01*
X149929105Y-78740000D01*
X149828115Y-78928940D01*
X149761785Y-79147600D01*
X149739388Y-79375000D01*
X149761785Y-79602400D01*
X149828115Y-79821060D01*
X149935829Y-80022579D01*
X150080788Y-80199212D01*
X150257421Y-80344171D01*
X150458940Y-80451885D01*
X150677600Y-80518215D01*
X150848021Y-80535000D01*
X151411979Y-80535000D01*
X151582400Y-80518215D01*
X151801060Y-80451885D01*
X152002579Y-80344171D01*
X152179212Y-80199212D01*
X152324171Y-80022579D01*
X152431885Y-79821060D01*
X152498215Y-79602400D01*
X152520612Y-79375000D01*
X152498215Y-79147600D01*
X152431885Y-78928940D01*
X152330895Y-78740000D01*
X152431885Y-78551060D01*
X152498215Y-78332400D01*
X152520612Y-78105000D01*
X156597388Y-78105000D01*
X156619785Y-78332400D01*
X156686115Y-78551060D01*
X156787105Y-78740000D01*
X156686115Y-78928940D01*
X156619785Y-79147600D01*
X156597388Y-79375000D01*
X156619785Y-79602400D01*
X156686115Y-79821060D01*
X156793829Y-80022579D01*
X156938788Y-80199212D01*
X157115421Y-80344171D01*
X157316940Y-80451885D01*
X157535600Y-80518215D01*
X157706021Y-80535000D01*
X158269979Y-80535000D01*
X158440400Y-80518215D01*
X158659060Y-80451885D01*
X158860579Y-80344171D01*
X159037212Y-80199212D01*
X159182171Y-80022579D01*
X159289885Y-79821060D01*
X159356215Y-79602400D01*
X159378612Y-79375000D01*
X159356215Y-79147600D01*
X159289885Y-78928940D01*
X159188895Y-78740000D01*
X159289885Y-78551060D01*
X159356215Y-78332400D01*
X159378612Y-78105000D01*
X159356215Y-77877600D01*
X159292907Y-77668902D01*
X159327502Y-77604180D01*
X159363812Y-77484482D01*
X159376072Y-77360000D01*
X159373000Y-77120750D01*
X159214250Y-76962000D01*
X158441109Y-76962000D01*
X158440400Y-76961785D01*
X158269979Y-76945000D01*
X157706021Y-76945000D01*
X157535600Y-76961785D01*
X157534891Y-76962000D01*
X156761750Y-76962000D01*
X156603000Y-77120750D01*
X156599928Y-77360000D01*
X156612188Y-77484482D01*
X156648498Y-77604180D01*
X156683093Y-77668902D01*
X156619785Y-77877600D01*
X156597388Y-78105000D01*
X152520612Y-78105000D01*
X152498215Y-77877600D01*
X152434907Y-77668902D01*
X152469502Y-77604180D01*
X152505812Y-77484482D01*
X152518072Y-77360000D01*
X152515000Y-77120750D01*
X152356250Y-76962000D01*
X151583109Y-76962000D01*
X151582400Y-76961785D01*
X151411979Y-76945000D01*
X150848021Y-76945000D01*
X150677600Y-76961785D01*
X150676891Y-76962000D01*
X149903750Y-76962000D01*
X149745000Y-77120750D01*
X149741928Y-77360000D01*
X149754188Y-77484482D01*
X149790498Y-77604180D01*
X149825093Y-77668902D01*
X149761785Y-77877600D01*
X149739388Y-78105000D01*
X144566690Y-78105000D01*
X144544240Y-78090000D01*
X144718632Y-77973475D01*
X144925475Y-77766632D01*
X145087990Y-77523411D01*
X145199932Y-77253158D01*
X145257000Y-76966260D01*
X145257000Y-76673740D01*
X145199932Y-76386842D01*
X145168104Y-76310000D01*
X149741928Y-76310000D01*
X149745000Y-76549250D01*
X149903750Y-76708000D01*
X151003000Y-76708000D01*
X151003000Y-75833750D01*
X151257000Y-75833750D01*
X151257000Y-76708000D01*
X152356250Y-76708000D01*
X152515000Y-76549250D01*
X152518072Y-76310000D01*
X156599928Y-76310000D01*
X156603000Y-76549250D01*
X156761750Y-76708000D01*
X157861000Y-76708000D01*
X157861000Y-75833750D01*
X158115000Y-75833750D01*
X158115000Y-76708000D01*
X159214250Y-76708000D01*
X159373000Y-76549250D01*
X159376072Y-76310000D01*
X159363812Y-76185518D01*
X159327502Y-76065820D01*
X159268537Y-75955506D01*
X159189185Y-75858815D01*
X159092494Y-75779463D01*
X158982180Y-75720498D01*
X158862482Y-75684188D01*
X158738000Y-75671928D01*
X158273750Y-75675000D01*
X158115000Y-75833750D01*
X157861000Y-75833750D01*
X157702250Y-75675000D01*
X157238000Y-75671928D01*
X157113518Y-75684188D01*
X156993820Y-75720498D01*
X156883506Y-75779463D01*
X156786815Y-75858815D01*
X156707463Y-75955506D01*
X156648498Y-76065820D01*
X156612188Y-76185518D01*
X156599928Y-76310000D01*
X152518072Y-76310000D01*
X152505812Y-76185518D01*
X152469502Y-76065820D01*
X152410537Y-75955506D01*
X152331185Y-75858815D01*
X152234494Y-75779463D01*
X152124180Y-75720498D01*
X152004482Y-75684188D01*
X151880000Y-75671928D01*
X151415750Y-75675000D01*
X151257000Y-75833750D01*
X151003000Y-75833750D01*
X150844250Y-75675000D01*
X150380000Y-75671928D01*
X150255518Y-75684188D01*
X150135820Y-75720498D01*
X150025506Y-75779463D01*
X149928815Y-75858815D01*
X149849463Y-75955506D01*
X149790498Y-76065820D01*
X149754188Y-76185518D01*
X149741928Y-76310000D01*
X145168104Y-76310000D01*
X145087990Y-76116589D01*
X144925475Y-75873368D01*
X144718632Y-75666525D01*
X144544240Y-75550000D01*
X144718632Y-75433475D01*
X144925475Y-75226632D01*
X145087990Y-74983411D01*
X145199932Y-74713158D01*
X145257000Y-74426260D01*
X145257000Y-74133740D01*
X145199932Y-73846842D01*
X145087990Y-73576589D01*
X144925475Y-73333368D01*
X144718632Y-73126525D01*
X144544240Y-73010000D01*
X144718632Y-72893475D01*
X144925475Y-72686632D01*
X145087990Y-72443411D01*
X145199932Y-72173158D01*
X145257000Y-71886260D01*
X145257000Y-71593740D01*
X145199932Y-71306842D01*
X145122540Y-71120000D01*
X149739388Y-71120000D01*
X149761785Y-71347400D01*
X149828115Y-71566060D01*
X149929105Y-71755000D01*
X149828115Y-71943940D01*
X149761785Y-72162600D01*
X149739388Y-72390000D01*
X149761785Y-72617400D01*
X149828115Y-72836060D01*
X149935829Y-73037579D01*
X150080788Y-73214212D01*
X150257421Y-73359171D01*
X150458940Y-73466885D01*
X150677600Y-73533215D01*
X150848021Y-73550000D01*
X151411979Y-73550000D01*
X151582400Y-73533215D01*
X151801060Y-73466885D01*
X152002579Y-73359171D01*
X152179212Y-73214212D01*
X152324171Y-73037579D01*
X152431885Y-72836060D01*
X152498215Y-72617400D01*
X152520612Y-72390000D01*
X152498215Y-72162600D01*
X152431885Y-71943940D01*
X152330895Y-71755000D01*
X152431885Y-71566060D01*
X152498215Y-71347400D01*
X152520612Y-71120000D01*
X156597388Y-71120000D01*
X156619785Y-71347400D01*
X156686115Y-71566060D01*
X156787105Y-71755000D01*
X156686115Y-71943940D01*
X156619785Y-72162600D01*
X156597388Y-72390000D01*
X156619785Y-72617400D01*
X156686115Y-72836060D01*
X156793829Y-73037579D01*
X156938788Y-73214212D01*
X157115421Y-73359171D01*
X157316940Y-73466885D01*
X157535600Y-73533215D01*
X157706021Y-73550000D01*
X158269979Y-73550000D01*
X158440400Y-73533215D01*
X158659060Y-73466885D01*
X158860579Y-73359171D01*
X159037212Y-73214212D01*
X159182171Y-73037579D01*
X159289885Y-72836060D01*
X159356215Y-72617400D01*
X159378612Y-72390000D01*
X159356215Y-72162600D01*
X159289885Y-71943940D01*
X159188895Y-71755000D01*
X159289885Y-71566060D01*
X159356215Y-71347400D01*
X159378612Y-71120000D01*
X159356215Y-70892600D01*
X159292907Y-70683902D01*
X159327502Y-70619180D01*
X159363812Y-70499482D01*
X159376072Y-70375000D01*
X159373000Y-70135750D01*
X159214250Y-69977000D01*
X158441109Y-69977000D01*
X158440400Y-69976785D01*
X158269979Y-69960000D01*
X157706021Y-69960000D01*
X157535600Y-69976785D01*
X157534891Y-69977000D01*
X156761750Y-69977000D01*
X156603000Y-70135750D01*
X156599928Y-70375000D01*
X156612188Y-70499482D01*
X156648498Y-70619180D01*
X156683093Y-70683902D01*
X156619785Y-70892600D01*
X156597388Y-71120000D01*
X152520612Y-71120000D01*
X152498215Y-70892600D01*
X152434907Y-70683902D01*
X152469502Y-70619180D01*
X152505812Y-70499482D01*
X152518072Y-70375000D01*
X152515000Y-70135750D01*
X152356250Y-69977000D01*
X151583109Y-69977000D01*
X151582400Y-69976785D01*
X151411979Y-69960000D01*
X150848021Y-69960000D01*
X150677600Y-69976785D01*
X150676891Y-69977000D01*
X149903750Y-69977000D01*
X149745000Y-70135750D01*
X149741928Y-70375000D01*
X149754188Y-70499482D01*
X149790498Y-70619180D01*
X149825093Y-70683902D01*
X149761785Y-70892600D01*
X149739388Y-71120000D01*
X145122540Y-71120000D01*
X145087990Y-71036589D01*
X144925475Y-70793368D01*
X144718632Y-70586525D01*
X144536466Y-70464805D01*
X144653355Y-70395178D01*
X144869588Y-70200269D01*
X145043641Y-69966920D01*
X145168825Y-69704099D01*
X145213476Y-69556890D01*
X145092155Y-69327000D01*
X143899000Y-69327000D01*
X143899000Y-69347000D01*
X143645000Y-69347000D01*
X143645000Y-69327000D01*
X142451845Y-69327000D01*
X142330524Y-69556890D01*
X142375175Y-69704099D01*
X142500359Y-69966920D01*
X142674412Y-70200269D01*
X142890645Y-70395178D01*
X143007534Y-70464805D01*
X142825368Y-70586525D01*
X142618525Y-70793368D01*
X142456010Y-71036589D01*
X142344068Y-71306842D01*
X142287000Y-71593740D01*
X133096000Y-71593740D01*
X133096000Y-69325000D01*
X149741928Y-69325000D01*
X149745000Y-69564250D01*
X149903750Y-69723000D01*
X151003000Y-69723000D01*
X151003000Y-68848750D01*
X151257000Y-68848750D01*
X151257000Y-69723000D01*
X152356250Y-69723000D01*
X152515000Y-69564250D01*
X152518072Y-69325000D01*
X156599928Y-69325000D01*
X156603000Y-69564250D01*
X156761750Y-69723000D01*
X157861000Y-69723000D01*
X157861000Y-68848750D01*
X158115000Y-68848750D01*
X158115000Y-69723000D01*
X159214250Y-69723000D01*
X159373000Y-69564250D01*
X159376072Y-69325000D01*
X159363812Y-69200518D01*
X159327502Y-69080820D01*
X159268537Y-68970506D01*
X159189185Y-68873815D01*
X159092494Y-68794463D01*
X158982180Y-68735498D01*
X158862482Y-68699188D01*
X158738000Y-68686928D01*
X158273750Y-68690000D01*
X158115000Y-68848750D01*
X157861000Y-68848750D01*
X157702250Y-68690000D01*
X157238000Y-68686928D01*
X157113518Y-68699188D01*
X156993820Y-68735498D01*
X156883506Y-68794463D01*
X156786815Y-68873815D01*
X156707463Y-68970506D01*
X156648498Y-69080820D01*
X156612188Y-69200518D01*
X156599928Y-69325000D01*
X152518072Y-69325000D01*
X152505812Y-69200518D01*
X152469502Y-69080820D01*
X152410537Y-68970506D01*
X152331185Y-68873815D01*
X152234494Y-68794463D01*
X152124180Y-68735498D01*
X152004482Y-68699188D01*
X151880000Y-68686928D01*
X151415750Y-68690000D01*
X151257000Y-68848750D01*
X151003000Y-68848750D01*
X150844250Y-68690000D01*
X150380000Y-68686928D01*
X150255518Y-68699188D01*
X150135820Y-68735498D01*
X150025506Y-68794463D01*
X149928815Y-68873815D01*
X149849463Y-68970506D01*
X149790498Y-69080820D01*
X149754188Y-69200518D01*
X149741928Y-69325000D01*
X133096000Y-69325000D01*
X133096000Y-68843110D01*
X142330524Y-68843110D01*
X142451845Y-69073000D01*
X143645000Y-69073000D01*
X143645000Y-67879186D01*
X143899000Y-67879186D01*
X143899000Y-69073000D01*
X145092155Y-69073000D01*
X145213476Y-68843110D01*
X145168825Y-68695901D01*
X145043641Y-68433080D01*
X144869588Y-68199731D01*
X144653355Y-68004822D01*
X144403252Y-67855843D01*
X144128891Y-67758519D01*
X143899000Y-67879186D01*
X143645000Y-67879186D01*
X143415109Y-67758519D01*
X143140748Y-67855843D01*
X142890645Y-68004822D01*
X142674412Y-68199731D01*
X142500359Y-68433080D01*
X142375175Y-68695901D01*
X142330524Y-68843110D01*
X133096000Y-68843110D01*
X133096000Y-68250279D01*
X133144584Y-67754784D01*
X133246343Y-67417740D01*
X175093000Y-67417740D01*
X175093000Y-67710260D01*
X175150068Y-67997158D01*
X175262010Y-68267411D01*
X175424525Y-68510632D01*
X175631368Y-68717475D01*
X175874589Y-68879990D01*
X176144842Y-68991932D01*
X176283435Y-69019500D01*
X176144842Y-69047068D01*
X175874589Y-69159010D01*
X175631368Y-69321525D01*
X175424525Y-69528368D01*
X175262010Y-69771589D01*
X175150068Y-70041842D01*
X175093000Y-70328740D01*
X175093000Y-70621260D01*
X175150068Y-70908158D01*
X175262010Y-71178411D01*
X175424525Y-71421632D01*
X175631368Y-71628475D01*
X175874589Y-71790990D01*
X176144842Y-71902932D01*
X176431740Y-71960000D01*
X176724260Y-71960000D01*
X177011158Y-71902932D01*
X177281411Y-71790990D01*
X177524632Y-71628475D01*
X177731475Y-71421632D01*
X177853195Y-71239466D01*
X177922822Y-71356355D01*
X178117731Y-71572588D01*
X178351080Y-71746641D01*
X178613901Y-71871825D01*
X178761110Y-71916476D01*
X178991000Y-71795155D01*
X178991000Y-70602000D01*
X178971000Y-70602000D01*
X178971000Y-70348000D01*
X178991000Y-70348000D01*
X178991000Y-70328000D01*
X179245000Y-70328000D01*
X179245000Y-70348000D01*
X179265000Y-70348000D01*
X179265000Y-70602000D01*
X179245000Y-70602000D01*
X179245000Y-71795155D01*
X179474890Y-71916476D01*
X179622099Y-71871825D01*
X179884920Y-71746641D01*
X180118269Y-71572588D01*
X180313178Y-71356355D01*
X180382805Y-71239466D01*
X180504525Y-71421632D01*
X180711368Y-71628475D01*
X180954589Y-71790990D01*
X181224842Y-71902932D01*
X181511740Y-71960000D01*
X181804260Y-71960000D01*
X182091158Y-71902932D01*
X182361411Y-71790990D01*
X182604632Y-71628475D01*
X182811475Y-71421632D01*
X182928000Y-71247240D01*
X183044525Y-71421632D01*
X183251368Y-71628475D01*
X183494589Y-71790990D01*
X183764842Y-71902932D01*
X184051740Y-71960000D01*
X184344260Y-71960000D01*
X184631158Y-71902932D01*
X184901411Y-71790990D01*
X185144632Y-71628475D01*
X185351475Y-71421632D01*
X185468000Y-71247240D01*
X185584525Y-71421632D01*
X185791368Y-71628475D01*
X186034589Y-71790990D01*
X186304842Y-71902932D01*
X186591740Y-71960000D01*
X186884260Y-71960000D01*
X187171158Y-71902932D01*
X187441411Y-71790990D01*
X187684632Y-71628475D01*
X187891475Y-71421632D01*
X188008000Y-71247240D01*
X188124525Y-71421632D01*
X188331368Y-71628475D01*
X188574589Y-71790990D01*
X188844842Y-71902932D01*
X189131740Y-71960000D01*
X189424260Y-71960000D01*
X189711158Y-71902932D01*
X189981411Y-71790990D01*
X190224632Y-71628475D01*
X190431475Y-71421632D01*
X190548000Y-71247240D01*
X190664525Y-71421632D01*
X190871368Y-71628475D01*
X191114589Y-71790990D01*
X191384842Y-71902932D01*
X191671740Y-71960000D01*
X191964260Y-71960000D01*
X192251158Y-71902932D01*
X192521411Y-71790990D01*
X192764632Y-71628475D01*
X192971475Y-71421632D01*
X193088000Y-71247240D01*
X193204525Y-71421632D01*
X193411368Y-71628475D01*
X193654589Y-71790990D01*
X193924842Y-71902932D01*
X194211740Y-71960000D01*
X194504260Y-71960000D01*
X194791158Y-71902932D01*
X195061411Y-71790990D01*
X195304632Y-71628475D01*
X195511475Y-71421632D01*
X195628000Y-71247240D01*
X195744525Y-71421632D01*
X195951368Y-71628475D01*
X196194589Y-71790990D01*
X196464842Y-71902932D01*
X196751740Y-71960000D01*
X197044260Y-71960000D01*
X197331158Y-71902932D01*
X197601411Y-71790990D01*
X197844632Y-71628475D01*
X198051475Y-71421632D01*
X198168000Y-71247240D01*
X198284525Y-71421632D01*
X198491368Y-71628475D01*
X198734589Y-71790990D01*
X199004842Y-71902932D01*
X199291740Y-71960000D01*
X199584260Y-71960000D01*
X199871158Y-71902932D01*
X200141411Y-71790990D01*
X200384632Y-71628475D01*
X200591475Y-71421632D01*
X200708000Y-71247240D01*
X200824525Y-71421632D01*
X201031368Y-71628475D01*
X201274589Y-71790990D01*
X201544842Y-71902932D01*
X201831740Y-71960000D01*
X202124260Y-71960000D01*
X202411158Y-71902932D01*
X202681411Y-71790990D01*
X202924632Y-71628475D01*
X203131475Y-71421632D01*
X203248000Y-71247240D01*
X203364525Y-71421632D01*
X203571368Y-71628475D01*
X203814589Y-71790990D01*
X204084842Y-71902932D01*
X204371740Y-71960000D01*
X204664260Y-71960000D01*
X204951158Y-71902932D01*
X205221411Y-71790990D01*
X205464632Y-71628475D01*
X205671475Y-71421632D01*
X205788000Y-71247240D01*
X205904525Y-71421632D01*
X206111368Y-71628475D01*
X206354589Y-71790990D01*
X206624842Y-71902932D01*
X206911740Y-71960000D01*
X207204260Y-71960000D01*
X207491158Y-71902932D01*
X207761411Y-71790990D01*
X208004632Y-71628475D01*
X208211475Y-71421632D01*
X208328000Y-71247240D01*
X208444525Y-71421632D01*
X208651368Y-71628475D01*
X208894589Y-71790990D01*
X209164842Y-71902932D01*
X209451740Y-71960000D01*
X209744260Y-71960000D01*
X210031158Y-71902932D01*
X210301411Y-71790990D01*
X210544632Y-71628475D01*
X210751475Y-71421632D01*
X210868000Y-71247240D01*
X210984525Y-71421632D01*
X211191368Y-71628475D01*
X211434589Y-71790990D01*
X211704842Y-71902932D01*
X211991740Y-71960000D01*
X212284260Y-71960000D01*
X212571158Y-71902932D01*
X212841411Y-71790990D01*
X213084632Y-71628475D01*
X213291475Y-71421632D01*
X213453990Y-71178411D01*
X213565932Y-70908158D01*
X213623000Y-70621260D01*
X213623000Y-70328740D01*
X213565932Y-70041842D01*
X213453990Y-69771589D01*
X213291475Y-69528368D01*
X213084632Y-69321525D01*
X212841411Y-69159010D01*
X212571158Y-69047068D01*
X212432565Y-69019500D01*
X212571158Y-68991932D01*
X212841411Y-68879990D01*
X213084632Y-68717475D01*
X213291475Y-68510632D01*
X213453990Y-68267411D01*
X213565932Y-67997158D01*
X213623000Y-67710260D01*
X213623000Y-67417740D01*
X213565932Y-67130842D01*
X213453990Y-66860589D01*
X213291475Y-66617368D01*
X213084632Y-66410525D01*
X212841411Y-66248010D01*
X212571158Y-66136068D01*
X212284260Y-66079000D01*
X211991740Y-66079000D01*
X211704842Y-66136068D01*
X211434589Y-66248010D01*
X211191368Y-66410525D01*
X210984525Y-66617368D01*
X210868000Y-66791760D01*
X210751475Y-66617368D01*
X210544632Y-66410525D01*
X210301411Y-66248010D01*
X210031158Y-66136068D01*
X209744260Y-66079000D01*
X209451740Y-66079000D01*
X209164842Y-66136068D01*
X208894589Y-66248010D01*
X208651368Y-66410525D01*
X208444525Y-66617368D01*
X208328000Y-66791760D01*
X208211475Y-66617368D01*
X208004632Y-66410525D01*
X207761411Y-66248010D01*
X207491158Y-66136068D01*
X207204260Y-66079000D01*
X206911740Y-66079000D01*
X206624842Y-66136068D01*
X206354589Y-66248010D01*
X206111368Y-66410525D01*
X205904525Y-66617368D01*
X205788000Y-66791760D01*
X205671475Y-66617368D01*
X205464632Y-66410525D01*
X205221411Y-66248010D01*
X204951158Y-66136068D01*
X204664260Y-66079000D01*
X204371740Y-66079000D01*
X204084842Y-66136068D01*
X203814589Y-66248010D01*
X203571368Y-66410525D01*
X203364525Y-66617368D01*
X203248000Y-66791760D01*
X203131475Y-66617368D01*
X202924632Y-66410525D01*
X202681411Y-66248010D01*
X202411158Y-66136068D01*
X202124260Y-66079000D01*
X201831740Y-66079000D01*
X201544842Y-66136068D01*
X201274589Y-66248010D01*
X201031368Y-66410525D01*
X200824525Y-66617368D01*
X200708000Y-66791760D01*
X200591475Y-66617368D01*
X200384632Y-66410525D01*
X200141411Y-66248010D01*
X199871158Y-66136068D01*
X199584260Y-66079000D01*
X199291740Y-66079000D01*
X199004842Y-66136068D01*
X198734589Y-66248010D01*
X198491368Y-66410525D01*
X198284525Y-66617368D01*
X198168000Y-66791760D01*
X198051475Y-66617368D01*
X197844632Y-66410525D01*
X197601411Y-66248010D01*
X197331158Y-66136068D01*
X197044260Y-66079000D01*
X196751740Y-66079000D01*
X196464842Y-66136068D01*
X196194589Y-66248010D01*
X195951368Y-66410525D01*
X195744525Y-66617368D01*
X195628000Y-66791760D01*
X195511475Y-66617368D01*
X195304632Y-66410525D01*
X195061411Y-66248010D01*
X194791158Y-66136068D01*
X194504260Y-66079000D01*
X194211740Y-66079000D01*
X193924842Y-66136068D01*
X193654589Y-66248010D01*
X193411368Y-66410525D01*
X193204525Y-66617368D01*
X193088000Y-66791760D01*
X192971475Y-66617368D01*
X192764632Y-66410525D01*
X192521411Y-66248010D01*
X192251158Y-66136068D01*
X191964260Y-66079000D01*
X191671740Y-66079000D01*
X191384842Y-66136068D01*
X191114589Y-66248010D01*
X190871368Y-66410525D01*
X190664525Y-66617368D01*
X190548000Y-66791760D01*
X190431475Y-66617368D01*
X190224632Y-66410525D01*
X189981411Y-66248010D01*
X189711158Y-66136068D01*
X189424260Y-66079000D01*
X189131740Y-66079000D01*
X188844842Y-66136068D01*
X188574589Y-66248010D01*
X188331368Y-66410525D01*
X188124525Y-66617368D01*
X188008000Y-66791760D01*
X187891475Y-66617368D01*
X187684632Y-66410525D01*
X187441411Y-66248010D01*
X187171158Y-66136068D01*
X186884260Y-66079000D01*
X186591740Y-66079000D01*
X186304842Y-66136068D01*
X186034589Y-66248010D01*
X185791368Y-66410525D01*
X185584525Y-66617368D01*
X185468000Y-66791760D01*
X185351475Y-66617368D01*
X185144632Y-66410525D01*
X184901411Y-66248010D01*
X184631158Y-66136068D01*
X184344260Y-66079000D01*
X184051740Y-66079000D01*
X183764842Y-66136068D01*
X183494589Y-66248010D01*
X183251368Y-66410525D01*
X183044525Y-66617368D01*
X182928000Y-66791760D01*
X182811475Y-66617368D01*
X182604632Y-66410525D01*
X182361411Y-66248010D01*
X182091158Y-66136068D01*
X181804260Y-66079000D01*
X181511740Y-66079000D01*
X181224842Y-66136068D01*
X180954589Y-66248010D01*
X180711368Y-66410525D01*
X180504525Y-66617368D01*
X180382805Y-66799534D01*
X180313178Y-66682645D01*
X180118269Y-66466412D01*
X179884920Y-66292359D01*
X179622099Y-66167175D01*
X179474890Y-66122524D01*
X179245000Y-66243845D01*
X179245000Y-67437000D01*
X179265000Y-67437000D01*
X179265000Y-67691000D01*
X179245000Y-67691000D01*
X179245000Y-67711000D01*
X178991000Y-67711000D01*
X178991000Y-67691000D01*
X178971000Y-67691000D01*
X178971000Y-67437000D01*
X178991000Y-67437000D01*
X178991000Y-66243845D01*
X178761110Y-66122524D01*
X178613901Y-66167175D01*
X178351080Y-66292359D01*
X178117731Y-66466412D01*
X177922822Y-66682645D01*
X177853195Y-66799534D01*
X177731475Y-66617368D01*
X177524632Y-66410525D01*
X177281411Y-66248010D01*
X177011158Y-66136068D01*
X176724260Y-66079000D01*
X176431740Y-66079000D01*
X176144842Y-66136068D01*
X175874589Y-66248010D01*
X175631368Y-66410525D01*
X175424525Y-66617368D01*
X175262010Y-66860589D01*
X175150068Y-67130842D01*
X175093000Y-67417740D01*
X133246343Y-67417740D01*
X133279112Y-67309207D01*
X133497620Y-66898254D01*
X133791788Y-66537566D01*
X134150419Y-66240881D01*
X134559838Y-66019509D01*
X135004465Y-65881874D01*
X135498011Y-65830000D01*
X220693721Y-65830000D01*
X221189216Y-65878584D01*
M02*
