G04 #@! TF.GenerationSoftware,KiCad,Pcbnew,5.1.5+dfsg1-2build2*
G04 #@! TF.CreationDate,2020-05-12T21:17:34+02:00*
G04 #@! TF.ProjectId,attach_hexa,61747461-6368-45f6-9865-78612e6b6963,rev?*
G04 #@! TF.SameCoordinates,Original*
G04 #@! TF.FileFunction,Paste,Top*
G04 #@! TF.FilePolarity,Positive*
%FSLAX46Y46*%
G04 Gerber Fmt 4.6, Leading zero omitted, Abs format (unit mm)*
G04 Created by KiCad (PCBNEW 5.1.5+dfsg1-2build2) date 2020-05-12 21:17:34*
%MOMM*%
%LPD*%
G04 APERTURE LIST*
%ADD10C,0.100000*%
G04 APERTURE END LIST*
D10*
G36*
X170752505Y-67046204D02*
G01*
X170776773Y-67049804D01*
X170800572Y-67055765D01*
X170823671Y-67064030D01*
X170845850Y-67074520D01*
X170866893Y-67087132D01*
X170886599Y-67101747D01*
X170904777Y-67118223D01*
X170921253Y-67136401D01*
X170935868Y-67156107D01*
X170948480Y-67177150D01*
X170958970Y-67199329D01*
X170967235Y-67222428D01*
X170973196Y-67246227D01*
X170976796Y-67270495D01*
X170978000Y-67294999D01*
X170978000Y-69445001D01*
X170976796Y-69469505D01*
X170973196Y-69493773D01*
X170967235Y-69517572D01*
X170958970Y-69540671D01*
X170948480Y-69562850D01*
X170935868Y-69583893D01*
X170921253Y-69603599D01*
X170904777Y-69621777D01*
X170886599Y-69638253D01*
X170866893Y-69652868D01*
X170845850Y-69665480D01*
X170823671Y-69675970D01*
X170800572Y-69684235D01*
X170776773Y-69690196D01*
X170752505Y-69693796D01*
X170728001Y-69695000D01*
X169702999Y-69695000D01*
X169678495Y-69693796D01*
X169654227Y-69690196D01*
X169630428Y-69684235D01*
X169607329Y-69675970D01*
X169585150Y-69665480D01*
X169564107Y-69652868D01*
X169544401Y-69638253D01*
X169526223Y-69621777D01*
X169509747Y-69603599D01*
X169495132Y-69583893D01*
X169482520Y-69562850D01*
X169472030Y-69540671D01*
X169463765Y-69517572D01*
X169457804Y-69493773D01*
X169454204Y-69469505D01*
X169453000Y-69445001D01*
X169453000Y-67294999D01*
X169454204Y-67270495D01*
X169457804Y-67246227D01*
X169463765Y-67222428D01*
X169472030Y-67199329D01*
X169482520Y-67177150D01*
X169495132Y-67156107D01*
X169509747Y-67136401D01*
X169526223Y-67118223D01*
X169544401Y-67101747D01*
X169564107Y-67087132D01*
X169585150Y-67074520D01*
X169607329Y-67064030D01*
X169630428Y-67055765D01*
X169654227Y-67049804D01*
X169678495Y-67046204D01*
X169702999Y-67045000D01*
X170728001Y-67045000D01*
X170752505Y-67046204D01*
G37*
G36*
X166077505Y-67046204D02*
G01*
X166101773Y-67049804D01*
X166125572Y-67055765D01*
X166148671Y-67064030D01*
X166170850Y-67074520D01*
X166191893Y-67087132D01*
X166211599Y-67101747D01*
X166229777Y-67118223D01*
X166246253Y-67136401D01*
X166260868Y-67156107D01*
X166273480Y-67177150D01*
X166283970Y-67199329D01*
X166292235Y-67222428D01*
X166298196Y-67246227D01*
X166301796Y-67270495D01*
X166303000Y-67294999D01*
X166303000Y-69445001D01*
X166301796Y-69469505D01*
X166298196Y-69493773D01*
X166292235Y-69517572D01*
X166283970Y-69540671D01*
X166273480Y-69562850D01*
X166260868Y-69583893D01*
X166246253Y-69603599D01*
X166229777Y-69621777D01*
X166211599Y-69638253D01*
X166191893Y-69652868D01*
X166170850Y-69665480D01*
X166148671Y-69675970D01*
X166125572Y-69684235D01*
X166101773Y-69690196D01*
X166077505Y-69693796D01*
X166053001Y-69695000D01*
X165027999Y-69695000D01*
X165003495Y-69693796D01*
X164979227Y-69690196D01*
X164955428Y-69684235D01*
X164932329Y-69675970D01*
X164910150Y-69665480D01*
X164889107Y-69652868D01*
X164869401Y-69638253D01*
X164851223Y-69621777D01*
X164834747Y-69603599D01*
X164820132Y-69583893D01*
X164807520Y-69562850D01*
X164797030Y-69540671D01*
X164788765Y-69517572D01*
X164782804Y-69493773D01*
X164779204Y-69469505D01*
X164778000Y-69445001D01*
X164778000Y-67294999D01*
X164779204Y-67270495D01*
X164782804Y-67246227D01*
X164788765Y-67222428D01*
X164797030Y-67199329D01*
X164807520Y-67177150D01*
X164820132Y-67156107D01*
X164834747Y-67136401D01*
X164851223Y-67118223D01*
X164869401Y-67101747D01*
X164889107Y-67087132D01*
X164910150Y-67074520D01*
X164932329Y-67064030D01*
X164955428Y-67055765D01*
X164979227Y-67049804D01*
X165003495Y-67046204D01*
X165027999Y-67045000D01*
X166053001Y-67045000D01*
X166077505Y-67046204D01*
G37*
G36*
X170752505Y-70940204D02*
G01*
X170776773Y-70943804D01*
X170800572Y-70949765D01*
X170823671Y-70958030D01*
X170845850Y-70968520D01*
X170866893Y-70981132D01*
X170886599Y-70995747D01*
X170904777Y-71012223D01*
X170921253Y-71030401D01*
X170935868Y-71050107D01*
X170948480Y-71071150D01*
X170958970Y-71093329D01*
X170967235Y-71116428D01*
X170973196Y-71140227D01*
X170976796Y-71164495D01*
X170978000Y-71188999D01*
X170978000Y-73339001D01*
X170976796Y-73363505D01*
X170973196Y-73387773D01*
X170967235Y-73411572D01*
X170958970Y-73434671D01*
X170948480Y-73456850D01*
X170935868Y-73477893D01*
X170921253Y-73497599D01*
X170904777Y-73515777D01*
X170886599Y-73532253D01*
X170866893Y-73546868D01*
X170845850Y-73559480D01*
X170823671Y-73569970D01*
X170800572Y-73578235D01*
X170776773Y-73584196D01*
X170752505Y-73587796D01*
X170728001Y-73589000D01*
X169702999Y-73589000D01*
X169678495Y-73587796D01*
X169654227Y-73584196D01*
X169630428Y-73578235D01*
X169607329Y-73569970D01*
X169585150Y-73559480D01*
X169564107Y-73546868D01*
X169544401Y-73532253D01*
X169526223Y-73515777D01*
X169509747Y-73497599D01*
X169495132Y-73477893D01*
X169482520Y-73456850D01*
X169472030Y-73434671D01*
X169463765Y-73411572D01*
X169457804Y-73387773D01*
X169454204Y-73363505D01*
X169453000Y-73339001D01*
X169453000Y-71188999D01*
X169454204Y-71164495D01*
X169457804Y-71140227D01*
X169463765Y-71116428D01*
X169472030Y-71093329D01*
X169482520Y-71071150D01*
X169495132Y-71050107D01*
X169509747Y-71030401D01*
X169526223Y-71012223D01*
X169544401Y-70995747D01*
X169564107Y-70981132D01*
X169585150Y-70968520D01*
X169607329Y-70958030D01*
X169630428Y-70949765D01*
X169654227Y-70943804D01*
X169678495Y-70940204D01*
X169702999Y-70939000D01*
X170728001Y-70939000D01*
X170752505Y-70940204D01*
G37*
G36*
X166077505Y-70940204D02*
G01*
X166101773Y-70943804D01*
X166125572Y-70949765D01*
X166148671Y-70958030D01*
X166170850Y-70968520D01*
X166191893Y-70981132D01*
X166211599Y-70995747D01*
X166229777Y-71012223D01*
X166246253Y-71030401D01*
X166260868Y-71050107D01*
X166273480Y-71071150D01*
X166283970Y-71093329D01*
X166292235Y-71116428D01*
X166298196Y-71140227D01*
X166301796Y-71164495D01*
X166303000Y-71188999D01*
X166303000Y-73339001D01*
X166301796Y-73363505D01*
X166298196Y-73387773D01*
X166292235Y-73411572D01*
X166283970Y-73434671D01*
X166273480Y-73456850D01*
X166260868Y-73477893D01*
X166246253Y-73497599D01*
X166229777Y-73515777D01*
X166211599Y-73532253D01*
X166191893Y-73546868D01*
X166170850Y-73559480D01*
X166148671Y-73569970D01*
X166125572Y-73578235D01*
X166101773Y-73584196D01*
X166077505Y-73587796D01*
X166053001Y-73589000D01*
X165027999Y-73589000D01*
X165003495Y-73587796D01*
X164979227Y-73584196D01*
X164955428Y-73578235D01*
X164932329Y-73569970D01*
X164910150Y-73559480D01*
X164889107Y-73546868D01*
X164869401Y-73532253D01*
X164851223Y-73515777D01*
X164834747Y-73497599D01*
X164820132Y-73477893D01*
X164807520Y-73456850D01*
X164797030Y-73434671D01*
X164788765Y-73411572D01*
X164782804Y-73387773D01*
X164779204Y-73363505D01*
X164778000Y-73339001D01*
X164778000Y-71188999D01*
X164779204Y-71164495D01*
X164782804Y-71140227D01*
X164788765Y-71116428D01*
X164797030Y-71093329D01*
X164807520Y-71071150D01*
X164820132Y-71050107D01*
X164834747Y-71030401D01*
X164851223Y-71012223D01*
X164869401Y-70995747D01*
X164889107Y-70981132D01*
X164910150Y-70968520D01*
X164932329Y-70958030D01*
X164955428Y-70949765D01*
X164979227Y-70943804D01*
X165003495Y-70940204D01*
X165027999Y-70939000D01*
X166053001Y-70939000D01*
X166077505Y-70940204D01*
G37*
G36*
X170752505Y-74834204D02*
G01*
X170776773Y-74837804D01*
X170800572Y-74843765D01*
X170823671Y-74852030D01*
X170845850Y-74862520D01*
X170866893Y-74875132D01*
X170886599Y-74889747D01*
X170904777Y-74906223D01*
X170921253Y-74924401D01*
X170935868Y-74944107D01*
X170948480Y-74965150D01*
X170958970Y-74987329D01*
X170967235Y-75010428D01*
X170973196Y-75034227D01*
X170976796Y-75058495D01*
X170978000Y-75082999D01*
X170978000Y-77233001D01*
X170976796Y-77257505D01*
X170973196Y-77281773D01*
X170967235Y-77305572D01*
X170958970Y-77328671D01*
X170948480Y-77350850D01*
X170935868Y-77371893D01*
X170921253Y-77391599D01*
X170904777Y-77409777D01*
X170886599Y-77426253D01*
X170866893Y-77440868D01*
X170845850Y-77453480D01*
X170823671Y-77463970D01*
X170800572Y-77472235D01*
X170776773Y-77478196D01*
X170752505Y-77481796D01*
X170728001Y-77483000D01*
X169702999Y-77483000D01*
X169678495Y-77481796D01*
X169654227Y-77478196D01*
X169630428Y-77472235D01*
X169607329Y-77463970D01*
X169585150Y-77453480D01*
X169564107Y-77440868D01*
X169544401Y-77426253D01*
X169526223Y-77409777D01*
X169509747Y-77391599D01*
X169495132Y-77371893D01*
X169482520Y-77350850D01*
X169472030Y-77328671D01*
X169463765Y-77305572D01*
X169457804Y-77281773D01*
X169454204Y-77257505D01*
X169453000Y-77233001D01*
X169453000Y-75082999D01*
X169454204Y-75058495D01*
X169457804Y-75034227D01*
X169463765Y-75010428D01*
X169472030Y-74987329D01*
X169482520Y-74965150D01*
X169495132Y-74944107D01*
X169509747Y-74924401D01*
X169526223Y-74906223D01*
X169544401Y-74889747D01*
X169564107Y-74875132D01*
X169585150Y-74862520D01*
X169607329Y-74852030D01*
X169630428Y-74843765D01*
X169654227Y-74837804D01*
X169678495Y-74834204D01*
X169702999Y-74833000D01*
X170728001Y-74833000D01*
X170752505Y-74834204D01*
G37*
G36*
X166077505Y-74834204D02*
G01*
X166101773Y-74837804D01*
X166125572Y-74843765D01*
X166148671Y-74852030D01*
X166170850Y-74862520D01*
X166191893Y-74875132D01*
X166211599Y-74889747D01*
X166229777Y-74906223D01*
X166246253Y-74924401D01*
X166260868Y-74944107D01*
X166273480Y-74965150D01*
X166283970Y-74987329D01*
X166292235Y-75010428D01*
X166298196Y-75034227D01*
X166301796Y-75058495D01*
X166303000Y-75082999D01*
X166303000Y-77233001D01*
X166301796Y-77257505D01*
X166298196Y-77281773D01*
X166292235Y-77305572D01*
X166283970Y-77328671D01*
X166273480Y-77350850D01*
X166260868Y-77371893D01*
X166246253Y-77391599D01*
X166229777Y-77409777D01*
X166211599Y-77426253D01*
X166191893Y-77440868D01*
X166170850Y-77453480D01*
X166148671Y-77463970D01*
X166125572Y-77472235D01*
X166101773Y-77478196D01*
X166077505Y-77481796D01*
X166053001Y-77483000D01*
X165027999Y-77483000D01*
X165003495Y-77481796D01*
X164979227Y-77478196D01*
X164955428Y-77472235D01*
X164932329Y-77463970D01*
X164910150Y-77453480D01*
X164889107Y-77440868D01*
X164869401Y-77426253D01*
X164851223Y-77409777D01*
X164834747Y-77391599D01*
X164820132Y-77371893D01*
X164807520Y-77350850D01*
X164797030Y-77328671D01*
X164788765Y-77305572D01*
X164782804Y-77281773D01*
X164779204Y-77257505D01*
X164778000Y-77233001D01*
X164778000Y-75082999D01*
X164779204Y-75058495D01*
X164782804Y-75034227D01*
X164788765Y-75010428D01*
X164797030Y-74987329D01*
X164807520Y-74965150D01*
X164820132Y-74944107D01*
X164834747Y-74924401D01*
X164851223Y-74906223D01*
X164869401Y-74889747D01*
X164889107Y-74875132D01*
X164910150Y-74862520D01*
X164932329Y-74852030D01*
X164955428Y-74843765D01*
X164979227Y-74837804D01*
X165003495Y-74834204D01*
X165027999Y-74833000D01*
X166053001Y-74833000D01*
X166077505Y-74834204D01*
G37*
G36*
X170752505Y-78728204D02*
G01*
X170776773Y-78731804D01*
X170800572Y-78737765D01*
X170823671Y-78746030D01*
X170845850Y-78756520D01*
X170866893Y-78769132D01*
X170886599Y-78783747D01*
X170904777Y-78800223D01*
X170921253Y-78818401D01*
X170935868Y-78838107D01*
X170948480Y-78859150D01*
X170958970Y-78881329D01*
X170967235Y-78904428D01*
X170973196Y-78928227D01*
X170976796Y-78952495D01*
X170978000Y-78976999D01*
X170978000Y-81127001D01*
X170976796Y-81151505D01*
X170973196Y-81175773D01*
X170967235Y-81199572D01*
X170958970Y-81222671D01*
X170948480Y-81244850D01*
X170935868Y-81265893D01*
X170921253Y-81285599D01*
X170904777Y-81303777D01*
X170886599Y-81320253D01*
X170866893Y-81334868D01*
X170845850Y-81347480D01*
X170823671Y-81357970D01*
X170800572Y-81366235D01*
X170776773Y-81372196D01*
X170752505Y-81375796D01*
X170728001Y-81377000D01*
X169702999Y-81377000D01*
X169678495Y-81375796D01*
X169654227Y-81372196D01*
X169630428Y-81366235D01*
X169607329Y-81357970D01*
X169585150Y-81347480D01*
X169564107Y-81334868D01*
X169544401Y-81320253D01*
X169526223Y-81303777D01*
X169509747Y-81285599D01*
X169495132Y-81265893D01*
X169482520Y-81244850D01*
X169472030Y-81222671D01*
X169463765Y-81199572D01*
X169457804Y-81175773D01*
X169454204Y-81151505D01*
X169453000Y-81127001D01*
X169453000Y-78976999D01*
X169454204Y-78952495D01*
X169457804Y-78928227D01*
X169463765Y-78904428D01*
X169472030Y-78881329D01*
X169482520Y-78859150D01*
X169495132Y-78838107D01*
X169509747Y-78818401D01*
X169526223Y-78800223D01*
X169544401Y-78783747D01*
X169564107Y-78769132D01*
X169585150Y-78756520D01*
X169607329Y-78746030D01*
X169630428Y-78737765D01*
X169654227Y-78731804D01*
X169678495Y-78728204D01*
X169702999Y-78727000D01*
X170728001Y-78727000D01*
X170752505Y-78728204D01*
G37*
G36*
X166077505Y-78728204D02*
G01*
X166101773Y-78731804D01*
X166125572Y-78737765D01*
X166148671Y-78746030D01*
X166170850Y-78756520D01*
X166191893Y-78769132D01*
X166211599Y-78783747D01*
X166229777Y-78800223D01*
X166246253Y-78818401D01*
X166260868Y-78838107D01*
X166273480Y-78859150D01*
X166283970Y-78881329D01*
X166292235Y-78904428D01*
X166298196Y-78928227D01*
X166301796Y-78952495D01*
X166303000Y-78976999D01*
X166303000Y-81127001D01*
X166301796Y-81151505D01*
X166298196Y-81175773D01*
X166292235Y-81199572D01*
X166283970Y-81222671D01*
X166273480Y-81244850D01*
X166260868Y-81265893D01*
X166246253Y-81285599D01*
X166229777Y-81303777D01*
X166211599Y-81320253D01*
X166191893Y-81334868D01*
X166170850Y-81347480D01*
X166148671Y-81357970D01*
X166125572Y-81366235D01*
X166101773Y-81372196D01*
X166077505Y-81375796D01*
X166053001Y-81377000D01*
X165027999Y-81377000D01*
X165003495Y-81375796D01*
X164979227Y-81372196D01*
X164955428Y-81366235D01*
X164932329Y-81357970D01*
X164910150Y-81347480D01*
X164889107Y-81334868D01*
X164869401Y-81320253D01*
X164851223Y-81303777D01*
X164834747Y-81285599D01*
X164820132Y-81265893D01*
X164807520Y-81244850D01*
X164797030Y-81222671D01*
X164788765Y-81199572D01*
X164782804Y-81175773D01*
X164779204Y-81151505D01*
X164778000Y-81127001D01*
X164778000Y-78976999D01*
X164779204Y-78952495D01*
X164782804Y-78928227D01*
X164788765Y-78904428D01*
X164797030Y-78881329D01*
X164807520Y-78859150D01*
X164820132Y-78838107D01*
X164834747Y-78818401D01*
X164851223Y-78800223D01*
X164869401Y-78783747D01*
X164889107Y-78769132D01*
X164910150Y-78756520D01*
X164932329Y-78746030D01*
X164955428Y-78737765D01*
X164979227Y-78731804D01*
X165003495Y-78728204D01*
X165027999Y-78727000D01*
X166053001Y-78727000D01*
X166077505Y-78728204D01*
G37*
G36*
X170752505Y-82622204D02*
G01*
X170776773Y-82625804D01*
X170800572Y-82631765D01*
X170823671Y-82640030D01*
X170845850Y-82650520D01*
X170866893Y-82663132D01*
X170886599Y-82677747D01*
X170904777Y-82694223D01*
X170921253Y-82712401D01*
X170935868Y-82732107D01*
X170948480Y-82753150D01*
X170958970Y-82775329D01*
X170967235Y-82798428D01*
X170973196Y-82822227D01*
X170976796Y-82846495D01*
X170978000Y-82870999D01*
X170978000Y-85021001D01*
X170976796Y-85045505D01*
X170973196Y-85069773D01*
X170967235Y-85093572D01*
X170958970Y-85116671D01*
X170948480Y-85138850D01*
X170935868Y-85159893D01*
X170921253Y-85179599D01*
X170904777Y-85197777D01*
X170886599Y-85214253D01*
X170866893Y-85228868D01*
X170845850Y-85241480D01*
X170823671Y-85251970D01*
X170800572Y-85260235D01*
X170776773Y-85266196D01*
X170752505Y-85269796D01*
X170728001Y-85271000D01*
X169702999Y-85271000D01*
X169678495Y-85269796D01*
X169654227Y-85266196D01*
X169630428Y-85260235D01*
X169607329Y-85251970D01*
X169585150Y-85241480D01*
X169564107Y-85228868D01*
X169544401Y-85214253D01*
X169526223Y-85197777D01*
X169509747Y-85179599D01*
X169495132Y-85159893D01*
X169482520Y-85138850D01*
X169472030Y-85116671D01*
X169463765Y-85093572D01*
X169457804Y-85069773D01*
X169454204Y-85045505D01*
X169453000Y-85021001D01*
X169453000Y-82870999D01*
X169454204Y-82846495D01*
X169457804Y-82822227D01*
X169463765Y-82798428D01*
X169472030Y-82775329D01*
X169482520Y-82753150D01*
X169495132Y-82732107D01*
X169509747Y-82712401D01*
X169526223Y-82694223D01*
X169544401Y-82677747D01*
X169564107Y-82663132D01*
X169585150Y-82650520D01*
X169607329Y-82640030D01*
X169630428Y-82631765D01*
X169654227Y-82625804D01*
X169678495Y-82622204D01*
X169702999Y-82621000D01*
X170728001Y-82621000D01*
X170752505Y-82622204D01*
G37*
G36*
X166077505Y-82622204D02*
G01*
X166101773Y-82625804D01*
X166125572Y-82631765D01*
X166148671Y-82640030D01*
X166170850Y-82650520D01*
X166191893Y-82663132D01*
X166211599Y-82677747D01*
X166229777Y-82694223D01*
X166246253Y-82712401D01*
X166260868Y-82732107D01*
X166273480Y-82753150D01*
X166283970Y-82775329D01*
X166292235Y-82798428D01*
X166298196Y-82822227D01*
X166301796Y-82846495D01*
X166303000Y-82870999D01*
X166303000Y-85021001D01*
X166301796Y-85045505D01*
X166298196Y-85069773D01*
X166292235Y-85093572D01*
X166283970Y-85116671D01*
X166273480Y-85138850D01*
X166260868Y-85159893D01*
X166246253Y-85179599D01*
X166229777Y-85197777D01*
X166211599Y-85214253D01*
X166191893Y-85228868D01*
X166170850Y-85241480D01*
X166148671Y-85251970D01*
X166125572Y-85260235D01*
X166101773Y-85266196D01*
X166077505Y-85269796D01*
X166053001Y-85271000D01*
X165027999Y-85271000D01*
X165003495Y-85269796D01*
X164979227Y-85266196D01*
X164955428Y-85260235D01*
X164932329Y-85251970D01*
X164910150Y-85241480D01*
X164889107Y-85228868D01*
X164869401Y-85214253D01*
X164851223Y-85197777D01*
X164834747Y-85179599D01*
X164820132Y-85159893D01*
X164807520Y-85138850D01*
X164797030Y-85116671D01*
X164788765Y-85093572D01*
X164782804Y-85069773D01*
X164779204Y-85045505D01*
X164778000Y-85021001D01*
X164778000Y-82870999D01*
X164779204Y-82846495D01*
X164782804Y-82822227D01*
X164788765Y-82798428D01*
X164797030Y-82775329D01*
X164807520Y-82753150D01*
X164820132Y-82732107D01*
X164834747Y-82712401D01*
X164851223Y-82694223D01*
X164869401Y-82677747D01*
X164889107Y-82663132D01*
X164910150Y-82650520D01*
X164932329Y-82640030D01*
X164955428Y-82631765D01*
X164979227Y-82625804D01*
X165003495Y-82622204D01*
X165027999Y-82621000D01*
X166053001Y-82621000D01*
X166077505Y-82622204D01*
G37*
G36*
X170752505Y-86516204D02*
G01*
X170776773Y-86519804D01*
X170800572Y-86525765D01*
X170823671Y-86534030D01*
X170845850Y-86544520D01*
X170866893Y-86557132D01*
X170886599Y-86571747D01*
X170904777Y-86588223D01*
X170921253Y-86606401D01*
X170935868Y-86626107D01*
X170948480Y-86647150D01*
X170958970Y-86669329D01*
X170967235Y-86692428D01*
X170973196Y-86716227D01*
X170976796Y-86740495D01*
X170978000Y-86764999D01*
X170978000Y-88915001D01*
X170976796Y-88939505D01*
X170973196Y-88963773D01*
X170967235Y-88987572D01*
X170958970Y-89010671D01*
X170948480Y-89032850D01*
X170935868Y-89053893D01*
X170921253Y-89073599D01*
X170904777Y-89091777D01*
X170886599Y-89108253D01*
X170866893Y-89122868D01*
X170845850Y-89135480D01*
X170823671Y-89145970D01*
X170800572Y-89154235D01*
X170776773Y-89160196D01*
X170752505Y-89163796D01*
X170728001Y-89165000D01*
X169702999Y-89165000D01*
X169678495Y-89163796D01*
X169654227Y-89160196D01*
X169630428Y-89154235D01*
X169607329Y-89145970D01*
X169585150Y-89135480D01*
X169564107Y-89122868D01*
X169544401Y-89108253D01*
X169526223Y-89091777D01*
X169509747Y-89073599D01*
X169495132Y-89053893D01*
X169482520Y-89032850D01*
X169472030Y-89010671D01*
X169463765Y-88987572D01*
X169457804Y-88963773D01*
X169454204Y-88939505D01*
X169453000Y-88915001D01*
X169453000Y-86764999D01*
X169454204Y-86740495D01*
X169457804Y-86716227D01*
X169463765Y-86692428D01*
X169472030Y-86669329D01*
X169482520Y-86647150D01*
X169495132Y-86626107D01*
X169509747Y-86606401D01*
X169526223Y-86588223D01*
X169544401Y-86571747D01*
X169564107Y-86557132D01*
X169585150Y-86544520D01*
X169607329Y-86534030D01*
X169630428Y-86525765D01*
X169654227Y-86519804D01*
X169678495Y-86516204D01*
X169702999Y-86515000D01*
X170728001Y-86515000D01*
X170752505Y-86516204D01*
G37*
G36*
X166077505Y-86516204D02*
G01*
X166101773Y-86519804D01*
X166125572Y-86525765D01*
X166148671Y-86534030D01*
X166170850Y-86544520D01*
X166191893Y-86557132D01*
X166211599Y-86571747D01*
X166229777Y-86588223D01*
X166246253Y-86606401D01*
X166260868Y-86626107D01*
X166273480Y-86647150D01*
X166283970Y-86669329D01*
X166292235Y-86692428D01*
X166298196Y-86716227D01*
X166301796Y-86740495D01*
X166303000Y-86764999D01*
X166303000Y-88915001D01*
X166301796Y-88939505D01*
X166298196Y-88963773D01*
X166292235Y-88987572D01*
X166283970Y-89010671D01*
X166273480Y-89032850D01*
X166260868Y-89053893D01*
X166246253Y-89073599D01*
X166229777Y-89091777D01*
X166211599Y-89108253D01*
X166191893Y-89122868D01*
X166170850Y-89135480D01*
X166148671Y-89145970D01*
X166125572Y-89154235D01*
X166101773Y-89160196D01*
X166077505Y-89163796D01*
X166053001Y-89165000D01*
X165027999Y-89165000D01*
X165003495Y-89163796D01*
X164979227Y-89160196D01*
X164955428Y-89154235D01*
X164932329Y-89145970D01*
X164910150Y-89135480D01*
X164889107Y-89122868D01*
X164869401Y-89108253D01*
X164851223Y-89091777D01*
X164834747Y-89073599D01*
X164820132Y-89053893D01*
X164807520Y-89032850D01*
X164797030Y-89010671D01*
X164788765Y-88987572D01*
X164782804Y-88963773D01*
X164779204Y-88939505D01*
X164778000Y-88915001D01*
X164778000Y-86764999D01*
X164779204Y-86740495D01*
X164782804Y-86716227D01*
X164788765Y-86692428D01*
X164797030Y-86669329D01*
X164807520Y-86647150D01*
X164820132Y-86626107D01*
X164834747Y-86606401D01*
X164851223Y-86588223D01*
X164869401Y-86571747D01*
X164889107Y-86557132D01*
X164910150Y-86544520D01*
X164932329Y-86534030D01*
X164955428Y-86525765D01*
X164979227Y-86519804D01*
X165003495Y-86516204D01*
X165027999Y-86515000D01*
X166053001Y-86515000D01*
X166077505Y-86516204D01*
G37*
M02*
