G04 #@! TF.GenerationSoftware,KiCad,Pcbnew,5.1.5+dfsg1-2build2*
G04 #@! TF.CreationDate,2020-05-12T21:17:34+02:00*
G04 #@! TF.ProjectId,attach_hexa,61747461-6368-45f6-9865-78612e6b6963,rev?*
G04 #@! TF.SameCoordinates,Original*
G04 #@! TF.FileFunction,Legend,Bot*
G04 #@! TF.FilePolarity,Positive*
%FSLAX46Y46*%
G04 Gerber Fmt 4.6, Leading zero omitted, Abs format (unit mm)*
G04 Created by KiCad (PCBNEW 5.1.5+dfsg1-2build2) date 2020-05-12 21:17:34*
%MOMM*%
%LPD*%
G04 APERTURE LIST*
%ADD10C,0.010000*%
G04 APERTURE END LIST*
D10*
G36*
X202372601Y-81887833D02*
G01*
X202320036Y-81888368D01*
X202166012Y-81892084D01*
X202037018Y-81903123D01*
X201928656Y-81922670D01*
X201836531Y-81951907D01*
X201756246Y-81992021D01*
X201683405Y-82044193D01*
X201657388Y-82066857D01*
X201614230Y-82119886D01*
X201575314Y-82191845D01*
X201545320Y-82271608D01*
X201528928Y-82348049D01*
X201527225Y-82376296D01*
X201537898Y-82454598D01*
X201566500Y-82540129D01*
X201607904Y-82621087D01*
X201656988Y-82685670D01*
X201664960Y-82693462D01*
X201732493Y-82748232D01*
X201806445Y-82790987D01*
X201891081Y-82822847D01*
X201990664Y-82844932D01*
X202109459Y-82858362D01*
X202251727Y-82864258D01*
X202316893Y-82864758D01*
X202399748Y-82864359D01*
X202458016Y-82862690D01*
X202497163Y-82859046D01*
X202522656Y-82852717D01*
X202539961Y-82842998D01*
X202549237Y-82834698D01*
X202557999Y-82824616D01*
X202564872Y-82811609D01*
X202570085Y-82792193D01*
X202573866Y-82762884D01*
X202576444Y-82720197D01*
X202578047Y-82660649D01*
X202578904Y-82580754D01*
X202579244Y-82477029D01*
X202579296Y-82376296D01*
X202579627Y-82241943D01*
X202579555Y-82134616D01*
X202578277Y-82083219D01*
X202383912Y-82083219D01*
X202383912Y-82669373D01*
X202259918Y-82669259D01*
X202185308Y-82667120D01*
X202107165Y-82661607D01*
X202041967Y-82653896D01*
X202039983Y-82653579D01*
X201934610Y-82628102D01*
X201852879Y-82588424D01*
X201790709Y-82531962D01*
X201751207Y-82470830D01*
X201726867Y-82403017D01*
X201728754Y-82339343D01*
X201757002Y-82271089D01*
X201812255Y-82200480D01*
X201888820Y-82148159D01*
X201988342Y-82113187D01*
X202054854Y-82100810D01*
X202130354Y-82092118D01*
X202210372Y-82085828D01*
X202278431Y-82083212D01*
X202282462Y-82083200D01*
X202383912Y-82083219D01*
X202578277Y-82083219D01*
X202577483Y-82051305D01*
X202571808Y-81989003D01*
X202560934Y-81944699D01*
X202543261Y-81915384D01*
X202517190Y-81898049D01*
X202481122Y-81889685D01*
X202433459Y-81887283D01*
X202372601Y-81887833D01*
G37*
X202372601Y-81887833D02*
X202320036Y-81888368D01*
X202166012Y-81892084D01*
X202037018Y-81903123D01*
X201928656Y-81922670D01*
X201836531Y-81951907D01*
X201756246Y-81992021D01*
X201683405Y-82044193D01*
X201657388Y-82066857D01*
X201614230Y-82119886D01*
X201575314Y-82191845D01*
X201545320Y-82271608D01*
X201528928Y-82348049D01*
X201527225Y-82376296D01*
X201537898Y-82454598D01*
X201566500Y-82540129D01*
X201607904Y-82621087D01*
X201656988Y-82685670D01*
X201664960Y-82693462D01*
X201732493Y-82748232D01*
X201806445Y-82790987D01*
X201891081Y-82822847D01*
X201990664Y-82844932D01*
X202109459Y-82858362D01*
X202251727Y-82864258D01*
X202316893Y-82864758D01*
X202399748Y-82864359D01*
X202458016Y-82862690D01*
X202497163Y-82859046D01*
X202522656Y-82852717D01*
X202539961Y-82842998D01*
X202549237Y-82834698D01*
X202557999Y-82824616D01*
X202564872Y-82811609D01*
X202570085Y-82792193D01*
X202573866Y-82762884D01*
X202576444Y-82720197D01*
X202578047Y-82660649D01*
X202578904Y-82580754D01*
X202579244Y-82477029D01*
X202579296Y-82376296D01*
X202579627Y-82241943D01*
X202579555Y-82134616D01*
X202578277Y-82083219D01*
X202383912Y-82083219D01*
X202383912Y-82669373D01*
X202259918Y-82669259D01*
X202185308Y-82667120D01*
X202107165Y-82661607D01*
X202041967Y-82653896D01*
X202039983Y-82653579D01*
X201934610Y-82628102D01*
X201852879Y-82588424D01*
X201790709Y-82531962D01*
X201751207Y-82470830D01*
X201726867Y-82403017D01*
X201728754Y-82339343D01*
X201757002Y-82271089D01*
X201812255Y-82200480D01*
X201888820Y-82148159D01*
X201988342Y-82113187D01*
X202054854Y-82100810D01*
X202130354Y-82092118D01*
X202210372Y-82085828D01*
X202278431Y-82083212D01*
X202282462Y-82083200D01*
X202383912Y-82083219D01*
X202578277Y-82083219D01*
X202577483Y-82051305D01*
X202571808Y-81989003D01*
X202560934Y-81944699D01*
X202543261Y-81915384D01*
X202517190Y-81898049D01*
X202481122Y-81889685D01*
X202433459Y-81887283D01*
X202372601Y-81887833D01*
G36*
X200497277Y-81887940D02*
G01*
X200404869Y-81888436D01*
X200335120Y-81889589D01*
X200284330Y-81891668D01*
X200248798Y-81894939D01*
X200224825Y-81899671D01*
X200208711Y-81906131D01*
X200196756Y-81914587D01*
X200192426Y-81918479D01*
X200166098Y-81959828D01*
X200161358Y-82007340D01*
X200178677Y-82049519D01*
X200186686Y-82058044D01*
X200199639Y-82066309D01*
X200220495Y-82072685D01*
X200253123Y-82077483D01*
X200301389Y-82081012D01*
X200369161Y-82083582D01*
X200460307Y-82085505D01*
X200543638Y-82086675D01*
X200873439Y-82090734D01*
X200882453Y-82263574D01*
X200658589Y-82263574D01*
X200561401Y-82264413D01*
X200490250Y-82267920D01*
X200441138Y-82275583D01*
X200410064Y-82288891D01*
X200393031Y-82309329D01*
X200386039Y-82338387D01*
X200384977Y-82365355D01*
X200388277Y-82398445D01*
X200400730Y-82422828D01*
X200426167Y-82439777D01*
X200468418Y-82450567D01*
X200531313Y-82456472D01*
X200618682Y-82458765D01*
X200666368Y-82458959D01*
X200880953Y-82458959D01*
X200880953Y-82669373D01*
X200550302Y-82669373D01*
X200441917Y-82669524D01*
X200359544Y-82670202D01*
X200299136Y-82671744D01*
X200256646Y-82674487D01*
X200228028Y-82678769D01*
X200209235Y-82684927D01*
X200196221Y-82693297D01*
X200189592Y-82699432D01*
X200166854Y-82735237D01*
X200159533Y-82767065D01*
X200169986Y-82805942D01*
X200189592Y-82834698D01*
X200200052Y-82843751D01*
X200213555Y-82850781D01*
X200233733Y-82856042D01*
X200264218Y-82859789D01*
X200308642Y-82862278D01*
X200370638Y-82863763D01*
X200453838Y-82864499D01*
X200561874Y-82864742D01*
X200617936Y-82864758D01*
X200737991Y-82864651D01*
X200831621Y-82864163D01*
X200902456Y-82863037D01*
X200954128Y-82861019D01*
X200990270Y-82857854D01*
X201014515Y-82853287D01*
X201030494Y-82847064D01*
X201041840Y-82838928D01*
X201046279Y-82834698D01*
X201055064Y-82824584D01*
X201061951Y-82811536D01*
X201067168Y-82792058D01*
X201070946Y-82762652D01*
X201073517Y-82719822D01*
X201075111Y-82660072D01*
X201075958Y-82579905D01*
X201076289Y-82475825D01*
X201076338Y-82378916D01*
X201076293Y-82254811D01*
X201075981Y-82157254D01*
X201075135Y-82082734D01*
X201073489Y-82027739D01*
X201070776Y-81988758D01*
X201066730Y-81962281D01*
X201061084Y-81944794D01*
X201053573Y-81932788D01*
X201043929Y-81922751D01*
X201041553Y-81920514D01*
X201030022Y-81910607D01*
X201016625Y-81902936D01*
X200997643Y-81897214D01*
X200969362Y-81893156D01*
X200928065Y-81890476D01*
X200870035Y-81888890D01*
X200791556Y-81888112D01*
X200688913Y-81887856D01*
X200616043Y-81887834D01*
X200497277Y-81887940D01*
G37*
X200497277Y-81887940D02*
X200404869Y-81888436D01*
X200335120Y-81889589D01*
X200284330Y-81891668D01*
X200248798Y-81894939D01*
X200224825Y-81899671D01*
X200208711Y-81906131D01*
X200196756Y-81914587D01*
X200192426Y-81918479D01*
X200166098Y-81959828D01*
X200161358Y-82007340D01*
X200178677Y-82049519D01*
X200186686Y-82058044D01*
X200199639Y-82066309D01*
X200220495Y-82072685D01*
X200253123Y-82077483D01*
X200301389Y-82081012D01*
X200369161Y-82083582D01*
X200460307Y-82085505D01*
X200543638Y-82086675D01*
X200873439Y-82090734D01*
X200882453Y-82263574D01*
X200658589Y-82263574D01*
X200561401Y-82264413D01*
X200490250Y-82267920D01*
X200441138Y-82275583D01*
X200410064Y-82288891D01*
X200393031Y-82309329D01*
X200386039Y-82338387D01*
X200384977Y-82365355D01*
X200388277Y-82398445D01*
X200400730Y-82422828D01*
X200426167Y-82439777D01*
X200468418Y-82450567D01*
X200531313Y-82456472D01*
X200618682Y-82458765D01*
X200666368Y-82458959D01*
X200880953Y-82458959D01*
X200880953Y-82669373D01*
X200550302Y-82669373D01*
X200441917Y-82669524D01*
X200359544Y-82670202D01*
X200299136Y-82671744D01*
X200256646Y-82674487D01*
X200228028Y-82678769D01*
X200209235Y-82684927D01*
X200196221Y-82693297D01*
X200189592Y-82699432D01*
X200166854Y-82735237D01*
X200159533Y-82767065D01*
X200169986Y-82805942D01*
X200189592Y-82834698D01*
X200200052Y-82843751D01*
X200213555Y-82850781D01*
X200233733Y-82856042D01*
X200264218Y-82859789D01*
X200308642Y-82862278D01*
X200370638Y-82863763D01*
X200453838Y-82864499D01*
X200561874Y-82864742D01*
X200617936Y-82864758D01*
X200737991Y-82864651D01*
X200831621Y-82864163D01*
X200902456Y-82863037D01*
X200954128Y-82861019D01*
X200990270Y-82857854D01*
X201014515Y-82853287D01*
X201030494Y-82847064D01*
X201041840Y-82838928D01*
X201046279Y-82834698D01*
X201055064Y-82824584D01*
X201061951Y-82811536D01*
X201067168Y-82792058D01*
X201070946Y-82762652D01*
X201073517Y-82719822D01*
X201075111Y-82660072D01*
X201075958Y-82579905D01*
X201076289Y-82475825D01*
X201076338Y-82378916D01*
X201076293Y-82254811D01*
X201075981Y-82157254D01*
X201075135Y-82082734D01*
X201073489Y-82027739D01*
X201070776Y-81988758D01*
X201066730Y-81962281D01*
X201061084Y-81944794D01*
X201053573Y-81932788D01*
X201043929Y-81922751D01*
X201041553Y-81920514D01*
X201030022Y-81910607D01*
X201016625Y-81902936D01*
X200997643Y-81897214D01*
X200969362Y-81893156D01*
X200928065Y-81890476D01*
X200870035Y-81888890D01*
X200791556Y-81888112D01*
X200688913Y-81887856D01*
X200616043Y-81887834D01*
X200497277Y-81887940D01*
G36*
X199137835Y-81889545D02*
G01*
X199038230Y-81896508D01*
X198945591Y-81907383D01*
X198865305Y-81921762D01*
X198802755Y-81939234D01*
X198763328Y-81959390D01*
X198757276Y-81965323D01*
X198736231Y-82011363D01*
X198742613Y-82058628D01*
X198775254Y-82099066D01*
X198776811Y-82100225D01*
X198796010Y-82112685D01*
X198816052Y-82119237D01*
X198844007Y-82120032D01*
X198886946Y-82115224D01*
X198951938Y-82104963D01*
X198957166Y-82104099D01*
X199054008Y-82092202D01*
X199158491Y-82086333D01*
X199263282Y-82086276D01*
X199361049Y-82091815D01*
X199444459Y-82102733D01*
X199506180Y-82118813D01*
X199510235Y-82120429D01*
X199555011Y-82145517D01*
X199570743Y-82170906D01*
X199558427Y-82195875D01*
X199519062Y-82219704D01*
X199453645Y-82241670D01*
X199363173Y-82261054D01*
X199302847Y-82270386D01*
X199177447Y-82288337D01*
X199077712Y-82304747D01*
X198999393Y-82321036D01*
X198938240Y-82338626D01*
X198890006Y-82358937D01*
X198850442Y-82383391D01*
X198815299Y-82413408D01*
X198787058Y-82442884D01*
X198753555Y-82483955D01*
X198737066Y-82519270D01*
X198731910Y-82562781D01*
X198731723Y-82578716D01*
X198735595Y-82631593D01*
X198751074Y-82670931D01*
X198777862Y-82705848D01*
X198832306Y-82759222D01*
X198893017Y-82799926D01*
X198964505Y-82829288D01*
X199051283Y-82848635D01*
X199157861Y-82859294D01*
X199288750Y-82862593D01*
X199310362Y-82862537D01*
X199397645Y-82860728D01*
X199484206Y-82856617D01*
X199560609Y-82850794D01*
X199617417Y-82843849D01*
X199622011Y-82843052D01*
X199678492Y-82829672D01*
X199726399Y-82812770D01*
X199753520Y-82797319D01*
X199778758Y-82756554D01*
X199780516Y-82709086D01*
X199758759Y-82666783D01*
X199753891Y-82662000D01*
X199733769Y-82647787D01*
X199708605Y-82641664D01*
X199669660Y-82642706D01*
X199622382Y-82648122D01*
X199569552Y-82652961D01*
X199495495Y-82657043D01*
X199409038Y-82660006D01*
X199319010Y-82661485D01*
X199295332Y-82661582D01*
X199204969Y-82661218D01*
X199138836Y-82659464D01*
X199091114Y-82655711D01*
X199055985Y-82649351D01*
X199027629Y-82639775D01*
X199010588Y-82631799D01*
X198973143Y-82609653D01*
X198949268Y-82589596D01*
X198945779Y-82583911D01*
X198953140Y-82560433D01*
X198988134Y-82537705D01*
X199048335Y-82516758D01*
X199131318Y-82498624D01*
X199155767Y-82494585D01*
X199283469Y-82474527D01*
X199385387Y-82457762D01*
X199465453Y-82443071D01*
X199527601Y-82429236D01*
X199575765Y-82415039D01*
X199613879Y-82399261D01*
X199645877Y-82380684D01*
X199675691Y-82358090D01*
X199707257Y-82330261D01*
X199717879Y-82320504D01*
X199755120Y-82284090D01*
X199774834Y-82255240D01*
X199782546Y-82222226D01*
X199783794Y-82180623D01*
X199770062Y-82099039D01*
X199729025Y-82029722D01*
X199660917Y-81972896D01*
X199565974Y-81928785D01*
X199498231Y-81909000D01*
X199424606Y-81896221D01*
X199336408Y-81888992D01*
X199239023Y-81886903D01*
X199137835Y-81889545D01*
G37*
X199137835Y-81889545D02*
X199038230Y-81896508D01*
X198945591Y-81907383D01*
X198865305Y-81921762D01*
X198802755Y-81939234D01*
X198763328Y-81959390D01*
X198757276Y-81965323D01*
X198736231Y-82011363D01*
X198742613Y-82058628D01*
X198775254Y-82099066D01*
X198776811Y-82100225D01*
X198796010Y-82112685D01*
X198816052Y-82119237D01*
X198844007Y-82120032D01*
X198886946Y-82115224D01*
X198951938Y-82104963D01*
X198957166Y-82104099D01*
X199054008Y-82092202D01*
X199158491Y-82086333D01*
X199263282Y-82086276D01*
X199361049Y-82091815D01*
X199444459Y-82102733D01*
X199506180Y-82118813D01*
X199510235Y-82120429D01*
X199555011Y-82145517D01*
X199570743Y-82170906D01*
X199558427Y-82195875D01*
X199519062Y-82219704D01*
X199453645Y-82241670D01*
X199363173Y-82261054D01*
X199302847Y-82270386D01*
X199177447Y-82288337D01*
X199077712Y-82304747D01*
X198999393Y-82321036D01*
X198938240Y-82338626D01*
X198890006Y-82358937D01*
X198850442Y-82383391D01*
X198815299Y-82413408D01*
X198787058Y-82442884D01*
X198753555Y-82483955D01*
X198737066Y-82519270D01*
X198731910Y-82562781D01*
X198731723Y-82578716D01*
X198735595Y-82631593D01*
X198751074Y-82670931D01*
X198777862Y-82705848D01*
X198832306Y-82759222D01*
X198893017Y-82799926D01*
X198964505Y-82829288D01*
X199051283Y-82848635D01*
X199157861Y-82859294D01*
X199288750Y-82862593D01*
X199310362Y-82862537D01*
X199397645Y-82860728D01*
X199484206Y-82856617D01*
X199560609Y-82850794D01*
X199617417Y-82843849D01*
X199622011Y-82843052D01*
X199678492Y-82829672D01*
X199726399Y-82812770D01*
X199753520Y-82797319D01*
X199778758Y-82756554D01*
X199780516Y-82709086D01*
X199758759Y-82666783D01*
X199753891Y-82662000D01*
X199733769Y-82647787D01*
X199708605Y-82641664D01*
X199669660Y-82642706D01*
X199622382Y-82648122D01*
X199569552Y-82652961D01*
X199495495Y-82657043D01*
X199409038Y-82660006D01*
X199319010Y-82661485D01*
X199295332Y-82661582D01*
X199204969Y-82661218D01*
X199138836Y-82659464D01*
X199091114Y-82655711D01*
X199055985Y-82649351D01*
X199027629Y-82639775D01*
X199010588Y-82631799D01*
X198973143Y-82609653D01*
X198949268Y-82589596D01*
X198945779Y-82583911D01*
X198953140Y-82560433D01*
X198988134Y-82537705D01*
X199048335Y-82516758D01*
X199131318Y-82498624D01*
X199155767Y-82494585D01*
X199283469Y-82474527D01*
X199385387Y-82457762D01*
X199465453Y-82443071D01*
X199527601Y-82429236D01*
X199575765Y-82415039D01*
X199613879Y-82399261D01*
X199645877Y-82380684D01*
X199675691Y-82358090D01*
X199707257Y-82330261D01*
X199717879Y-82320504D01*
X199755120Y-82284090D01*
X199774834Y-82255240D01*
X199782546Y-82222226D01*
X199783794Y-82180623D01*
X199770062Y-82099039D01*
X199729025Y-82029722D01*
X199660917Y-81972896D01*
X199565974Y-81928785D01*
X199498231Y-81909000D01*
X199424606Y-81896221D01*
X199336408Y-81888992D01*
X199239023Y-81886903D01*
X199137835Y-81889545D01*
G36*
X198115510Y-81917894D02*
G01*
X198106748Y-81927976D01*
X198099875Y-81940983D01*
X198094662Y-81960399D01*
X198090881Y-81989708D01*
X198088303Y-82032395D01*
X198086700Y-82091943D01*
X198085842Y-82171838D01*
X198085503Y-82275564D01*
X198085450Y-82376296D01*
X198085543Y-82501240D01*
X198085974Y-82599609D01*
X198086970Y-82674889D01*
X198088762Y-82730562D01*
X198091576Y-82770114D01*
X198095643Y-82797029D01*
X198101189Y-82814791D01*
X198108444Y-82826885D01*
X198115510Y-82834698D01*
X198159449Y-82860900D01*
X198206267Y-82858549D01*
X198248156Y-82829972D01*
X198257781Y-82818815D01*
X198265302Y-82805871D01*
X198270981Y-82787560D01*
X198275074Y-82760306D01*
X198277842Y-82720528D01*
X198279543Y-82664650D01*
X198280436Y-82589092D01*
X198280780Y-82490276D01*
X198280835Y-82378402D01*
X198280835Y-81961616D01*
X198243944Y-81924725D01*
X198198472Y-81893688D01*
X198154363Y-81892569D01*
X198115510Y-81917894D01*
G37*
X198115510Y-81917894D02*
X198106748Y-81927976D01*
X198099875Y-81940983D01*
X198094662Y-81960399D01*
X198090881Y-81989708D01*
X198088303Y-82032395D01*
X198086700Y-82091943D01*
X198085842Y-82171838D01*
X198085503Y-82275564D01*
X198085450Y-82376296D01*
X198085543Y-82501240D01*
X198085974Y-82599609D01*
X198086970Y-82674889D01*
X198088762Y-82730562D01*
X198091576Y-82770114D01*
X198095643Y-82797029D01*
X198101189Y-82814791D01*
X198108444Y-82826885D01*
X198115510Y-82834698D01*
X198159449Y-82860900D01*
X198206267Y-82858549D01*
X198248156Y-82829972D01*
X198257781Y-82818815D01*
X198265302Y-82805871D01*
X198270981Y-82787560D01*
X198275074Y-82760306D01*
X198277842Y-82720528D01*
X198279543Y-82664650D01*
X198280436Y-82589092D01*
X198280780Y-82490276D01*
X198280835Y-82378402D01*
X198280835Y-81961616D01*
X198243944Y-81924725D01*
X198198472Y-81893688D01*
X198154363Y-81892569D01*
X198115510Y-81917894D01*
G36*
X196819109Y-81895200D02*
G01*
X196727888Y-81910506D01*
X196657829Y-81934299D01*
X196612251Y-81965628D01*
X196599831Y-81983502D01*
X196587201Y-82025073D01*
X196595700Y-82062680D01*
X196622532Y-82098343D01*
X196664223Y-82115027D01*
X196724717Y-82113672D01*
X196771506Y-82104633D01*
X196875475Y-82087411D01*
X196981727Y-82085775D01*
X197100656Y-82099753D01*
X197133507Y-82105676D01*
X197244092Y-82136855D01*
X197330606Y-82183234D01*
X197392100Y-82244023D01*
X197427625Y-82318432D01*
X197434972Y-82356902D01*
X197430163Y-82434951D01*
X197399113Y-82504005D01*
X197344653Y-82562717D01*
X197269611Y-82609741D01*
X197176817Y-82643731D01*
X197069099Y-82663342D01*
X196949288Y-82667229D01*
X196820212Y-82654044D01*
X196812924Y-82652800D01*
X196761585Y-82643238D01*
X196733119Y-82634002D01*
X196720781Y-82620297D01*
X196717825Y-82597330D01*
X196717758Y-82585167D01*
X196717758Y-82534107D01*
X196808924Y-82534107D01*
X196889429Y-82528592D01*
X196944368Y-82511018D01*
X196976333Y-82479841D01*
X196987919Y-82433518D01*
X196988060Y-82427472D01*
X196981282Y-82387877D01*
X196958038Y-82359605D01*
X196914777Y-82340895D01*
X196847948Y-82329988D01*
X196783217Y-82325978D01*
X196689134Y-82323677D01*
X196620891Y-82327188D01*
X196574348Y-82340143D01*
X196545365Y-82366174D01*
X196529802Y-82408915D01*
X196523518Y-82471998D01*
X196522373Y-82554852D01*
X196524249Y-82647334D01*
X196529893Y-82710242D01*
X196539329Y-82743827D01*
X196541160Y-82746457D01*
X196592972Y-82788422D01*
X196668937Y-82821656D01*
X196764239Y-82845447D01*
X196874063Y-82859087D01*
X196993593Y-82861866D01*
X197118013Y-82853073D01*
X197191190Y-82842273D01*
X197305967Y-82809786D01*
X197412643Y-82756674D01*
X197501958Y-82687743D01*
X197515533Y-82673966D01*
X197559639Y-82616046D01*
X197599436Y-82544264D01*
X197630274Y-82469007D01*
X197647504Y-82400665D01*
X197649581Y-82374417D01*
X197640740Y-82319665D01*
X197617242Y-82251543D01*
X197583596Y-82179838D01*
X197544311Y-82114337D01*
X197509602Y-82070586D01*
X197428450Y-82005507D01*
X197323545Y-81953709D01*
X197198647Y-81916362D01*
X197057514Y-81894641D01*
X196928172Y-81889333D01*
X196819109Y-81895200D01*
G37*
X196819109Y-81895200D02*
X196727888Y-81910506D01*
X196657829Y-81934299D01*
X196612251Y-81965628D01*
X196599831Y-81983502D01*
X196587201Y-82025073D01*
X196595700Y-82062680D01*
X196622532Y-82098343D01*
X196664223Y-82115027D01*
X196724717Y-82113672D01*
X196771506Y-82104633D01*
X196875475Y-82087411D01*
X196981727Y-82085775D01*
X197100656Y-82099753D01*
X197133507Y-82105676D01*
X197244092Y-82136855D01*
X197330606Y-82183234D01*
X197392100Y-82244023D01*
X197427625Y-82318432D01*
X197434972Y-82356902D01*
X197430163Y-82434951D01*
X197399113Y-82504005D01*
X197344653Y-82562717D01*
X197269611Y-82609741D01*
X197176817Y-82643731D01*
X197069099Y-82663342D01*
X196949288Y-82667229D01*
X196820212Y-82654044D01*
X196812924Y-82652800D01*
X196761585Y-82643238D01*
X196733119Y-82634002D01*
X196720781Y-82620297D01*
X196717825Y-82597330D01*
X196717758Y-82585167D01*
X196717758Y-82534107D01*
X196808924Y-82534107D01*
X196889429Y-82528592D01*
X196944368Y-82511018D01*
X196976333Y-82479841D01*
X196987919Y-82433518D01*
X196988060Y-82427472D01*
X196981282Y-82387877D01*
X196958038Y-82359605D01*
X196914777Y-82340895D01*
X196847948Y-82329988D01*
X196783217Y-82325978D01*
X196689134Y-82323677D01*
X196620891Y-82327188D01*
X196574348Y-82340143D01*
X196545365Y-82366174D01*
X196529802Y-82408915D01*
X196523518Y-82471998D01*
X196522373Y-82554852D01*
X196524249Y-82647334D01*
X196529893Y-82710242D01*
X196539329Y-82743827D01*
X196541160Y-82746457D01*
X196592972Y-82788422D01*
X196668937Y-82821656D01*
X196764239Y-82845447D01*
X196874063Y-82859087D01*
X196993593Y-82861866D01*
X197118013Y-82853073D01*
X197191190Y-82842273D01*
X197305967Y-82809786D01*
X197412643Y-82756674D01*
X197501958Y-82687743D01*
X197515533Y-82673966D01*
X197559639Y-82616046D01*
X197599436Y-82544264D01*
X197630274Y-82469007D01*
X197647504Y-82400665D01*
X197649581Y-82374417D01*
X197640740Y-82319665D01*
X197617242Y-82251543D01*
X197583596Y-82179838D01*
X197544311Y-82114337D01*
X197509602Y-82070586D01*
X197428450Y-82005507D01*
X197323545Y-81953709D01*
X197198647Y-81916362D01*
X197057514Y-81894641D01*
X196928172Y-81889333D01*
X196819109Y-81895200D01*
G36*
X195953767Y-81893668D02*
G01*
X195922392Y-81912073D01*
X195881369Y-81942173D01*
X195828571Y-81985384D01*
X195761872Y-82043126D01*
X195679146Y-82116816D01*
X195578267Y-82207872D01*
X195462788Y-82312562D01*
X195222314Y-82530631D01*
X195214799Y-82237932D01*
X195212086Y-82137178D01*
X195209469Y-82062146D01*
X195206367Y-82008508D01*
X195202203Y-81971934D01*
X195196398Y-81948095D01*
X195188371Y-81932662D01*
X195177544Y-81921306D01*
X195171803Y-81916534D01*
X195125830Y-81891301D01*
X195082084Y-81894990D01*
X195047382Y-81916547D01*
X195011900Y-81945259D01*
X195007487Y-82364574D01*
X195006266Y-82487895D01*
X195005644Y-82584772D01*
X195005837Y-82658818D01*
X195007061Y-82713645D01*
X195009531Y-82752867D01*
X195013461Y-82780097D01*
X195019067Y-82798947D01*
X195026565Y-82813029D01*
X195034880Y-82824323D01*
X195052869Y-82845270D01*
X195070768Y-82859155D01*
X195091059Y-82864484D01*
X195116225Y-82859764D01*
X195148747Y-82843501D01*
X195191110Y-82814201D01*
X195245795Y-82770370D01*
X195315284Y-82710515D01*
X195402062Y-82633142D01*
X195500362Y-82544238D01*
X195853557Y-82223859D01*
X195861072Y-82515601D01*
X195863790Y-82616171D01*
X195866414Y-82691028D01*
X195869526Y-82744508D01*
X195873709Y-82780950D01*
X195879544Y-82804692D01*
X195887613Y-82820070D01*
X195898498Y-82831424D01*
X195904068Y-82836050D01*
X195953303Y-82861466D01*
X195999824Y-82857633D01*
X196040336Y-82825157D01*
X196049603Y-82812091D01*
X196056826Y-82796833D01*
X196062259Y-82775720D01*
X196066155Y-82745093D01*
X196068768Y-82701290D01*
X196070354Y-82640651D01*
X196071165Y-82559515D01*
X196071455Y-82454221D01*
X196071486Y-82376296D01*
X196071388Y-82254412D01*
X196070926Y-82158927D01*
X196069844Y-82086179D01*
X196067890Y-82032507D01*
X196064809Y-81994251D01*
X196060347Y-81967751D01*
X196054250Y-81949344D01*
X196046264Y-81935372D01*
X196040336Y-81927435D01*
X196025309Y-81908636D01*
X196011265Y-81894441D01*
X195996077Y-81886270D01*
X195977620Y-81885540D01*
X195953767Y-81893668D01*
G37*
X195953767Y-81893668D02*
X195922392Y-81912073D01*
X195881369Y-81942173D01*
X195828571Y-81985384D01*
X195761872Y-82043126D01*
X195679146Y-82116816D01*
X195578267Y-82207872D01*
X195462788Y-82312562D01*
X195222314Y-82530631D01*
X195214799Y-82237932D01*
X195212086Y-82137178D01*
X195209469Y-82062146D01*
X195206367Y-82008508D01*
X195202203Y-81971934D01*
X195196398Y-81948095D01*
X195188371Y-81932662D01*
X195177544Y-81921306D01*
X195171803Y-81916534D01*
X195125830Y-81891301D01*
X195082084Y-81894990D01*
X195047382Y-81916547D01*
X195011900Y-81945259D01*
X195007487Y-82364574D01*
X195006266Y-82487895D01*
X195005644Y-82584772D01*
X195005837Y-82658818D01*
X195007061Y-82713645D01*
X195009531Y-82752867D01*
X195013461Y-82780097D01*
X195019067Y-82798947D01*
X195026565Y-82813029D01*
X195034880Y-82824323D01*
X195052869Y-82845270D01*
X195070768Y-82859155D01*
X195091059Y-82864484D01*
X195116225Y-82859764D01*
X195148747Y-82843501D01*
X195191110Y-82814201D01*
X195245795Y-82770370D01*
X195315284Y-82710515D01*
X195402062Y-82633142D01*
X195500362Y-82544238D01*
X195853557Y-82223859D01*
X195861072Y-82515601D01*
X195863790Y-82616171D01*
X195866414Y-82691028D01*
X195869526Y-82744508D01*
X195873709Y-82780950D01*
X195879544Y-82804692D01*
X195887613Y-82820070D01*
X195898498Y-82831424D01*
X195904068Y-82836050D01*
X195953303Y-82861466D01*
X195999824Y-82857633D01*
X196040336Y-82825157D01*
X196049603Y-82812091D01*
X196056826Y-82796833D01*
X196062259Y-82775720D01*
X196066155Y-82745093D01*
X196068768Y-82701290D01*
X196070354Y-82640651D01*
X196071165Y-82559515D01*
X196071455Y-82454221D01*
X196071486Y-82376296D01*
X196071388Y-82254412D01*
X196070926Y-82158927D01*
X196069844Y-82086179D01*
X196067890Y-82032507D01*
X196064809Y-81994251D01*
X196060347Y-81967751D01*
X196054250Y-81949344D01*
X196046264Y-81935372D01*
X196040336Y-81927435D01*
X196025309Y-81908636D01*
X196011265Y-81894441D01*
X195996077Y-81886270D01*
X195977620Y-81885540D01*
X195953767Y-81893668D01*
G36*
X193916177Y-81888091D02*
G01*
X193814516Y-81889308D01*
X193736611Y-81892154D01*
X193679312Y-81897298D01*
X193639466Y-81905408D01*
X193613925Y-81917155D01*
X193599536Y-81933206D01*
X193593148Y-81954232D01*
X193591612Y-81980900D01*
X193591604Y-81984050D01*
X193592938Y-82014214D01*
X193599242Y-82037527D01*
X193613971Y-82054930D01*
X193640578Y-82067364D01*
X193682519Y-82075769D01*
X193743247Y-82081089D01*
X193826217Y-82084263D01*
X193934882Y-82086233D01*
X193968188Y-82086669D01*
X194290480Y-82090734D01*
X194294987Y-82177154D01*
X194299495Y-82263574D01*
X194075630Y-82263574D01*
X193988172Y-82263897D01*
X193925724Y-82265261D01*
X193883239Y-82268263D01*
X193855670Y-82273497D01*
X193837971Y-82281559D01*
X193825096Y-82293044D01*
X193825013Y-82293135D01*
X193801663Y-82337895D01*
X193802507Y-82386271D01*
X193827014Y-82427510D01*
X193831864Y-82431749D01*
X193849078Y-82442673D01*
X193872667Y-82450273D01*
X193907886Y-82455121D01*
X193959993Y-82457790D01*
X194034243Y-82458852D01*
X194081731Y-82458959D01*
X194297995Y-82458959D01*
X194297995Y-82669373D01*
X193969673Y-82669373D01*
X193861275Y-82669563D01*
X193778958Y-82670338D01*
X193718744Y-82672008D01*
X193676658Y-82674882D01*
X193648722Y-82679271D01*
X193630959Y-82685483D01*
X193619393Y-82693828D01*
X193616478Y-82696858D01*
X193594957Y-82738858D01*
X193593383Y-82786638D01*
X193611038Y-82828066D01*
X193625008Y-82841361D01*
X193639539Y-82848680D01*
X193662055Y-82854343D01*
X193696117Y-82858547D01*
X193745286Y-82861492D01*
X193813125Y-82863375D01*
X193903195Y-82864394D01*
X194019056Y-82864749D01*
X194045250Y-82864758D01*
X194163054Y-82864680D01*
X194254497Y-82864255D01*
X194323279Y-82863190D01*
X194373097Y-82861193D01*
X194407653Y-82857974D01*
X194430643Y-82853240D01*
X194445767Y-82846701D01*
X194456724Y-82838065D01*
X194462735Y-82831864D01*
X194471783Y-82820881D01*
X194478851Y-82807276D01*
X194484184Y-82787480D01*
X194488025Y-82757926D01*
X194490618Y-82715045D01*
X194492206Y-82655269D01*
X194493032Y-82575031D01*
X194493341Y-82470763D01*
X194493379Y-82383004D01*
X194493285Y-82260032D01*
X194492836Y-82163493D01*
X194491785Y-82089763D01*
X194489883Y-82035214D01*
X194486884Y-81996223D01*
X194482538Y-81969163D01*
X194476599Y-81950408D01*
X194468818Y-81936334D01*
X194462229Y-81927435D01*
X194431079Y-81887834D01*
X194044745Y-81887834D01*
X193916177Y-81888091D01*
G37*
X193916177Y-81888091D02*
X193814516Y-81889308D01*
X193736611Y-81892154D01*
X193679312Y-81897298D01*
X193639466Y-81905408D01*
X193613925Y-81917155D01*
X193599536Y-81933206D01*
X193593148Y-81954232D01*
X193591612Y-81980900D01*
X193591604Y-81984050D01*
X193592938Y-82014214D01*
X193599242Y-82037527D01*
X193613971Y-82054930D01*
X193640578Y-82067364D01*
X193682519Y-82075769D01*
X193743247Y-82081089D01*
X193826217Y-82084263D01*
X193934882Y-82086233D01*
X193968188Y-82086669D01*
X194290480Y-82090734D01*
X194294987Y-82177154D01*
X194299495Y-82263574D01*
X194075630Y-82263574D01*
X193988172Y-82263897D01*
X193925724Y-82265261D01*
X193883239Y-82268263D01*
X193855670Y-82273497D01*
X193837971Y-82281559D01*
X193825096Y-82293044D01*
X193825013Y-82293135D01*
X193801663Y-82337895D01*
X193802507Y-82386271D01*
X193827014Y-82427510D01*
X193831864Y-82431749D01*
X193849078Y-82442673D01*
X193872667Y-82450273D01*
X193907886Y-82455121D01*
X193959993Y-82457790D01*
X194034243Y-82458852D01*
X194081731Y-82458959D01*
X194297995Y-82458959D01*
X194297995Y-82669373D01*
X193969673Y-82669373D01*
X193861275Y-82669563D01*
X193778958Y-82670338D01*
X193718744Y-82672008D01*
X193676658Y-82674882D01*
X193648722Y-82679271D01*
X193630959Y-82685483D01*
X193619393Y-82693828D01*
X193616478Y-82696858D01*
X193594957Y-82738858D01*
X193593383Y-82786638D01*
X193611038Y-82828066D01*
X193625008Y-82841361D01*
X193639539Y-82848680D01*
X193662055Y-82854343D01*
X193696117Y-82858547D01*
X193745286Y-82861492D01*
X193813125Y-82863375D01*
X193903195Y-82864394D01*
X194019056Y-82864749D01*
X194045250Y-82864758D01*
X194163054Y-82864680D01*
X194254497Y-82864255D01*
X194323279Y-82863190D01*
X194373097Y-82861193D01*
X194407653Y-82857974D01*
X194430643Y-82853240D01*
X194445767Y-82846701D01*
X194456724Y-82838065D01*
X194462735Y-82831864D01*
X194471783Y-82820881D01*
X194478851Y-82807276D01*
X194484184Y-82787480D01*
X194488025Y-82757926D01*
X194490618Y-82715045D01*
X194492206Y-82655269D01*
X194493032Y-82575031D01*
X194493341Y-82470763D01*
X194493379Y-82383004D01*
X194493285Y-82260032D01*
X194492836Y-82163493D01*
X194491785Y-82089763D01*
X194489883Y-82035214D01*
X194486884Y-81996223D01*
X194482538Y-81969163D01*
X194476599Y-81950408D01*
X194468818Y-81936334D01*
X194462229Y-81927435D01*
X194431079Y-81887834D01*
X194044745Y-81887834D01*
X193916177Y-81888091D01*
G36*
X192867110Y-81888111D02*
G01*
X192695392Y-81893917D01*
X192549338Y-81911525D01*
X192426540Y-81941987D01*
X192324590Y-81986359D01*
X192241079Y-82045695D01*
X192173600Y-82121048D01*
X192119744Y-82213474D01*
X192118685Y-82215728D01*
X192086544Y-82298448D01*
X192075092Y-82371708D01*
X192084373Y-82445436D01*
X192114432Y-82529559D01*
X192120132Y-82542361D01*
X192159008Y-82617286D01*
X192202698Y-82675181D01*
X192259087Y-82724396D01*
X192336055Y-82773281D01*
X192340527Y-82775833D01*
X192407530Y-82808019D01*
X192483262Y-82832056D01*
X192572589Y-82848775D01*
X192680378Y-82859003D01*
X192811495Y-82863570D01*
X192857821Y-82863967D01*
X193078417Y-82864758D01*
X193109567Y-82825157D01*
X193118807Y-82812135D01*
X193126015Y-82796928D01*
X193131443Y-82775890D01*
X193135342Y-82745374D01*
X193137964Y-82701735D01*
X193138819Y-82669373D01*
X192930302Y-82669373D01*
X192805311Y-82669373D01*
X192732170Y-82667234D01*
X192657086Y-82661605D01*
X192595463Y-82653667D01*
X192591744Y-82652999D01*
X192482294Y-82623636D01*
X192397399Y-82579521D01*
X192334375Y-82518607D01*
X192290533Y-82438848D01*
X192282910Y-82417708D01*
X192275437Y-82384786D01*
X192278672Y-82352260D01*
X192294414Y-82308988D01*
X192303903Y-82287731D01*
X192334976Y-82231244D01*
X192372414Y-82191615D01*
X192413606Y-82164018D01*
X192496117Y-82128106D01*
X192601714Y-82102092D01*
X192724729Y-82087112D01*
X192813823Y-82083816D01*
X192930302Y-82083219D01*
X192930302Y-82669373D01*
X193138819Y-82669373D01*
X193139561Y-82641324D01*
X193140383Y-82560496D01*
X193140683Y-82455605D01*
X193140717Y-82373586D01*
X193140717Y-81961616D01*
X193103826Y-81924725D01*
X193087453Y-81909772D01*
X193069750Y-81899532D01*
X193045028Y-81893125D01*
X193007599Y-81889671D01*
X192951774Y-81888291D01*
X192871865Y-81888105D01*
X192867110Y-81888111D01*
G37*
X192867110Y-81888111D02*
X192695392Y-81893917D01*
X192549338Y-81911525D01*
X192426540Y-81941987D01*
X192324590Y-81986359D01*
X192241079Y-82045695D01*
X192173600Y-82121048D01*
X192119744Y-82213474D01*
X192118685Y-82215728D01*
X192086544Y-82298448D01*
X192075092Y-82371708D01*
X192084373Y-82445436D01*
X192114432Y-82529559D01*
X192120132Y-82542361D01*
X192159008Y-82617286D01*
X192202698Y-82675181D01*
X192259087Y-82724396D01*
X192336055Y-82773281D01*
X192340527Y-82775833D01*
X192407530Y-82808019D01*
X192483262Y-82832056D01*
X192572589Y-82848775D01*
X192680378Y-82859003D01*
X192811495Y-82863570D01*
X192857821Y-82863967D01*
X193078417Y-82864758D01*
X193109567Y-82825157D01*
X193118807Y-82812135D01*
X193126015Y-82796928D01*
X193131443Y-82775890D01*
X193135342Y-82745374D01*
X193137964Y-82701735D01*
X193138819Y-82669373D01*
X192930302Y-82669373D01*
X192805311Y-82669373D01*
X192732170Y-82667234D01*
X192657086Y-82661605D01*
X192595463Y-82653667D01*
X192591744Y-82652999D01*
X192482294Y-82623636D01*
X192397399Y-82579521D01*
X192334375Y-82518607D01*
X192290533Y-82438848D01*
X192282910Y-82417708D01*
X192275437Y-82384786D01*
X192278672Y-82352260D01*
X192294414Y-82308988D01*
X192303903Y-82287731D01*
X192334976Y-82231244D01*
X192372414Y-82191615D01*
X192413606Y-82164018D01*
X192496117Y-82128106D01*
X192601714Y-82102092D01*
X192724729Y-82087112D01*
X192813823Y-82083816D01*
X192930302Y-82083219D01*
X192930302Y-82669373D01*
X193138819Y-82669373D01*
X193139561Y-82641324D01*
X193140383Y-82560496D01*
X193140683Y-82455605D01*
X193140717Y-82373586D01*
X193140717Y-81961616D01*
X193103826Y-81924725D01*
X193087453Y-81909772D01*
X193069750Y-81899532D01*
X193045028Y-81893125D01*
X193007599Y-81889671D01*
X192951774Y-81888291D01*
X192871865Y-81888105D01*
X192867110Y-81888111D01*
G36*
X189237346Y-81890454D02*
G01*
X189211265Y-81899774D01*
X189210259Y-81900230D01*
X189174841Y-81927258D01*
X189155327Y-81955060D01*
X189151509Y-81968096D01*
X189151698Y-81985416D01*
X189157071Y-82010091D01*
X189168805Y-82045188D01*
X189188080Y-82093777D01*
X189216071Y-82158926D01*
X189253957Y-82243705D01*
X189302915Y-82351183D01*
X189329862Y-82409927D01*
X189378523Y-82514797D01*
X189424203Y-82611238D01*
X189465159Y-82695722D01*
X189499647Y-82764724D01*
X189525924Y-82814718D01*
X189542247Y-82842178D01*
X189545477Y-82845971D01*
X189586804Y-82862704D01*
X189633484Y-82860463D01*
X189670923Y-82840111D01*
X189672449Y-82838456D01*
X189687342Y-82815910D01*
X189712324Y-82771995D01*
X189744314Y-82712364D01*
X189780233Y-82642670D01*
X189793141Y-82616987D01*
X189890579Y-82421821D01*
X189996787Y-82633831D01*
X190034696Y-82707085D01*
X190069866Y-82770614D01*
X190099425Y-82819555D01*
X190120499Y-82849046D01*
X190127641Y-82855300D01*
X190183155Y-82863769D01*
X190228964Y-82845971D01*
X190242439Y-82826949D01*
X190265757Y-82784673D01*
X190297016Y-82723304D01*
X190334313Y-82647000D01*
X190375747Y-82559923D01*
X190419415Y-82466231D01*
X190463415Y-82370085D01*
X190505845Y-82275645D01*
X190544803Y-82187069D01*
X190578386Y-82108520D01*
X190604692Y-82044155D01*
X190621819Y-81998135D01*
X190627864Y-81974621D01*
X190627802Y-81973769D01*
X190613093Y-81944180D01*
X190583691Y-81914044D01*
X190581960Y-81912732D01*
X190545823Y-81892306D01*
X190512399Y-81892504D01*
X190499871Y-81896355D01*
X190484606Y-81904677D01*
X190468395Y-81921049D01*
X190449294Y-81948866D01*
X190425358Y-81991524D01*
X190394642Y-82052419D01*
X190355202Y-82134949D01*
X190319635Y-82211131D01*
X190278716Y-82299438D01*
X190242049Y-82378850D01*
X190211539Y-82445220D01*
X190189091Y-82494399D01*
X190176610Y-82522237D01*
X190174790Y-82526592D01*
X190166603Y-82519473D01*
X190147788Y-82489665D01*
X190120847Y-82441520D01*
X190088285Y-82379387D01*
X190075327Y-82353752D01*
X190031433Y-82267189D01*
X189997582Y-82204149D01*
X189970996Y-82160966D01*
X189948898Y-82133976D01*
X189928509Y-82119512D01*
X189907053Y-82113911D01*
X189893070Y-82113278D01*
X189868405Y-82115464D01*
X189846791Y-82124503D01*
X189825315Y-82144121D01*
X189801063Y-82178041D01*
X189771123Y-82229986D01*
X189732580Y-82303682D01*
X189711315Y-82345604D01*
X189676821Y-82412418D01*
X189646737Y-82467825D01*
X189623716Y-82507151D01*
X189610413Y-82525720D01*
X189608604Y-82526493D01*
X189600013Y-82511879D01*
X189580779Y-82473931D01*
X189552828Y-82416620D01*
X189518086Y-82343920D01*
X189478480Y-82259800D01*
X189458997Y-82218018D01*
X189408313Y-82110187D01*
X189367500Y-82027214D01*
X189334439Y-81966390D01*
X189307012Y-81925009D01*
X189283101Y-81900364D01*
X189260585Y-81889748D01*
X189237346Y-81890454D01*
G37*
X189237346Y-81890454D02*
X189211265Y-81899774D01*
X189210259Y-81900230D01*
X189174841Y-81927258D01*
X189155327Y-81955060D01*
X189151509Y-81968096D01*
X189151698Y-81985416D01*
X189157071Y-82010091D01*
X189168805Y-82045188D01*
X189188080Y-82093777D01*
X189216071Y-82158926D01*
X189253957Y-82243705D01*
X189302915Y-82351183D01*
X189329862Y-82409927D01*
X189378523Y-82514797D01*
X189424203Y-82611238D01*
X189465159Y-82695722D01*
X189499647Y-82764724D01*
X189525924Y-82814718D01*
X189542247Y-82842178D01*
X189545477Y-82845971D01*
X189586804Y-82862704D01*
X189633484Y-82860463D01*
X189670923Y-82840111D01*
X189672449Y-82838456D01*
X189687342Y-82815910D01*
X189712324Y-82771995D01*
X189744314Y-82712364D01*
X189780233Y-82642670D01*
X189793141Y-82616987D01*
X189890579Y-82421821D01*
X189996787Y-82633831D01*
X190034696Y-82707085D01*
X190069866Y-82770614D01*
X190099425Y-82819555D01*
X190120499Y-82849046D01*
X190127641Y-82855300D01*
X190183155Y-82863769D01*
X190228964Y-82845971D01*
X190242439Y-82826949D01*
X190265757Y-82784673D01*
X190297016Y-82723304D01*
X190334313Y-82647000D01*
X190375747Y-82559923D01*
X190419415Y-82466231D01*
X190463415Y-82370085D01*
X190505845Y-82275645D01*
X190544803Y-82187069D01*
X190578386Y-82108520D01*
X190604692Y-82044155D01*
X190621819Y-81998135D01*
X190627864Y-81974621D01*
X190627802Y-81973769D01*
X190613093Y-81944180D01*
X190583691Y-81914044D01*
X190581960Y-81912732D01*
X190545823Y-81892306D01*
X190512399Y-81892504D01*
X190499871Y-81896355D01*
X190484606Y-81904677D01*
X190468395Y-81921049D01*
X190449294Y-81948866D01*
X190425358Y-81991524D01*
X190394642Y-82052419D01*
X190355202Y-82134949D01*
X190319635Y-82211131D01*
X190278716Y-82299438D01*
X190242049Y-82378850D01*
X190211539Y-82445220D01*
X190189091Y-82494399D01*
X190176610Y-82522237D01*
X190174790Y-82526592D01*
X190166603Y-82519473D01*
X190147788Y-82489665D01*
X190120847Y-82441520D01*
X190088285Y-82379387D01*
X190075327Y-82353752D01*
X190031433Y-82267189D01*
X189997582Y-82204149D01*
X189970996Y-82160966D01*
X189948898Y-82133976D01*
X189928509Y-82119512D01*
X189907053Y-82113911D01*
X189893070Y-82113278D01*
X189868405Y-82115464D01*
X189846791Y-82124503D01*
X189825315Y-82144121D01*
X189801063Y-82178041D01*
X189771123Y-82229986D01*
X189732580Y-82303682D01*
X189711315Y-82345604D01*
X189676821Y-82412418D01*
X189646737Y-82467825D01*
X189623716Y-82507151D01*
X189610413Y-82525720D01*
X189608604Y-82526493D01*
X189600013Y-82511879D01*
X189580779Y-82473931D01*
X189552828Y-82416620D01*
X189518086Y-82343920D01*
X189478480Y-82259800D01*
X189458997Y-82218018D01*
X189408313Y-82110187D01*
X189367500Y-82027214D01*
X189334439Y-81966390D01*
X189307012Y-81925009D01*
X189283101Y-81900364D01*
X189260585Y-81889748D01*
X189237346Y-81890454D01*
G36*
X188646289Y-81896901D02*
G01*
X188614719Y-81916566D01*
X188579237Y-81945297D01*
X188579237Y-82373390D01*
X188579350Y-82498614D01*
X188579834Y-82597271D01*
X188580907Y-82672854D01*
X188582785Y-82728857D01*
X188585687Y-82768771D01*
X188589830Y-82796090D01*
X188595431Y-82814305D01*
X188602708Y-82826910D01*
X188607869Y-82833120D01*
X188649725Y-82860404D01*
X188697388Y-82859291D01*
X188739140Y-82836026D01*
X188774622Y-82807295D01*
X188774622Y-81945297D01*
X188739140Y-81916566D01*
X188704895Y-81895666D01*
X188676930Y-81887834D01*
X188646289Y-81896901D01*
G37*
X188646289Y-81896901D02*
X188614719Y-81916566D01*
X188579237Y-81945297D01*
X188579237Y-82373390D01*
X188579350Y-82498614D01*
X188579834Y-82597271D01*
X188580907Y-82672854D01*
X188582785Y-82728857D01*
X188585687Y-82768771D01*
X188589830Y-82796090D01*
X188595431Y-82814305D01*
X188602708Y-82826910D01*
X188607869Y-82833120D01*
X188649725Y-82860404D01*
X188697388Y-82859291D01*
X188739140Y-82836026D01*
X188774622Y-82807295D01*
X188774622Y-81945297D01*
X188739140Y-81916566D01*
X188704895Y-81895666D01*
X188676930Y-81887834D01*
X188646289Y-81896901D01*
G36*
X187615216Y-81887963D02*
G01*
X187510428Y-81888467D01*
X187429094Y-81889520D01*
X187367913Y-81891300D01*
X187323582Y-81893981D01*
X187292799Y-81897738D01*
X187272262Y-81902749D01*
X187258668Y-81909187D01*
X187252090Y-81914136D01*
X187217949Y-81957453D01*
X187213819Y-82002427D01*
X187234917Y-82043284D01*
X187248714Y-82059610D01*
X187263561Y-82070742D01*
X187285078Y-82077674D01*
X187318885Y-82081401D01*
X187370601Y-82082918D01*
X187445846Y-82083218D01*
X187460624Y-82083219D01*
X187654918Y-82083219D01*
X187654918Y-82443929D01*
X187655046Y-82557625D01*
X187655627Y-82645109D01*
X187656957Y-82710226D01*
X187659333Y-82756822D01*
X187663049Y-82788743D01*
X187668401Y-82809836D01*
X187675686Y-82823947D01*
X187684977Y-82834698D01*
X187728822Y-82861120D01*
X187774593Y-82859038D01*
X187816103Y-82828893D01*
X187819152Y-82825157D01*
X187829081Y-82811034D01*
X187836645Y-82794510D01*
X187842164Y-82771570D01*
X187845960Y-82738197D01*
X187848351Y-82690379D01*
X187849659Y-82624098D01*
X187850202Y-82535342D01*
X187850302Y-82434387D01*
X187850302Y-82083219D01*
X188035843Y-82083219D01*
X188115466Y-82082680D01*
X188170589Y-82080581D01*
X188206761Y-82076195D01*
X188229531Y-82068800D01*
X188244446Y-82057669D01*
X188246257Y-82055734D01*
X188268035Y-82011481D01*
X188266109Y-81961453D01*
X188241072Y-81917894D01*
X188231389Y-81909444D01*
X188218905Y-81902745D01*
X188200290Y-81897593D01*
X188172216Y-81893785D01*
X188131352Y-81891121D01*
X188074371Y-81889396D01*
X187997941Y-81888408D01*
X187898736Y-81887956D01*
X187773424Y-81887836D01*
X187746760Y-81887834D01*
X187615216Y-81887963D01*
G37*
X187615216Y-81887963D02*
X187510428Y-81888467D01*
X187429094Y-81889520D01*
X187367913Y-81891300D01*
X187323582Y-81893981D01*
X187292799Y-81897738D01*
X187272262Y-81902749D01*
X187258668Y-81909187D01*
X187252090Y-81914136D01*
X187217949Y-81957453D01*
X187213819Y-82002427D01*
X187234917Y-82043284D01*
X187248714Y-82059610D01*
X187263561Y-82070742D01*
X187285078Y-82077674D01*
X187318885Y-82081401D01*
X187370601Y-82082918D01*
X187445846Y-82083218D01*
X187460624Y-82083219D01*
X187654918Y-82083219D01*
X187654918Y-82443929D01*
X187655046Y-82557625D01*
X187655627Y-82645109D01*
X187656957Y-82710226D01*
X187659333Y-82756822D01*
X187663049Y-82788743D01*
X187668401Y-82809836D01*
X187675686Y-82823947D01*
X187684977Y-82834698D01*
X187728822Y-82861120D01*
X187774593Y-82859038D01*
X187816103Y-82828893D01*
X187819152Y-82825157D01*
X187829081Y-82811034D01*
X187836645Y-82794510D01*
X187842164Y-82771570D01*
X187845960Y-82738197D01*
X187848351Y-82690379D01*
X187849659Y-82624098D01*
X187850202Y-82535342D01*
X187850302Y-82434387D01*
X187850302Y-82083219D01*
X188035843Y-82083219D01*
X188115466Y-82082680D01*
X188170589Y-82080581D01*
X188206761Y-82076195D01*
X188229531Y-82068800D01*
X188244446Y-82057669D01*
X188246257Y-82055734D01*
X188268035Y-82011481D01*
X188266109Y-81961453D01*
X188241072Y-81917894D01*
X188231389Y-81909444D01*
X188218905Y-81902745D01*
X188200290Y-81897593D01*
X188172216Y-81893785D01*
X188131352Y-81891121D01*
X188074371Y-81889396D01*
X187997941Y-81888408D01*
X187898736Y-81887956D01*
X187773424Y-81887836D01*
X187746760Y-81887834D01*
X187615216Y-81887963D01*
G36*
X185930034Y-81895112D02*
G01*
X185888258Y-81924725D01*
X185851368Y-81961616D01*
X185851368Y-82373586D01*
X185851464Y-82495910D01*
X185851921Y-82591822D01*
X185852990Y-82664968D01*
X185854922Y-82718994D01*
X185857970Y-82757547D01*
X185862384Y-82784272D01*
X185868417Y-82802818D01*
X185876319Y-82816829D01*
X185882518Y-82825157D01*
X185923432Y-82857873D01*
X185970411Y-82861424D01*
X186013349Y-82841361D01*
X186027537Y-82829516D01*
X186037021Y-82813782D01*
X186042742Y-82788446D01*
X186045640Y-82747794D01*
X186046655Y-82686112D01*
X186046752Y-82638462D01*
X186046752Y-82458959D01*
X186708054Y-82458959D01*
X186708054Y-82622257D01*
X186708738Y-82696929D01*
X186711474Y-82748248D01*
X186717289Y-82782901D01*
X186727209Y-82807579D01*
X186739204Y-82825157D01*
X186780347Y-82857781D01*
X186826876Y-82861644D01*
X186871420Y-82838456D01*
X186883581Y-82826300D01*
X186892170Y-82810185D01*
X186897835Y-82785084D01*
X186901224Y-82745968D01*
X186902985Y-82687810D01*
X186903765Y-82605582D01*
X186903857Y-82586710D01*
X186904501Y-82431781D01*
X186904833Y-82304098D01*
X186904725Y-82200851D01*
X186904048Y-82119227D01*
X186902675Y-82056416D01*
X186900477Y-82009605D01*
X186897327Y-81975983D01*
X186893095Y-81952739D01*
X186887655Y-81937060D01*
X186880878Y-81926135D01*
X186873379Y-81917894D01*
X186830960Y-81891531D01*
X186786721Y-81895112D01*
X186744945Y-81924725D01*
X186728040Y-81943831D01*
X186717264Y-81964935D01*
X186711252Y-81994992D01*
X186708637Y-82040957D01*
X186708054Y-82109784D01*
X186708054Y-82263574D01*
X186046752Y-82263574D01*
X186046752Y-82105763D01*
X186046077Y-82033060D01*
X186043367Y-81983969D01*
X186037592Y-81952060D01*
X186027724Y-81930902D01*
X186016693Y-81917894D01*
X185974274Y-81891531D01*
X185930034Y-81895112D01*
G37*
X185930034Y-81895112D02*
X185888258Y-81924725D01*
X185851368Y-81961616D01*
X185851368Y-82373586D01*
X185851464Y-82495910D01*
X185851921Y-82591822D01*
X185852990Y-82664968D01*
X185854922Y-82718994D01*
X185857970Y-82757547D01*
X185862384Y-82784272D01*
X185868417Y-82802818D01*
X185876319Y-82816829D01*
X185882518Y-82825157D01*
X185923432Y-82857873D01*
X185970411Y-82861424D01*
X186013349Y-82841361D01*
X186027537Y-82829516D01*
X186037021Y-82813782D01*
X186042742Y-82788446D01*
X186045640Y-82747794D01*
X186046655Y-82686112D01*
X186046752Y-82638462D01*
X186046752Y-82458959D01*
X186708054Y-82458959D01*
X186708054Y-82622257D01*
X186708738Y-82696929D01*
X186711474Y-82748248D01*
X186717289Y-82782901D01*
X186727209Y-82807579D01*
X186739204Y-82825157D01*
X186780347Y-82857781D01*
X186826876Y-82861644D01*
X186871420Y-82838456D01*
X186883581Y-82826300D01*
X186892170Y-82810185D01*
X186897835Y-82785084D01*
X186901224Y-82745968D01*
X186902985Y-82687810D01*
X186903765Y-82605582D01*
X186903857Y-82586710D01*
X186904501Y-82431781D01*
X186904833Y-82304098D01*
X186904725Y-82200851D01*
X186904048Y-82119227D01*
X186902675Y-82056416D01*
X186900477Y-82009605D01*
X186897327Y-81975983D01*
X186893095Y-81952739D01*
X186887655Y-81937060D01*
X186880878Y-81926135D01*
X186873379Y-81917894D01*
X186830960Y-81891531D01*
X186786721Y-81895112D01*
X186744945Y-81924725D01*
X186728040Y-81943831D01*
X186717264Y-81964935D01*
X186711252Y-81994992D01*
X186708637Y-82040957D01*
X186708054Y-82109784D01*
X186708054Y-82263574D01*
X186046752Y-82263574D01*
X186046752Y-82105763D01*
X186046077Y-82033060D01*
X186043367Y-81983969D01*
X186037592Y-81952060D01*
X186027724Y-81930902D01*
X186016693Y-81917894D01*
X185974274Y-81891531D01*
X185930034Y-81895112D01*
G36*
X198000211Y-73365357D02*
G01*
X197863964Y-73412596D01*
X197737114Y-73486951D01*
X197623826Y-73588411D01*
X197528265Y-73716967D01*
X197485339Y-73797996D01*
X197448188Y-73911332D01*
X197430181Y-74042175D01*
X197432176Y-74176689D01*
X197454316Y-74298582D01*
X197514829Y-74447531D01*
X197602579Y-74576733D01*
X197713105Y-74683647D01*
X197841947Y-74765730D01*
X197984646Y-74820440D01*
X198136742Y-74845234D01*
X198293774Y-74837571D01*
X198371179Y-74821196D01*
X198522034Y-74762513D01*
X198656018Y-74672967D01*
X198769899Y-74555317D01*
X198860445Y-74412326D01*
X198868105Y-74396710D01*
X198894587Y-74338110D01*
X198911215Y-74288758D01*
X198920243Y-74236694D01*
X198923925Y-74169963D01*
X198924536Y-74097353D01*
X198923526Y-74010115D01*
X198918965Y-73947048D01*
X198908559Y-73896060D01*
X198890014Y-73845057D01*
X198867123Y-73794737D01*
X198781739Y-73651894D01*
X198676592Y-73536234D01*
X198555848Y-73447749D01*
X198423672Y-73386429D01*
X198284230Y-73352263D01*
X198141688Y-73345242D01*
X198000211Y-73365357D01*
G37*
X198000211Y-73365357D02*
X197863964Y-73412596D01*
X197737114Y-73486951D01*
X197623826Y-73588411D01*
X197528265Y-73716967D01*
X197485339Y-73797996D01*
X197448188Y-73911332D01*
X197430181Y-74042175D01*
X197432176Y-74176689D01*
X197454316Y-74298582D01*
X197514829Y-74447531D01*
X197602579Y-74576733D01*
X197713105Y-74683647D01*
X197841947Y-74765730D01*
X197984646Y-74820440D01*
X198136742Y-74845234D01*
X198293774Y-74837571D01*
X198371179Y-74821196D01*
X198522034Y-74762513D01*
X198656018Y-74672967D01*
X198769899Y-74555317D01*
X198860445Y-74412326D01*
X198868105Y-74396710D01*
X198894587Y-74338110D01*
X198911215Y-74288758D01*
X198920243Y-74236694D01*
X198923925Y-74169963D01*
X198924536Y-74097353D01*
X198923526Y-74010115D01*
X198918965Y-73947048D01*
X198908559Y-73896060D01*
X198890014Y-73845057D01*
X198867123Y-73794737D01*
X198781739Y-73651894D01*
X198676592Y-73536234D01*
X198555848Y-73447749D01*
X198423672Y-73386429D01*
X198284230Y-73352263D01*
X198141688Y-73345242D01*
X198000211Y-73365357D01*
G36*
X185356322Y-74581513D02*
G01*
X185202017Y-74582147D01*
X185149572Y-74582466D01*
X184428393Y-74587210D01*
X184419322Y-77353996D01*
X184418124Y-77729180D01*
X184417061Y-78069841D01*
X184416066Y-78377742D01*
X184415070Y-78654645D01*
X184414005Y-78902312D01*
X184412802Y-79122505D01*
X184411394Y-79316986D01*
X184409711Y-79487518D01*
X184407687Y-79635864D01*
X184405252Y-79763785D01*
X184402339Y-79873044D01*
X184398878Y-79965403D01*
X184394803Y-80042624D01*
X184390044Y-80106470D01*
X184384533Y-80158702D01*
X184378202Y-80201084D01*
X184370983Y-80235377D01*
X184362808Y-80263344D01*
X184353608Y-80286748D01*
X184343316Y-80307349D01*
X184331862Y-80326911D01*
X184319178Y-80347196D01*
X184305198Y-80369967D01*
X184302332Y-80374817D01*
X184254253Y-80456857D01*
X185643965Y-80447353D01*
X185653036Y-80294719D01*
X185657975Y-80221469D01*
X185663122Y-80179120D01*
X185670107Y-80162316D01*
X185680556Y-80165701D01*
X185689322Y-80175384D01*
X185727505Y-80210653D01*
X185789738Y-80255987D01*
X185867252Y-80305970D01*
X185951280Y-80355185D01*
X186033054Y-80398215D01*
X186095841Y-80426525D01*
X186242939Y-80473048D01*
X186411713Y-80506003D01*
X186589702Y-80524131D01*
X186764446Y-80526174D01*
X186923486Y-80510871D01*
X186926105Y-80510433D01*
X187143725Y-80455826D01*
X187347438Y-80368825D01*
X187535280Y-80251300D01*
X187705286Y-80105121D01*
X187855491Y-79932158D01*
X187983929Y-79734281D01*
X188088636Y-79513360D01*
X188145647Y-79349710D01*
X188183242Y-79212799D01*
X188211122Y-79080222D01*
X188230140Y-78943926D01*
X188241148Y-78795857D01*
X188244998Y-78627961D01*
X188243293Y-78490864D01*
X186904534Y-78490864D01*
X186898199Y-78720753D01*
X186878214Y-78918535D01*
X186843966Y-79085963D01*
X186794838Y-79224793D01*
X186730217Y-79336782D01*
X186649488Y-79423683D01*
X186556302Y-79485116D01*
X186507813Y-79508050D01*
X186465759Y-79521799D01*
X186418873Y-79528090D01*
X186355889Y-79528646D01*
X186288036Y-79526197D01*
X186154598Y-79514428D01*
X186049061Y-79491379D01*
X186015893Y-79479834D01*
X185940158Y-79445735D01*
X185860279Y-79402915D01*
X185825393Y-79381481D01*
X185734679Y-79321980D01*
X185734679Y-77436008D01*
X185834465Y-77376195D01*
X185973626Y-77308609D01*
X186115806Y-77268638D01*
X186255803Y-77256046D01*
X186388419Y-77270597D01*
X186508453Y-77312056D01*
X186610705Y-77380187D01*
X186643698Y-77412890D01*
X186723226Y-77520043D01*
X186787594Y-77649751D01*
X186837340Y-77804238D01*
X186873002Y-77985726D01*
X186895118Y-78196439D01*
X186904226Y-78438599D01*
X186904534Y-78490864D01*
X188243293Y-78490864D01*
X188242583Y-78433798D01*
X188227288Y-78135137D01*
X188196535Y-77865749D01*
X188149512Y-77621709D01*
X188085411Y-77399094D01*
X188003421Y-77193980D01*
X187974163Y-77133170D01*
X187856312Y-76934864D01*
X187713897Y-76758636D01*
X187550264Y-76607332D01*
X187368762Y-76483795D01*
X187172740Y-76390871D01*
X187055238Y-76352539D01*
X186939839Y-76329783D01*
X186800986Y-76316244D01*
X186650319Y-76311916D01*
X186499480Y-76316792D01*
X186360108Y-76330868D01*
X186248202Y-76352949D01*
X186115009Y-76396252D01*
X185985914Y-76451935D01*
X185872965Y-76514360D01*
X185812850Y-76556727D01*
X185771383Y-76588231D01*
X185742348Y-76607414D01*
X185735743Y-76610138D01*
X185733695Y-76592587D01*
X185731786Y-76542299D01*
X185730057Y-76462824D01*
X185728552Y-76357710D01*
X185727312Y-76230507D01*
X185726380Y-76084763D01*
X185725798Y-75924027D01*
X185725607Y-75760308D01*
X185725714Y-75550612D01*
X185726235Y-75373820D01*
X185727477Y-75226550D01*
X185729745Y-75105421D01*
X185733343Y-75007051D01*
X185738576Y-74928058D01*
X185745749Y-74865062D01*
X185755167Y-74814679D01*
X185767135Y-74773529D01*
X185781958Y-74738230D01*
X185799941Y-74705401D01*
X185821388Y-74671659D01*
X185824148Y-74667481D01*
X185851810Y-74623780D01*
X185868511Y-74593729D01*
X185870750Y-74587391D01*
X185853250Y-74585391D01*
X185803319Y-74583764D01*
X185724808Y-74582536D01*
X185621570Y-74581735D01*
X185497457Y-74581385D01*
X185356322Y-74581513D01*
G37*
X185356322Y-74581513D02*
X185202017Y-74582147D01*
X185149572Y-74582466D01*
X184428393Y-74587210D01*
X184419322Y-77353996D01*
X184418124Y-77729180D01*
X184417061Y-78069841D01*
X184416066Y-78377742D01*
X184415070Y-78654645D01*
X184414005Y-78902312D01*
X184412802Y-79122505D01*
X184411394Y-79316986D01*
X184409711Y-79487518D01*
X184407687Y-79635864D01*
X184405252Y-79763785D01*
X184402339Y-79873044D01*
X184398878Y-79965403D01*
X184394803Y-80042624D01*
X184390044Y-80106470D01*
X184384533Y-80158702D01*
X184378202Y-80201084D01*
X184370983Y-80235377D01*
X184362808Y-80263344D01*
X184353608Y-80286748D01*
X184343316Y-80307349D01*
X184331862Y-80326911D01*
X184319178Y-80347196D01*
X184305198Y-80369967D01*
X184302332Y-80374817D01*
X184254253Y-80456857D01*
X185643965Y-80447353D01*
X185653036Y-80294719D01*
X185657975Y-80221469D01*
X185663122Y-80179120D01*
X185670107Y-80162316D01*
X185680556Y-80165701D01*
X185689322Y-80175384D01*
X185727505Y-80210653D01*
X185789738Y-80255987D01*
X185867252Y-80305970D01*
X185951280Y-80355185D01*
X186033054Y-80398215D01*
X186095841Y-80426525D01*
X186242939Y-80473048D01*
X186411713Y-80506003D01*
X186589702Y-80524131D01*
X186764446Y-80526174D01*
X186923486Y-80510871D01*
X186926105Y-80510433D01*
X187143725Y-80455826D01*
X187347438Y-80368825D01*
X187535280Y-80251300D01*
X187705286Y-80105121D01*
X187855491Y-79932158D01*
X187983929Y-79734281D01*
X188088636Y-79513360D01*
X188145647Y-79349710D01*
X188183242Y-79212799D01*
X188211122Y-79080222D01*
X188230140Y-78943926D01*
X188241148Y-78795857D01*
X188244998Y-78627961D01*
X188243293Y-78490864D01*
X186904534Y-78490864D01*
X186898199Y-78720753D01*
X186878214Y-78918535D01*
X186843966Y-79085963D01*
X186794838Y-79224793D01*
X186730217Y-79336782D01*
X186649488Y-79423683D01*
X186556302Y-79485116D01*
X186507813Y-79508050D01*
X186465759Y-79521799D01*
X186418873Y-79528090D01*
X186355889Y-79528646D01*
X186288036Y-79526197D01*
X186154598Y-79514428D01*
X186049061Y-79491379D01*
X186015893Y-79479834D01*
X185940158Y-79445735D01*
X185860279Y-79402915D01*
X185825393Y-79381481D01*
X185734679Y-79321980D01*
X185734679Y-77436008D01*
X185834465Y-77376195D01*
X185973626Y-77308609D01*
X186115806Y-77268638D01*
X186255803Y-77256046D01*
X186388419Y-77270597D01*
X186508453Y-77312056D01*
X186610705Y-77380187D01*
X186643698Y-77412890D01*
X186723226Y-77520043D01*
X186787594Y-77649751D01*
X186837340Y-77804238D01*
X186873002Y-77985726D01*
X186895118Y-78196439D01*
X186904226Y-78438599D01*
X186904534Y-78490864D01*
X188243293Y-78490864D01*
X188242583Y-78433798D01*
X188227288Y-78135137D01*
X188196535Y-77865749D01*
X188149512Y-77621709D01*
X188085411Y-77399094D01*
X188003421Y-77193980D01*
X187974163Y-77133170D01*
X187856312Y-76934864D01*
X187713897Y-76758636D01*
X187550264Y-76607332D01*
X187368762Y-76483795D01*
X187172740Y-76390871D01*
X187055238Y-76352539D01*
X186939839Y-76329783D01*
X186800986Y-76316244D01*
X186650319Y-76311916D01*
X186499480Y-76316792D01*
X186360108Y-76330868D01*
X186248202Y-76352949D01*
X186115009Y-76396252D01*
X185985914Y-76451935D01*
X185872965Y-76514360D01*
X185812850Y-76556727D01*
X185771383Y-76588231D01*
X185742348Y-76607414D01*
X185735743Y-76610138D01*
X185733695Y-76592587D01*
X185731786Y-76542299D01*
X185730057Y-76462824D01*
X185728552Y-76357710D01*
X185727312Y-76230507D01*
X185726380Y-76084763D01*
X185725798Y-75924027D01*
X185725607Y-75760308D01*
X185725714Y-75550612D01*
X185726235Y-75373820D01*
X185727477Y-75226550D01*
X185729745Y-75105421D01*
X185733343Y-75007051D01*
X185738576Y-74928058D01*
X185745749Y-74865062D01*
X185755167Y-74814679D01*
X185767135Y-74773529D01*
X185781958Y-74738230D01*
X185799941Y-74705401D01*
X185821388Y-74671659D01*
X185824148Y-74667481D01*
X185851810Y-74623780D01*
X185868511Y-74593729D01*
X185870750Y-74587391D01*
X185853250Y-74585391D01*
X185803319Y-74583764D01*
X185724808Y-74582536D01*
X185621570Y-74581735D01*
X185497457Y-74581385D01*
X185356322Y-74581513D01*
G36*
X190212261Y-76309154D02*
G01*
X190122370Y-76315959D01*
X189865178Y-76350177D01*
X189637408Y-76404755D01*
X189437950Y-76480444D01*
X189265696Y-76577994D01*
X189119534Y-76698156D01*
X188998357Y-76841682D01*
X188901054Y-77009322D01*
X188830002Y-77190710D01*
X188811966Y-77248570D01*
X188796261Y-77302753D01*
X188782701Y-77356176D01*
X188771101Y-77411757D01*
X188761276Y-77472412D01*
X188753040Y-77541059D01*
X188746209Y-77620614D01*
X188740598Y-77713996D01*
X188736021Y-77824120D01*
X188732293Y-77953905D01*
X188729228Y-78106266D01*
X188726643Y-78284122D01*
X188724351Y-78490389D01*
X188722168Y-78727985D01*
X188720607Y-78914281D01*
X188710108Y-80193353D01*
X188642072Y-80316442D01*
X188609855Y-80375741D01*
X188585881Y-80421801D01*
X188574443Y-80446317D01*
X188574036Y-80447977D01*
X188591518Y-80449878D01*
X188641319Y-80451629D01*
X188719472Y-80453182D01*
X188822011Y-80454486D01*
X188944971Y-80455494D01*
X189084383Y-80456155D01*
X189236282Y-80456421D01*
X189254393Y-80456424D01*
X189934750Y-80456424D01*
X189934750Y-80302210D01*
X189935911Y-80232518D01*
X189939006Y-80179218D01*
X189943461Y-80150641D01*
X189945430Y-80147996D01*
X189963438Y-80159077D01*
X190000500Y-80188160D01*
X190048671Y-80229003D01*
X190049752Y-80229948D01*
X190137658Y-80295395D01*
X190248676Y-80361112D01*
X190370262Y-80420643D01*
X190489872Y-80467533D01*
X190542536Y-80483557D01*
X190647342Y-80503909D01*
X190775943Y-80516896D01*
X190916568Y-80522333D01*
X191057445Y-80520035D01*
X191186800Y-80509816D01*
X191277322Y-80495113D01*
X191499313Y-80429923D01*
X191699164Y-80337018D01*
X191875574Y-80217550D01*
X192027243Y-80072671D01*
X192152869Y-79903534D01*
X192251152Y-79711291D01*
X192293552Y-79594638D01*
X192320125Y-79481257D01*
X192337735Y-79345146D01*
X192345883Y-79198861D01*
X192345615Y-79177575D01*
X191118572Y-79177575D01*
X191108397Y-79286274D01*
X191074515Y-79376609D01*
X191011893Y-79460419D01*
X190987841Y-79484995D01*
X190902342Y-79551435D01*
X190803520Y-79593998D01*
X190685125Y-79614601D01*
X190560448Y-79616118D01*
X190442195Y-79606101D01*
X190351654Y-79586509D01*
X190312333Y-79571794D01*
X190241461Y-79531689D01*
X190166368Y-79475287D01*
X190097855Y-79411985D01*
X190046721Y-79351179D01*
X190033143Y-79328873D01*
X190022588Y-79297636D01*
X190015083Y-79247931D01*
X190010280Y-79175011D01*
X190007828Y-79074127D01*
X190007322Y-78978113D01*
X190007665Y-78866174D01*
X190009050Y-78785233D01*
X190012012Y-78730009D01*
X190017085Y-78695218D01*
X190024803Y-78675578D01*
X190035701Y-78665804D01*
X190039072Y-78664248D01*
X190068364Y-78659453D01*
X190126137Y-78655532D01*
X190204589Y-78652838D01*
X190295919Y-78651723D01*
X190315750Y-78651722D01*
X190437830Y-78653670D01*
X190532144Y-78659465D01*
X190607086Y-78669899D01*
X190668990Y-78685138D01*
X190822544Y-78743208D01*
X190942961Y-78814603D01*
X191031283Y-78900463D01*
X191088554Y-79001931D01*
X191115815Y-79120149D01*
X191118572Y-79177575D01*
X192345615Y-79177575D01*
X192344070Y-79054957D01*
X192331797Y-78925989D01*
X192322223Y-78873884D01*
X192261092Y-78680421D01*
X192168136Y-78502417D01*
X192045110Y-78341579D01*
X191893769Y-78199614D01*
X191715868Y-78078230D01*
X191513161Y-77979133D01*
X191340822Y-77918957D01*
X191225640Y-77887343D01*
X191115470Y-77862778D01*
X191003174Y-77844463D01*
X190881618Y-77831602D01*
X190743664Y-77823396D01*
X190582178Y-77819048D01*
X190436178Y-77817824D01*
X190003248Y-77816639D01*
X190011542Y-77686504D01*
X190035092Y-77545307D01*
X190085190Y-77423942D01*
X190159702Y-77325441D01*
X190256494Y-77252833D01*
X190341722Y-77217403D01*
X190463837Y-77195074D01*
X190609210Y-77191867D01*
X190771026Y-77206601D01*
X190942471Y-77238094D01*
X191116730Y-77285164D01*
X191286989Y-77346627D01*
X191410717Y-77402841D01*
X191470246Y-77431707D01*
X191515651Y-77451867D01*
X191538743Y-77459734D01*
X191539996Y-77459482D01*
X191547964Y-77441861D01*
X191567862Y-77395157D01*
X191597816Y-77323842D01*
X191635954Y-77232393D01*
X191680405Y-77125283D01*
X191725588Y-77015973D01*
X191906226Y-76578164D01*
X191777738Y-76557060D01*
X191722047Y-76546471D01*
X191638329Y-76528687D01*
X191533754Y-76505322D01*
X191415494Y-76477989D01*
X191290721Y-76448305D01*
X191241036Y-76436242D01*
X191026086Y-76386386D01*
X190837898Y-76349008D01*
X190669447Y-76323351D01*
X190513707Y-76308659D01*
X190363653Y-76304179D01*
X190212261Y-76309154D01*
G37*
X190212261Y-76309154D02*
X190122370Y-76315959D01*
X189865178Y-76350177D01*
X189637408Y-76404755D01*
X189437950Y-76480444D01*
X189265696Y-76577994D01*
X189119534Y-76698156D01*
X188998357Y-76841682D01*
X188901054Y-77009322D01*
X188830002Y-77190710D01*
X188811966Y-77248570D01*
X188796261Y-77302753D01*
X188782701Y-77356176D01*
X188771101Y-77411757D01*
X188761276Y-77472412D01*
X188753040Y-77541059D01*
X188746209Y-77620614D01*
X188740598Y-77713996D01*
X188736021Y-77824120D01*
X188732293Y-77953905D01*
X188729228Y-78106266D01*
X188726643Y-78284122D01*
X188724351Y-78490389D01*
X188722168Y-78727985D01*
X188720607Y-78914281D01*
X188710108Y-80193353D01*
X188642072Y-80316442D01*
X188609855Y-80375741D01*
X188585881Y-80421801D01*
X188574443Y-80446317D01*
X188574036Y-80447977D01*
X188591518Y-80449878D01*
X188641319Y-80451629D01*
X188719472Y-80453182D01*
X188822011Y-80454486D01*
X188944971Y-80455494D01*
X189084383Y-80456155D01*
X189236282Y-80456421D01*
X189254393Y-80456424D01*
X189934750Y-80456424D01*
X189934750Y-80302210D01*
X189935911Y-80232518D01*
X189939006Y-80179218D01*
X189943461Y-80150641D01*
X189945430Y-80147996D01*
X189963438Y-80159077D01*
X190000500Y-80188160D01*
X190048671Y-80229003D01*
X190049752Y-80229948D01*
X190137658Y-80295395D01*
X190248676Y-80361112D01*
X190370262Y-80420643D01*
X190489872Y-80467533D01*
X190542536Y-80483557D01*
X190647342Y-80503909D01*
X190775943Y-80516896D01*
X190916568Y-80522333D01*
X191057445Y-80520035D01*
X191186800Y-80509816D01*
X191277322Y-80495113D01*
X191499313Y-80429923D01*
X191699164Y-80337018D01*
X191875574Y-80217550D01*
X192027243Y-80072671D01*
X192152869Y-79903534D01*
X192251152Y-79711291D01*
X192293552Y-79594638D01*
X192320125Y-79481257D01*
X192337735Y-79345146D01*
X192345883Y-79198861D01*
X192345615Y-79177575D01*
X191118572Y-79177575D01*
X191108397Y-79286274D01*
X191074515Y-79376609D01*
X191011893Y-79460419D01*
X190987841Y-79484995D01*
X190902342Y-79551435D01*
X190803520Y-79593998D01*
X190685125Y-79614601D01*
X190560448Y-79616118D01*
X190442195Y-79606101D01*
X190351654Y-79586509D01*
X190312333Y-79571794D01*
X190241461Y-79531689D01*
X190166368Y-79475287D01*
X190097855Y-79411985D01*
X190046721Y-79351179D01*
X190033143Y-79328873D01*
X190022588Y-79297636D01*
X190015083Y-79247931D01*
X190010280Y-79175011D01*
X190007828Y-79074127D01*
X190007322Y-78978113D01*
X190007665Y-78866174D01*
X190009050Y-78785233D01*
X190012012Y-78730009D01*
X190017085Y-78695218D01*
X190024803Y-78675578D01*
X190035701Y-78665804D01*
X190039072Y-78664248D01*
X190068364Y-78659453D01*
X190126137Y-78655532D01*
X190204589Y-78652838D01*
X190295919Y-78651723D01*
X190315750Y-78651722D01*
X190437830Y-78653670D01*
X190532144Y-78659465D01*
X190607086Y-78669899D01*
X190668990Y-78685138D01*
X190822544Y-78743208D01*
X190942961Y-78814603D01*
X191031283Y-78900463D01*
X191088554Y-79001931D01*
X191115815Y-79120149D01*
X191118572Y-79177575D01*
X192345615Y-79177575D01*
X192344070Y-79054957D01*
X192331797Y-78925989D01*
X192322223Y-78873884D01*
X192261092Y-78680421D01*
X192168136Y-78502417D01*
X192045110Y-78341579D01*
X191893769Y-78199614D01*
X191715868Y-78078230D01*
X191513161Y-77979133D01*
X191340822Y-77918957D01*
X191225640Y-77887343D01*
X191115470Y-77862778D01*
X191003174Y-77844463D01*
X190881618Y-77831602D01*
X190743664Y-77823396D01*
X190582178Y-77819048D01*
X190436178Y-77817824D01*
X190003248Y-77816639D01*
X190011542Y-77686504D01*
X190035092Y-77545307D01*
X190085190Y-77423942D01*
X190159702Y-77325441D01*
X190256494Y-77252833D01*
X190341722Y-77217403D01*
X190463837Y-77195074D01*
X190609210Y-77191867D01*
X190771026Y-77206601D01*
X190942471Y-77238094D01*
X191116730Y-77285164D01*
X191286989Y-77346627D01*
X191410717Y-77402841D01*
X191470246Y-77431707D01*
X191515651Y-77451867D01*
X191538743Y-77459734D01*
X191539996Y-77459482D01*
X191547964Y-77441861D01*
X191567862Y-77395157D01*
X191597816Y-77323842D01*
X191635954Y-77232393D01*
X191680405Y-77125283D01*
X191725588Y-77015973D01*
X191906226Y-76578164D01*
X191777738Y-76557060D01*
X191722047Y-76546471D01*
X191638329Y-76528687D01*
X191533754Y-76505322D01*
X191415494Y-76477989D01*
X191290721Y-76448305D01*
X191241036Y-76436242D01*
X191026086Y-76386386D01*
X190837898Y-76349008D01*
X190669447Y-76323351D01*
X190513707Y-76308659D01*
X190363653Y-76304179D01*
X190212261Y-76309154D01*
G36*
X193816515Y-74850655D02*
G01*
X193620874Y-74872073D01*
X193431331Y-74910409D01*
X193240176Y-74967662D01*
X193039697Y-75045833D01*
X192822185Y-75146920D01*
X192783013Y-75166500D01*
X192693121Y-75210786D01*
X192608340Y-75250663D01*
X192537038Y-75282322D01*
X192487583Y-75301956D01*
X192479985Y-75304428D01*
X192407179Y-75326241D01*
X192733090Y-75800368D01*
X192812770Y-75916247D01*
X192885621Y-76022118D01*
X192949163Y-76114386D01*
X193000921Y-76189457D01*
X193038416Y-76243737D01*
X193059170Y-76273631D01*
X193062542Y-76278365D01*
X193076238Y-76268466D01*
X193109950Y-76238709D01*
X193157649Y-76194497D01*
X193183973Y-76169508D01*
X193333121Y-76050880D01*
X193500625Y-75960737D01*
X193644965Y-75911360D01*
X193731610Y-75895853D01*
X193840097Y-75886403D01*
X193957666Y-75883185D01*
X194071559Y-75886375D01*
X194169014Y-75896148D01*
X194207903Y-75903633D01*
X194383181Y-75963936D01*
X194541128Y-76056014D01*
X194681625Y-76179697D01*
X194804558Y-76334817D01*
X194909808Y-76521205D01*
X194997258Y-76738694D01*
X195066793Y-76987116D01*
X195108118Y-77199781D01*
X195118899Y-77293665D01*
X195126245Y-77414948D01*
X195130226Y-77554917D01*
X195130914Y-77704855D01*
X195128379Y-77856046D01*
X195122693Y-77999775D01*
X195113926Y-78127327D01*
X195102149Y-78229986D01*
X195099600Y-78245825D01*
X195043412Y-78500960D01*
X194966857Y-78726766D01*
X194869467Y-78924255D01*
X194750779Y-79094438D01*
X194666530Y-79186446D01*
X194515123Y-79311367D01*
X194349076Y-79403964D01*
X194171192Y-79463733D01*
X193984271Y-79490170D01*
X193791115Y-79482772D01*
X193594524Y-79441035D01*
X193478296Y-79400195D01*
X193317455Y-79318414D01*
X193151680Y-79201102D01*
X193058820Y-79121769D01*
X193006679Y-79075853D01*
X192965713Y-79042166D01*
X192942395Y-79025934D01*
X192939500Y-79025439D01*
X192929093Y-79042025D01*
X192902126Y-79085856D01*
X192860897Y-79153172D01*
X192807704Y-79240218D01*
X192744843Y-79343234D01*
X192674612Y-79458465D01*
X192635521Y-79522655D01*
X192336929Y-80013101D01*
X192709732Y-80197339D01*
X192844524Y-80263517D01*
X192953718Y-80315702D01*
X193043986Y-80356484D01*
X193122005Y-80388457D01*
X193194449Y-80414211D01*
X193267992Y-80436338D01*
X193349309Y-80457431D01*
X193427250Y-80475954D01*
X193496527Y-80490287D01*
X193568976Y-80501118D01*
X193651851Y-80509050D01*
X193752405Y-80514682D01*
X193877890Y-80518616D01*
X193962465Y-80520315D01*
X194083139Y-80521474D01*
X194198851Y-80520889D01*
X194301942Y-80518728D01*
X194384755Y-80515156D01*
X194439633Y-80510341D01*
X194442885Y-80509861D01*
X194727850Y-80448210D01*
X194995451Y-80354709D01*
X195245596Y-80229417D01*
X195478189Y-80072398D01*
X195693136Y-79883713D01*
X195890343Y-79663424D01*
X196033166Y-79467638D01*
X196185213Y-79211373D01*
X196308120Y-78940741D01*
X196402483Y-78653573D01*
X196468894Y-78347700D01*
X196507949Y-78020952D01*
X196520253Y-77689163D01*
X196510134Y-77368203D01*
X196478332Y-77072070D01*
X196423839Y-76795769D01*
X196345643Y-76534305D01*
X196242734Y-76282682D01*
X196230446Y-76256614D01*
X196095073Y-76012931D01*
X195928804Y-75781042D01*
X195736352Y-75565747D01*
X195522427Y-75371846D01*
X195291738Y-75204139D01*
X195076784Y-75081120D01*
X194859635Y-74984769D01*
X194642025Y-74914975D01*
X194415531Y-74869837D01*
X194171727Y-74847455D01*
X194025965Y-74844155D01*
X193816515Y-74850655D01*
G37*
X193816515Y-74850655D02*
X193620874Y-74872073D01*
X193431331Y-74910409D01*
X193240176Y-74967662D01*
X193039697Y-75045833D01*
X192822185Y-75146920D01*
X192783013Y-75166500D01*
X192693121Y-75210786D01*
X192608340Y-75250663D01*
X192537038Y-75282322D01*
X192487583Y-75301956D01*
X192479985Y-75304428D01*
X192407179Y-75326241D01*
X192733090Y-75800368D01*
X192812770Y-75916247D01*
X192885621Y-76022118D01*
X192949163Y-76114386D01*
X193000921Y-76189457D01*
X193038416Y-76243737D01*
X193059170Y-76273631D01*
X193062542Y-76278365D01*
X193076238Y-76268466D01*
X193109950Y-76238709D01*
X193157649Y-76194497D01*
X193183973Y-76169508D01*
X193333121Y-76050880D01*
X193500625Y-75960737D01*
X193644965Y-75911360D01*
X193731610Y-75895853D01*
X193840097Y-75886403D01*
X193957666Y-75883185D01*
X194071559Y-75886375D01*
X194169014Y-75896148D01*
X194207903Y-75903633D01*
X194383181Y-75963936D01*
X194541128Y-76056014D01*
X194681625Y-76179697D01*
X194804558Y-76334817D01*
X194909808Y-76521205D01*
X194997258Y-76738694D01*
X195066793Y-76987116D01*
X195108118Y-77199781D01*
X195118899Y-77293665D01*
X195126245Y-77414948D01*
X195130226Y-77554917D01*
X195130914Y-77704855D01*
X195128379Y-77856046D01*
X195122693Y-77999775D01*
X195113926Y-78127327D01*
X195102149Y-78229986D01*
X195099600Y-78245825D01*
X195043412Y-78500960D01*
X194966857Y-78726766D01*
X194869467Y-78924255D01*
X194750779Y-79094438D01*
X194666530Y-79186446D01*
X194515123Y-79311367D01*
X194349076Y-79403964D01*
X194171192Y-79463733D01*
X193984271Y-79490170D01*
X193791115Y-79482772D01*
X193594524Y-79441035D01*
X193478296Y-79400195D01*
X193317455Y-79318414D01*
X193151680Y-79201102D01*
X193058820Y-79121769D01*
X193006679Y-79075853D01*
X192965713Y-79042166D01*
X192942395Y-79025934D01*
X192939500Y-79025439D01*
X192929093Y-79042025D01*
X192902126Y-79085856D01*
X192860897Y-79153172D01*
X192807704Y-79240218D01*
X192744843Y-79343234D01*
X192674612Y-79458465D01*
X192635521Y-79522655D01*
X192336929Y-80013101D01*
X192709732Y-80197339D01*
X192844524Y-80263517D01*
X192953718Y-80315702D01*
X193043986Y-80356484D01*
X193122005Y-80388457D01*
X193194449Y-80414211D01*
X193267992Y-80436338D01*
X193349309Y-80457431D01*
X193427250Y-80475954D01*
X193496527Y-80490287D01*
X193568976Y-80501118D01*
X193651851Y-80509050D01*
X193752405Y-80514682D01*
X193877890Y-80518616D01*
X193962465Y-80520315D01*
X194083139Y-80521474D01*
X194198851Y-80520889D01*
X194301942Y-80518728D01*
X194384755Y-80515156D01*
X194439633Y-80510341D01*
X194442885Y-80509861D01*
X194727850Y-80448210D01*
X194995451Y-80354709D01*
X195245596Y-80229417D01*
X195478189Y-80072398D01*
X195693136Y-79883713D01*
X195890343Y-79663424D01*
X196033166Y-79467638D01*
X196185213Y-79211373D01*
X196308120Y-78940741D01*
X196402483Y-78653573D01*
X196468894Y-78347700D01*
X196507949Y-78020952D01*
X196520253Y-77689163D01*
X196510134Y-77368203D01*
X196478332Y-77072070D01*
X196423839Y-76795769D01*
X196345643Y-76534305D01*
X196242734Y-76282682D01*
X196230446Y-76256614D01*
X196095073Y-76012931D01*
X195928804Y-75781042D01*
X195736352Y-75565747D01*
X195522427Y-75371846D01*
X195291738Y-75204139D01*
X195076784Y-75081120D01*
X194859635Y-74984769D01*
X194642025Y-74914975D01*
X194415531Y-74869837D01*
X194171727Y-74847455D01*
X194025965Y-74844155D01*
X193816515Y-74850655D01*
G36*
X202267982Y-73943084D02*
G01*
X201918433Y-73943131D01*
X201755723Y-73943138D01*
X199151322Y-73943139D01*
X199151322Y-74096662D01*
X199134936Y-74283487D01*
X199085481Y-74455791D01*
X199002513Y-74614599D01*
X198885588Y-74760934D01*
X198846029Y-74800456D01*
X198703723Y-74912562D01*
X198546815Y-74994323D01*
X198379965Y-75045777D01*
X198207832Y-75066961D01*
X198035078Y-75057911D01*
X197866363Y-75018666D01*
X197706347Y-74949262D01*
X197559691Y-74849735D01*
X197493825Y-74789689D01*
X197371085Y-74642467D01*
X197281081Y-74480571D01*
X197224599Y-74305851D01*
X197202422Y-74120159D01*
X197202127Y-74101891D01*
X197200965Y-73943144D01*
X197131193Y-73943141D01*
X197069298Y-73951542D01*
X197012758Y-73971980D01*
X197009021Y-73974091D01*
X196996251Y-73980717D01*
X196984525Y-73985878D01*
X196973799Y-73991075D01*
X196964032Y-73997814D01*
X196955181Y-74007595D01*
X196947204Y-74021924D01*
X196940058Y-74042302D01*
X196933701Y-74070232D01*
X196928091Y-74107219D01*
X196923186Y-74154764D01*
X196918942Y-74214371D01*
X196915317Y-74287543D01*
X196912270Y-74375783D01*
X196909757Y-74480594D01*
X196907737Y-74603479D01*
X196906167Y-74745941D01*
X196905005Y-74909484D01*
X196904207Y-75095610D01*
X196903733Y-75305822D01*
X196903539Y-75541624D01*
X196903583Y-75804518D01*
X196903823Y-76096008D01*
X196904216Y-76417596D01*
X196904720Y-76770786D01*
X196905293Y-77157081D01*
X196905892Y-77577984D01*
X196905961Y-77629264D01*
X196906498Y-78052850D01*
X196906954Y-78441654D01*
X196907377Y-78797177D01*
X196907814Y-79120922D01*
X196908315Y-79414390D01*
X196908928Y-79679085D01*
X196909701Y-79916509D01*
X196910682Y-80128164D01*
X196911919Y-80315553D01*
X196913461Y-80480178D01*
X196915356Y-80623541D01*
X196917652Y-80747144D01*
X196920397Y-80852491D01*
X196923640Y-80941083D01*
X196927429Y-81014424D01*
X196931812Y-81074014D01*
X196936838Y-81121357D01*
X196942554Y-81157955D01*
X196949009Y-81185310D01*
X196956252Y-81204926D01*
X196964330Y-81218303D01*
X196973291Y-81226945D01*
X196983185Y-81232354D01*
X196994058Y-81236032D01*
X197005960Y-81239482D01*
X197018939Y-81244206D01*
X197022110Y-81245644D01*
X197032074Y-81248875D01*
X197048752Y-81251844D01*
X197073600Y-81254561D01*
X197108073Y-81257037D01*
X197153629Y-81259282D01*
X197211723Y-81261307D01*
X197283812Y-81263122D01*
X197371351Y-81264739D01*
X197475798Y-81266167D01*
X197598608Y-81267417D01*
X197741238Y-81268500D01*
X197905144Y-81269426D01*
X198091783Y-81270206D01*
X198302609Y-81270850D01*
X198539081Y-81271370D01*
X198802654Y-81271775D01*
X199094783Y-81272076D01*
X199416927Y-81272284D01*
X199770540Y-81272409D01*
X200157079Y-81272462D01*
X200578001Y-81272453D01*
X200714349Y-81272440D01*
X201144609Y-81272371D01*
X201540057Y-81272258D01*
X201902166Y-81272089D01*
X202232410Y-81271854D01*
X202532264Y-81271540D01*
X202803201Y-81271137D01*
X203046693Y-81270631D01*
X203264216Y-81270013D01*
X203457243Y-81269270D01*
X203627247Y-81268392D01*
X203775703Y-81267365D01*
X203904083Y-81266180D01*
X204013862Y-81264824D01*
X204106513Y-81263286D01*
X204183510Y-81261554D01*
X204246327Y-81259618D01*
X204296437Y-81257464D01*
X204335314Y-81255083D01*
X204364431Y-81252461D01*
X204385264Y-81249589D01*
X204399284Y-81246454D01*
X204406927Y-81243583D01*
X204420511Y-81237854D01*
X204432983Y-81233630D01*
X204444391Y-81229409D01*
X204454782Y-81223692D01*
X204464202Y-81214979D01*
X204472701Y-81201769D01*
X204480323Y-81182561D01*
X204487118Y-81155857D01*
X204493131Y-81120154D01*
X204498410Y-81073954D01*
X204503003Y-81015756D01*
X204506957Y-80944059D01*
X204510318Y-80857364D01*
X204513134Y-80754170D01*
X204515453Y-80632977D01*
X204517321Y-80492284D01*
X204517809Y-80438281D01*
X204033597Y-80438281D01*
X202322149Y-80438281D01*
X202355080Y-80388388D01*
X202387840Y-80337117D01*
X202415582Y-80288293D01*
X202438700Y-80238500D01*
X202457590Y-80184322D01*
X202472644Y-80122340D01*
X202484260Y-80049139D01*
X202492829Y-79961302D01*
X202498749Y-79855412D01*
X202502412Y-79728052D01*
X202504214Y-79575805D01*
X202504549Y-79395256D01*
X202503812Y-79182986D01*
X202503394Y-79104179D01*
X202498679Y-78259335D01*
X201963465Y-78987981D01*
X201811839Y-79194689D01*
X201680474Y-79374684D01*
X201567950Y-79530349D01*
X201472850Y-79664071D01*
X201393755Y-79778233D01*
X201329246Y-79875221D01*
X201277905Y-79957418D01*
X201238313Y-80027210D01*
X201209053Y-80086982D01*
X201188705Y-80139117D01*
X201175851Y-80186000D01*
X201169074Y-80230017D01*
X201166953Y-80273551D01*
X201168072Y-80318988D01*
X201168357Y-80324699D01*
X201174250Y-80438357D01*
X199298664Y-80438281D01*
X199438171Y-80297613D01*
X199476028Y-80259139D01*
X199511940Y-80221703D01*
X199547486Y-80183238D01*
X199584240Y-80141682D01*
X199623779Y-80094969D01*
X199667679Y-80041034D01*
X199717516Y-79977814D01*
X199774865Y-79903242D01*
X199841304Y-79815256D01*
X199918408Y-79711789D01*
X200007754Y-79590778D01*
X200110917Y-79450158D01*
X200229473Y-79287864D01*
X200364998Y-79101831D01*
X200519070Y-78889995D01*
X200645355Y-78716228D01*
X200803847Y-78497925D01*
X200942109Y-78307053D01*
X201061392Y-78141798D01*
X201162950Y-78000350D01*
X201248034Y-77880895D01*
X201317898Y-77781622D01*
X201373793Y-77700719D01*
X201416973Y-77636373D01*
X201448690Y-77586771D01*
X201470195Y-77550103D01*
X201482743Y-77524556D01*
X201487585Y-77508317D01*
X201486130Y-77499779D01*
X201468492Y-77477059D01*
X201430359Y-77428967D01*
X201374031Y-77358362D01*
X201301809Y-77268102D01*
X201215994Y-77161045D01*
X201118887Y-77040051D01*
X201012789Y-76907978D01*
X200900002Y-76767684D01*
X200782825Y-76622027D01*
X200663560Y-76473868D01*
X200597960Y-76392424D01*
X198969207Y-76392424D01*
X198901514Y-76514889D01*
X198833822Y-76637353D01*
X198833822Y-80193353D01*
X198901514Y-80315817D01*
X198969207Y-80438281D01*
X198168452Y-80438281D01*
X197977291Y-80438226D01*
X197819394Y-80437975D01*
X197691741Y-80437403D01*
X197591312Y-80436383D01*
X197515086Y-80434789D01*
X197460041Y-80432494D01*
X197423157Y-80429374D01*
X197401414Y-80425301D01*
X197391791Y-80420149D01*
X197391266Y-80413791D01*
X197396819Y-80406103D01*
X197396877Y-80406039D01*
X197419753Y-80372948D01*
X197450044Y-80319143D01*
X197476796Y-80265432D01*
X197527536Y-80157067D01*
X197532711Y-78274746D01*
X197537886Y-76392424D01*
X198969207Y-76392424D01*
X200597960Y-76392424D01*
X200544508Y-76326063D01*
X200427970Y-76181471D01*
X200316247Y-76042952D01*
X200211639Y-75913363D01*
X200116449Y-75795564D01*
X200032976Y-75692412D01*
X199963522Y-75606767D01*
X199910387Y-75541486D01*
X199879178Y-75503424D01*
X199757990Y-75361094D01*
X199641400Y-75232654D01*
X199533496Y-75122310D01*
X199438363Y-75034265D01*
X199370850Y-74980286D01*
X199291020Y-74922853D01*
X201127001Y-74922853D01*
X201126485Y-75030589D01*
X201131617Y-75109796D01*
X201150908Y-75183229D01*
X201180770Y-75252839D01*
X201200181Y-75292165D01*
X201221052Y-75331131D01*
X201245289Y-75372325D01*
X201274799Y-75418332D01*
X201311487Y-75471741D01*
X201357261Y-75535138D01*
X201414028Y-75611109D01*
X201483693Y-75702241D01*
X201568163Y-75811122D01*
X201669346Y-75940338D01*
X201789146Y-76092476D01*
X201929472Y-76270122D01*
X201945322Y-76290166D01*
X202498679Y-76989932D01*
X202504036Y-76214928D01*
X202505114Y-75982792D01*
X202504885Y-75786270D01*
X202503336Y-75624716D01*
X202500456Y-75497480D01*
X202496234Y-75403916D01*
X202490659Y-75343376D01*
X202488786Y-75331892D01*
X202459388Y-75210923D01*
X202420871Y-75101870D01*
X202376919Y-75014187D01*
X202350514Y-74976998D01*
X202304953Y-74922853D01*
X203169423Y-74922853D01*
X203375638Y-74923029D01*
X203548081Y-74923603D01*
X203689266Y-74924641D01*
X203801705Y-74926211D01*
X203887910Y-74928378D01*
X203950395Y-74931212D01*
X203991672Y-74934777D01*
X204014253Y-74939142D01*
X204020652Y-74944373D01*
X204020210Y-74945531D01*
X204001884Y-74973193D01*
X203971289Y-75017039D01*
X203955460Y-75039215D01*
X203939095Y-75061344D01*
X203924385Y-75081133D01*
X203911237Y-75100530D01*
X203899560Y-75121482D01*
X203889261Y-75145936D01*
X203880247Y-75175840D01*
X203872425Y-75213141D01*
X203865702Y-75259787D01*
X203859987Y-75317725D01*
X203855186Y-75388903D01*
X203851208Y-75475268D01*
X203847958Y-75578768D01*
X203845345Y-75701349D01*
X203843276Y-75844961D01*
X203841659Y-76011549D01*
X203840400Y-76203061D01*
X203839408Y-76421446D01*
X203838589Y-76668650D01*
X203837851Y-76946620D01*
X203837102Y-77257305D01*
X203836401Y-77542724D01*
X203835740Y-77860916D01*
X203835396Y-78164501D01*
X203835361Y-78451539D01*
X203835625Y-78720093D01*
X203836178Y-78968222D01*
X203837013Y-79193987D01*
X203838120Y-79395450D01*
X203839489Y-79570670D01*
X203841112Y-79717710D01*
X203842980Y-79834630D01*
X203845082Y-79919491D01*
X203847411Y-79970353D01*
X203847852Y-79975728D01*
X203863901Y-80099037D01*
X203888957Y-80198068D01*
X203927114Y-80284494D01*
X203982465Y-80369989D01*
X203989389Y-80379317D01*
X204033597Y-80438281D01*
X204517809Y-80438281D01*
X204518785Y-80330592D01*
X204519894Y-80146400D01*
X204520694Y-79938208D01*
X204521232Y-79704515D01*
X204521555Y-79443822D01*
X204521710Y-79154628D01*
X204521747Y-78835433D01*
X204521710Y-78484737D01*
X204521648Y-78101038D01*
X204521608Y-77682838D01*
X204521607Y-77599817D01*
X204521584Y-77177213D01*
X204521505Y-76789405D01*
X204521360Y-76434904D01*
X204521137Y-76112221D01*
X204520824Y-75819866D01*
X204520410Y-75556351D01*
X204519884Y-75320186D01*
X204519233Y-75109882D01*
X204518446Y-74923950D01*
X204517512Y-74760899D01*
X204516419Y-74619242D01*
X204515156Y-74497488D01*
X204513710Y-74394149D01*
X204512072Y-74307735D01*
X204510227Y-74236757D01*
X204508167Y-74179725D01*
X204505878Y-74135151D01*
X204503349Y-74101545D01*
X204500569Y-74077417D01*
X204497526Y-74061280D01*
X204494209Y-74051642D01*
X204494086Y-74051402D01*
X204487253Y-74036679D01*
X204481563Y-74023350D01*
X204475267Y-74011346D01*
X204466621Y-74000597D01*
X204453879Y-73991035D01*
X204435293Y-73982591D01*
X204409119Y-73975195D01*
X204373609Y-73968778D01*
X204327018Y-73963272D01*
X204267600Y-73958607D01*
X204193608Y-73954715D01*
X204103296Y-73951526D01*
X203994918Y-73948971D01*
X203866728Y-73946982D01*
X203716980Y-73945489D01*
X203543927Y-73944422D01*
X203345824Y-73943715D01*
X203120924Y-73943296D01*
X202867481Y-73943097D01*
X202583749Y-73943050D01*
X202267982Y-73943084D01*
G37*
X202267982Y-73943084D02*
X201918433Y-73943131D01*
X201755723Y-73943138D01*
X199151322Y-73943139D01*
X199151322Y-74096662D01*
X199134936Y-74283487D01*
X199085481Y-74455791D01*
X199002513Y-74614599D01*
X198885588Y-74760934D01*
X198846029Y-74800456D01*
X198703723Y-74912562D01*
X198546815Y-74994323D01*
X198379965Y-75045777D01*
X198207832Y-75066961D01*
X198035078Y-75057911D01*
X197866363Y-75018666D01*
X197706347Y-74949262D01*
X197559691Y-74849735D01*
X197493825Y-74789689D01*
X197371085Y-74642467D01*
X197281081Y-74480571D01*
X197224599Y-74305851D01*
X197202422Y-74120159D01*
X197202127Y-74101891D01*
X197200965Y-73943144D01*
X197131193Y-73943141D01*
X197069298Y-73951542D01*
X197012758Y-73971980D01*
X197009021Y-73974091D01*
X196996251Y-73980717D01*
X196984525Y-73985878D01*
X196973799Y-73991075D01*
X196964032Y-73997814D01*
X196955181Y-74007595D01*
X196947204Y-74021924D01*
X196940058Y-74042302D01*
X196933701Y-74070232D01*
X196928091Y-74107219D01*
X196923186Y-74154764D01*
X196918942Y-74214371D01*
X196915317Y-74287543D01*
X196912270Y-74375783D01*
X196909757Y-74480594D01*
X196907737Y-74603479D01*
X196906167Y-74745941D01*
X196905005Y-74909484D01*
X196904207Y-75095610D01*
X196903733Y-75305822D01*
X196903539Y-75541624D01*
X196903583Y-75804518D01*
X196903823Y-76096008D01*
X196904216Y-76417596D01*
X196904720Y-76770786D01*
X196905293Y-77157081D01*
X196905892Y-77577984D01*
X196905961Y-77629264D01*
X196906498Y-78052850D01*
X196906954Y-78441654D01*
X196907377Y-78797177D01*
X196907814Y-79120922D01*
X196908315Y-79414390D01*
X196908928Y-79679085D01*
X196909701Y-79916509D01*
X196910682Y-80128164D01*
X196911919Y-80315553D01*
X196913461Y-80480178D01*
X196915356Y-80623541D01*
X196917652Y-80747144D01*
X196920397Y-80852491D01*
X196923640Y-80941083D01*
X196927429Y-81014424D01*
X196931812Y-81074014D01*
X196936838Y-81121357D01*
X196942554Y-81157955D01*
X196949009Y-81185310D01*
X196956252Y-81204926D01*
X196964330Y-81218303D01*
X196973291Y-81226945D01*
X196983185Y-81232354D01*
X196994058Y-81236032D01*
X197005960Y-81239482D01*
X197018939Y-81244206D01*
X197022110Y-81245644D01*
X197032074Y-81248875D01*
X197048752Y-81251844D01*
X197073600Y-81254561D01*
X197108073Y-81257037D01*
X197153629Y-81259282D01*
X197211723Y-81261307D01*
X197283812Y-81263122D01*
X197371351Y-81264739D01*
X197475798Y-81266167D01*
X197598608Y-81267417D01*
X197741238Y-81268500D01*
X197905144Y-81269426D01*
X198091783Y-81270206D01*
X198302609Y-81270850D01*
X198539081Y-81271370D01*
X198802654Y-81271775D01*
X199094783Y-81272076D01*
X199416927Y-81272284D01*
X199770540Y-81272409D01*
X200157079Y-81272462D01*
X200578001Y-81272453D01*
X200714349Y-81272440D01*
X201144609Y-81272371D01*
X201540057Y-81272258D01*
X201902166Y-81272089D01*
X202232410Y-81271854D01*
X202532264Y-81271540D01*
X202803201Y-81271137D01*
X203046693Y-81270631D01*
X203264216Y-81270013D01*
X203457243Y-81269270D01*
X203627247Y-81268392D01*
X203775703Y-81267365D01*
X203904083Y-81266180D01*
X204013862Y-81264824D01*
X204106513Y-81263286D01*
X204183510Y-81261554D01*
X204246327Y-81259618D01*
X204296437Y-81257464D01*
X204335314Y-81255083D01*
X204364431Y-81252461D01*
X204385264Y-81249589D01*
X204399284Y-81246454D01*
X204406927Y-81243583D01*
X204420511Y-81237854D01*
X204432983Y-81233630D01*
X204444391Y-81229409D01*
X204454782Y-81223692D01*
X204464202Y-81214979D01*
X204472701Y-81201769D01*
X204480323Y-81182561D01*
X204487118Y-81155857D01*
X204493131Y-81120154D01*
X204498410Y-81073954D01*
X204503003Y-81015756D01*
X204506957Y-80944059D01*
X204510318Y-80857364D01*
X204513134Y-80754170D01*
X204515453Y-80632977D01*
X204517321Y-80492284D01*
X204517809Y-80438281D01*
X204033597Y-80438281D01*
X202322149Y-80438281D01*
X202355080Y-80388388D01*
X202387840Y-80337117D01*
X202415582Y-80288293D01*
X202438700Y-80238500D01*
X202457590Y-80184322D01*
X202472644Y-80122340D01*
X202484260Y-80049139D01*
X202492829Y-79961302D01*
X202498749Y-79855412D01*
X202502412Y-79728052D01*
X202504214Y-79575805D01*
X202504549Y-79395256D01*
X202503812Y-79182986D01*
X202503394Y-79104179D01*
X202498679Y-78259335D01*
X201963465Y-78987981D01*
X201811839Y-79194689D01*
X201680474Y-79374684D01*
X201567950Y-79530349D01*
X201472850Y-79664071D01*
X201393755Y-79778233D01*
X201329246Y-79875221D01*
X201277905Y-79957418D01*
X201238313Y-80027210D01*
X201209053Y-80086982D01*
X201188705Y-80139117D01*
X201175851Y-80186000D01*
X201169074Y-80230017D01*
X201166953Y-80273551D01*
X201168072Y-80318988D01*
X201168357Y-80324699D01*
X201174250Y-80438357D01*
X199298664Y-80438281D01*
X199438171Y-80297613D01*
X199476028Y-80259139D01*
X199511940Y-80221703D01*
X199547486Y-80183238D01*
X199584240Y-80141682D01*
X199623779Y-80094969D01*
X199667679Y-80041034D01*
X199717516Y-79977814D01*
X199774865Y-79903242D01*
X199841304Y-79815256D01*
X199918408Y-79711789D01*
X200007754Y-79590778D01*
X200110917Y-79450158D01*
X200229473Y-79287864D01*
X200364998Y-79101831D01*
X200519070Y-78889995D01*
X200645355Y-78716228D01*
X200803847Y-78497925D01*
X200942109Y-78307053D01*
X201061392Y-78141798D01*
X201162950Y-78000350D01*
X201248034Y-77880895D01*
X201317898Y-77781622D01*
X201373793Y-77700719D01*
X201416973Y-77636373D01*
X201448690Y-77586771D01*
X201470195Y-77550103D01*
X201482743Y-77524556D01*
X201487585Y-77508317D01*
X201486130Y-77499779D01*
X201468492Y-77477059D01*
X201430359Y-77428967D01*
X201374031Y-77358362D01*
X201301809Y-77268102D01*
X201215994Y-77161045D01*
X201118887Y-77040051D01*
X201012789Y-76907978D01*
X200900002Y-76767684D01*
X200782825Y-76622027D01*
X200663560Y-76473868D01*
X200597960Y-76392424D01*
X198969207Y-76392424D01*
X198901514Y-76514889D01*
X198833822Y-76637353D01*
X198833822Y-80193353D01*
X198901514Y-80315817D01*
X198969207Y-80438281D01*
X198168452Y-80438281D01*
X197977291Y-80438226D01*
X197819394Y-80437975D01*
X197691741Y-80437403D01*
X197591312Y-80436383D01*
X197515086Y-80434789D01*
X197460041Y-80432494D01*
X197423157Y-80429374D01*
X197401414Y-80425301D01*
X197391791Y-80420149D01*
X197391266Y-80413791D01*
X197396819Y-80406103D01*
X197396877Y-80406039D01*
X197419753Y-80372948D01*
X197450044Y-80319143D01*
X197476796Y-80265432D01*
X197527536Y-80157067D01*
X197532711Y-78274746D01*
X197537886Y-76392424D01*
X198969207Y-76392424D01*
X200597960Y-76392424D01*
X200544508Y-76326063D01*
X200427970Y-76181471D01*
X200316247Y-76042952D01*
X200211639Y-75913363D01*
X200116449Y-75795564D01*
X200032976Y-75692412D01*
X199963522Y-75606767D01*
X199910387Y-75541486D01*
X199879178Y-75503424D01*
X199757990Y-75361094D01*
X199641400Y-75232654D01*
X199533496Y-75122310D01*
X199438363Y-75034265D01*
X199370850Y-74980286D01*
X199291020Y-74922853D01*
X201127001Y-74922853D01*
X201126485Y-75030589D01*
X201131617Y-75109796D01*
X201150908Y-75183229D01*
X201180770Y-75252839D01*
X201200181Y-75292165D01*
X201221052Y-75331131D01*
X201245289Y-75372325D01*
X201274799Y-75418332D01*
X201311487Y-75471741D01*
X201357261Y-75535138D01*
X201414028Y-75611109D01*
X201483693Y-75702241D01*
X201568163Y-75811122D01*
X201669346Y-75940338D01*
X201789146Y-76092476D01*
X201929472Y-76270122D01*
X201945322Y-76290166D01*
X202498679Y-76989932D01*
X202504036Y-76214928D01*
X202505114Y-75982792D01*
X202504885Y-75786270D01*
X202503336Y-75624716D01*
X202500456Y-75497480D01*
X202496234Y-75403916D01*
X202490659Y-75343376D01*
X202488786Y-75331892D01*
X202459388Y-75210923D01*
X202420871Y-75101870D01*
X202376919Y-75014187D01*
X202350514Y-74976998D01*
X202304953Y-74922853D01*
X203169423Y-74922853D01*
X203375638Y-74923029D01*
X203548081Y-74923603D01*
X203689266Y-74924641D01*
X203801705Y-74926211D01*
X203887910Y-74928378D01*
X203950395Y-74931212D01*
X203991672Y-74934777D01*
X204014253Y-74939142D01*
X204020652Y-74944373D01*
X204020210Y-74945531D01*
X204001884Y-74973193D01*
X203971289Y-75017039D01*
X203955460Y-75039215D01*
X203939095Y-75061344D01*
X203924385Y-75081133D01*
X203911237Y-75100530D01*
X203899560Y-75121482D01*
X203889261Y-75145936D01*
X203880247Y-75175840D01*
X203872425Y-75213141D01*
X203865702Y-75259787D01*
X203859987Y-75317725D01*
X203855186Y-75388903D01*
X203851208Y-75475268D01*
X203847958Y-75578768D01*
X203845345Y-75701349D01*
X203843276Y-75844961D01*
X203841659Y-76011549D01*
X203840400Y-76203061D01*
X203839408Y-76421446D01*
X203838589Y-76668650D01*
X203837851Y-76946620D01*
X203837102Y-77257305D01*
X203836401Y-77542724D01*
X203835740Y-77860916D01*
X203835396Y-78164501D01*
X203835361Y-78451539D01*
X203835625Y-78720093D01*
X203836178Y-78968222D01*
X203837013Y-79193987D01*
X203838120Y-79395450D01*
X203839489Y-79570670D01*
X203841112Y-79717710D01*
X203842980Y-79834630D01*
X203845082Y-79919491D01*
X203847411Y-79970353D01*
X203847852Y-79975728D01*
X203863901Y-80099037D01*
X203888957Y-80198068D01*
X203927114Y-80284494D01*
X203982465Y-80369989D01*
X203989389Y-80379317D01*
X204033597Y-80438281D01*
X204517809Y-80438281D01*
X204518785Y-80330592D01*
X204519894Y-80146400D01*
X204520694Y-79938208D01*
X204521232Y-79704515D01*
X204521555Y-79443822D01*
X204521710Y-79154628D01*
X204521747Y-78835433D01*
X204521710Y-78484737D01*
X204521648Y-78101038D01*
X204521608Y-77682838D01*
X204521607Y-77599817D01*
X204521584Y-77177213D01*
X204521505Y-76789405D01*
X204521360Y-76434904D01*
X204521137Y-76112221D01*
X204520824Y-75819866D01*
X204520410Y-75556351D01*
X204519884Y-75320186D01*
X204519233Y-75109882D01*
X204518446Y-74923950D01*
X204517512Y-74760899D01*
X204516419Y-74619242D01*
X204515156Y-74497488D01*
X204513710Y-74394149D01*
X204512072Y-74307735D01*
X204510227Y-74236757D01*
X204508167Y-74179725D01*
X204505878Y-74135151D01*
X204503349Y-74101545D01*
X204500569Y-74077417D01*
X204497526Y-74061280D01*
X204494209Y-74051642D01*
X204494086Y-74051402D01*
X204487253Y-74036679D01*
X204481563Y-74023350D01*
X204475267Y-74011346D01*
X204466621Y-74000597D01*
X204453879Y-73991035D01*
X204435293Y-73982591D01*
X204409119Y-73975195D01*
X204373609Y-73968778D01*
X204327018Y-73963272D01*
X204267600Y-73958607D01*
X204193608Y-73954715D01*
X204103296Y-73951526D01*
X203994918Y-73948971D01*
X203866728Y-73946982D01*
X203716980Y-73945489D01*
X203543927Y-73944422D01*
X203345824Y-73943715D01*
X203120924Y-73943296D01*
X202867481Y-73943097D01*
X202583749Y-73943050D01*
X202267982Y-73943084D01*
M02*
